<svg version="1.1" viewBox="0 0 998 648" preserveAspectRatio="xMinYMin meet" xmlns="http://www.w3.org/2000/svg">
  <style>

  </style>
  <path class="county" data-location="Yakima" d="M420.4,473.8L419.3,474.9L418.9,475.8L418.7,476.7L420.0,478.6L420.1,479.1L421.8,480.0L421.4,480.8L421.4,481.5L421.9,482.5L422.3,483.8L422.3,485.5L422.7,485.7L423.0,486.4L423.7,486.9L425.0,489.1L424.4,490.1L424.7,490.7L424.5,490.9L424.0,492.9L422.9,493.2L407.4,493.0L406.7,556.8L450.2,557.0L464.9,557.5L526.3,558.0L540.6,557.8L547.5,558.1L554.2,557.8L619.7,557.5L619.7,541.9L619.4,525.3L618.5,525.3L618.4,523.7L617.8,460.9L617.4,460.9L617.6,458.2L617.7,448.7L615.0,448.0L614.2,447.4L612.8,445.3L612.1,443.7L610.4,442.4L608.7,440.5L605.0,431.5L604.9,428.7L601.6,428.3L595.9,428.8L582.7,429.2L536.8,428.8L536.8,412.8L521.0,412.6L521.1,402.4L521.1,398.1L520.9,396.7L499.7,396.9L471.4,396.7L471.4,396.0L470.7,396.0L470.7,395.3L470.0,395.3L470.0,394.7L469.4,394.7L469.4,392.6L468.0,392.6L468.1,392.0L467.4,391.9L467.4,390.6L466.7,390.6L466.7,389.9L466.1,389.9L466.1,387.9L465.4,387.9L465.4,387.2L464.7,387.2L464.8,386.6L464.1,386.6L464.1,385.9L463.4,385.9L463.4,381.9L462.0,381.8L461.5,381.0L460.6,381.1L460.3,380.7L459.2,380.4L459.3,379.7L458.8,379.4L458.5,378.6L458.1,378.3L457.6,376.9L457.0,376.7L456.9,376.3L456.2,375.8L455.8,375.2L455.4,375.3L454.8,374.9L454.0,373.7L452.3,372.9L452.3,372.5L451.8,371.9L450.7,372.3L449.5,371.1L449.6,370.8L448.4,370.4L448.1,369.9L448.2,369.6L447.7,369.3L447.2,367.9L446.1,367.8L445.4,366.9L443.2,366.1L439.3,363.6L438.5,364.0L436.7,364.3L435.4,365.8L432.9,366.1L431.8,365.3L430.8,365.6L429.9,366.7L429.2,366.9L428.6,366.5L428.6,365.9L428.3,365.5L427.3,364.8L427.0,363.9L426.5,364.6L427.0,365.9L427.5,366.4L427.5,367.6L427.3,367.7L427.2,368.3L427.7,369.5L427.0,369.9L426.8,370.5L426.1,370.8L426.0,371.4L424.3,373.7L425.0,375.6L424.8,376.5L423.7,377.0L423.6,377.5L423.5,378.2L423.0,379.3L423.4,380.2L421.8,381.5L421.7,382.0L420.8,382.2L418.5,383.6L418.4,383.9L418.9,384.9L417.0,386.5L416.9,387.2L417.6,387.9L417.5,388.5L417.9,389.3L417.6,390.1L417.9,392.0L417.4,393.0L417.1,392.9L417.0,394.2L415.9,394.4L415.6,395.0L414.8,395.4L414.6,395.8L413.4,395.9L412.6,396.6L411.9,396.7L411.1,398.1L410.6,398.2L409.8,399.5L409.7,399.8L410.0,400.5L409.9,400.9L409.0,401.7L408.7,402.9L408.4,403.2L410.2,403.9L410.5,404.9L412.0,405.2L411.8,406.4L412.0,407.0L412.6,407.7L412.5,407.9L412.8,408.8L413.5,409.7L413.2,410.2L413.7,410.7L414.1,410.4L414.9,411.4L415.0,412.3L414.7,412.6L414.9,412.8L414.5,413.1L416.1,414.7L416.6,414.8L416.5,415.1L416.8,415.9L416.7,416.1L417.5,416.9L417.5,417.3L418.4,417.9L418.5,418.3L417.8,418.3L417.1,419.0L416.7,419.9L416.9,420.6L417.8,421.9L417.9,422.8L418.3,422.9L418.9,423.8L418.4,424.7L419.6,424.5L420.7,424.7L420.8,425.6L420.0,427.0L419.9,427.5L420.1,428.1L422.3,428.9L422.6,430.1L423.0,430.4L426.1,430.2L426.4,430.4L427.8,430.7L428.5,431.3L429.8,433.2L428.9,433.3L426.4,435.0L426.4,435.9L427.1,437.0L426.7,438.1L423.8,437.7L423.2,438.4L422.6,438.5L422.6,438.9L422.0,440.0L422.2,441.9L421.6,442.8L421.5,443.6L421.6,444.4L422.1,445.1L424.3,445.5L423.8,446.4L424.8,446.7L425.3,447.3L424.9,449.0L425.3,450.1L425.1,450.9L423.7,451.8L423.4,452.8L422.6,453.6L423.3,455.2L422.7,457.4L422.1,457.6L421.7,458.2L421.0,458.5L420.4,459.5L420.8,460.6L421.9,461.6L421.0,462.5L420.9,462.9L421.3,463.8L420.1,465.0L419.1,465.2L418.2,465.9L417.0,466.2L417.1,466.8L416.5,468.4L416.3,469.7L417.2,472.0L419.6,472.8L420.4,473.8Z" />
  <path class="county" data-location="Chelan" d="M481.9,292.8L481.3,293.9L481.2,294.8L483.8,295.5L483.9,296.5L484.9,297.3L484.6,298.3L484.6,300.0L486.6,301.6L488.9,301.2L489.6,302.1L491.2,303.4L492.5,302.4L494.0,303.7L494.9,304.1L495.5,303.6L495.7,302.9L496.7,301.9L498.7,302.6L499.9,302.1L500.2,303.1L500.9,303.7L501.0,304.7L501.8,305.4L502.3,306.4L504.1,306.4L505.6,306.7L506.3,307.3L508.6,307.5L509.4,308.4L509.4,309.9L510.1,311.8L511.8,312.8L513.0,313.0L515.1,315.6L515.9,315.4L516.1,315.9L517.1,316.8L517.9,316.7L518.1,316.9L519.1,317.1L520.6,316.9L521.2,317.2L523.0,316.4L524.2,317.0L524.5,317.5L525.4,317.3L527.9,317.9L528.2,319.9L529.1,321.0L529.1,322.8L530.3,323.6L531.3,323.3L531.9,323.4L531.9,322.6L534.3,321.8L533.7,319.3L534.0,318.6L534.7,318.6L535.1,318.9L534.9,319.2L535.4,319.7L535.9,321.0L536.8,321.6L538.2,321.6L539.4,322.7L539.4,323.4L540.2,323.9L540.7,323.5L542.3,324.6L542.9,324.8L544.2,325.9L544.5,326.9L545.9,328.1L547.0,329.5L549.7,329.6L551.8,332.0L588.8,331.6L589.0,329.2L589.4,328.8L589.5,326.3L589.8,324.5L589.6,323.0L589.6,321.8L589.3,321.0L590.1,318.3L589.7,317.3L589.3,316.9L587.9,316.6L586.2,314.1L584.3,312.3L579.8,312.1L578.8,311.4L575.2,310.5L572.2,310.0L570.9,310.1L568.8,309.6L564.6,307.5L563.7,306.0L563.4,304.3L562.6,301.7L561.7,300.0L561.3,297.8L560.8,296.8L560.6,295.5L560.8,292.9L561.6,289.4L561.8,286.9L562.1,286.4L562.4,284.0L563.4,281.8L563.7,280.6L564.5,279.4L565.8,278.1L567.9,276.6L568.5,274.2L570.1,272.5L570.4,271.7L570.6,270.4L571.0,269.6L570.6,267.8L570.8,265.5L570.4,264.5L570.6,263.2L571.6,260.6L572.5,259.8L572.6,258.3L573.0,257.3L574.6,255.8L575.2,253.9L574.5,250.4L573.5,249.0L573.1,247.8L572.4,247.1L572.2,246.3L572.8,243.7L574.1,241.3L576.3,239.4L583.6,236.3L585.3,236.6L587.3,237.8L588.2,238.7L589.0,238.8L591.3,238.1L596.4,235.9L598.6,235.6L599.6,235.7L600.5,235.3L601.5,233.3L602.6,231.6L602.9,229.7L604.3,226.7L604.7,223.4L608.2,221.7L609.8,220.3L611.1,217.1L611.0,216.3L610.3,214.1L610.3,213.0L611.4,211.5L613.4,210.1L614.4,208.6L615.0,208.1L616.6,206.4L617.0,205.4L616.7,204.1L615.7,202.1L593.6,202.2L593.2,201.9L592.9,202.0L592.0,201.1L591.3,201.1L590.9,200.8L590.9,200.3L591.8,198.8L591.7,198.3L591.2,198.1L589.5,196.2L589.6,195.2L589.9,195.0L589.3,194.0L589.3,192.9L588.7,192.3L588.3,191.6L584.7,189.9L584.4,189.0L582.8,188.7L581.3,188.0L581.3,187.0L580.8,186.5L581.3,185.9L581.0,185.2L582.2,184.9L582.8,185.2L583.2,184.8L582.9,184.2L581.9,183.5L581.7,182.9L580.1,182.8L579.8,182.2L579.3,182.4L578.3,182.1L576.8,181.2L576.4,180.5L574.6,180.7L573.0,180.4L572.3,179.4L571.8,179.5L571.0,178.6L570.2,178.5L570.4,177.9L569.4,177.0L569.1,176.3L568.4,175.9L567.4,174.6L566.6,174.6L564.7,172.2L563.8,172.0L563.4,171.1L562.6,171.0L562.0,171.6L561.1,171.5L559.9,172.1L558.9,171.2L559.0,170.8L558.1,169.2L557.3,168.5L556.6,168.6L556.2,168.3L555.8,167.3L555.7,166.4L555.1,166.3L554.8,165.7L554.9,165.2L554.5,163.7L554.6,163.1L555.0,162.6L555.1,161.1L555.7,160.6L555.9,159.1L556.5,158.2L556.3,157.0L555.6,155.9L555.5,154.6L554.8,154.3L554.2,154.6L552.6,154.7L552.0,154.3L551.5,153.2L550.9,152.9L551.8,151.9L551.3,150.7L550.8,150.1L548.9,149.6L547.8,148.9L546.1,148.6L544.5,146.9L543.6,147.0L541.6,145.5L541.4,145.1L541.7,144.3L541.4,143.8L540.4,143.7L539.8,142.6L538.9,142.1L538.3,141.1L538.3,140.7L537.6,140.5L537.1,139.5L536.7,139.2L536.0,137.4L535.0,137.6L534.3,138.3L531.1,138.3L530.0,137.3L529.9,136.7L528.4,136.1L527.2,136.1L526.6,135.5L527.2,134.5L527.0,133.1L527.2,132.5L528.0,131.2L529.0,130.7L529.3,128.9L530.1,128.4L529.6,127.4L529.7,126.2L529.2,126.0L529.2,125.5L526.9,124.8L526.5,124.0L525.2,123.8L524.2,122.9L523.9,122.2L522.9,121.8L522.5,121.4L521.4,121.8L519.2,121.8L519.0,121.5L519.6,120.9L519.6,120.0L519.7,119.5L519.5,118.8L519.0,118.5L519.1,117.6L518.3,115.7L518.3,115.4L518.8,115.3L518.8,114.3L518.0,113.5L517.3,113.4L517.1,112.4L516.8,112.0L517.0,111.5L518.4,111.4L518.9,110.3L518.9,109.8L519.1,109.7L519.9,108.5L521.2,108.3L520.5,107.6L518.7,106.7L518.5,106.0L519.1,104.7L520.4,103.4L521.7,103.2L521.5,102.8L520.5,102.2L518.1,101.3L518.3,100.3L518.0,99.8L518.2,98.7L519.1,97.6L519.2,96.6L518.8,95.8L518.3,95.7L517.4,96.3L515.8,96.8L514.5,96.9L513.1,96.6L512.5,96.9L512.5,97.6L511.8,98.2L510.9,98.3L509.4,99.3L507.3,99.2L506.2,100.4L505.1,100.9L503.8,101.2L502.9,101.0L502.0,101.4L500.2,100.5L500.1,100.2L499.4,99.8L499.3,99.5L498.5,99.0L498.5,98.3L498.8,98.2L499.5,97.1L498.6,96.2L498.7,95.8L498.5,95.6L497.5,95.0L497.5,94.5L497.7,94.2L496.1,93.5L496.0,93.2L495.2,93.3L495.0,93.7L493.6,93.5L493.1,94.7L493.6,95.7L493.0,96.2L492.9,97.0L491.8,96.8L491.4,96.1L490.1,95.5L489.8,95.8L489.0,95.9L488.4,96.5L487.8,96.4L488.1,97.8L487.9,98.2L485.8,98.0L483.6,96.9L482.2,97.0L482.0,97.7L481.6,98.5L482.3,99.7L482.2,100.1L482.4,100.8L482.1,102.7L481.8,102.8L481.3,102.3L480.3,102.8L479.3,102.4L477.7,102.9L477.0,102.7L476.0,103.5L471.6,103.5L471.3,104.1L470.1,105.0L469.2,106.4L469.0,107.2L469.3,107.6L468.7,108.6L468.6,109.4L468.3,109.9L468.5,110.2L468.6,111.0L469.2,111.7L470.1,112.2L470.6,112.1L471.1,112.7L471.4,114.8L470.8,115.4L470.3,117.5L470.9,118.9L470.0,119.0L469.1,118.7L468.3,119.9L468.3,120.8L468.0,121.2L467.8,122.3L468.6,123.4L468.8,124.3L468.4,124.9L469.5,125.8L470.6,127.7L470.9,129.1L470.7,129.5L470.9,130.6L470.6,131.0L469.4,131.2L468.5,130.8L468.1,131.4L467.8,132.4L467.4,132.3L467.2,133.6L467.8,134.3L467.7,134.9L467.2,135.4L467.3,136.4L467.6,136.7L468.7,136.5L470.1,137.8L470.8,138.0L471.2,138.8L471.2,139.4L472.7,138.9L475.5,139.7L475.8,140.5L475.8,141.4L475.5,142.1L474.6,142.4L474.4,143.1L475.3,144.5L475.4,145.6L475.9,146.5L478.0,148.5L479.3,151.6L480.8,152.8L480.2,155.4L480.3,156.1L481.8,156.4L482.4,157.8L483.9,158.4L484.9,159.5L485.8,159.8L485.7,160.3L486.1,161.9L487.0,163.0L487.4,164.8L486.2,165.6L484.3,165.2L484.0,165.6L484.1,166.1L483.3,166.4L482.3,166.4L481.4,166.9L481.4,167.7L480.1,169.0L480.3,170.0L480.2,170.4L480.9,171.2L481.2,171.7L481.1,172.4L481.7,173.5L482.4,173.8L482.3,174.2L481.1,175.1L480.3,174.8L479.3,174.9L479.2,175.9L478.3,176.8L478.1,177.6L477.4,177.7L476.5,178.5L475.9,178.5L475.9,178.8L475.3,179.9L474.4,180.5L473.8,181.1L472.9,180.6L471.8,180.6L469.8,182.0L468.0,182.0L467.1,182.4L465.7,183.6L464.6,183.0L464.0,183.1L463.2,183.4L462.9,184.2L462.3,184.5L461.2,184.4L460.8,185.4L459.7,186.1L459.4,186.8L456.7,187.4L457.2,188.7L457.2,189.3L459.5,191.2L459.7,192.4L460.1,193.1L461.0,193.8L460.9,194.6L461.1,195.0L460.9,195.5L460.2,196.1L459.5,197.4L458.9,197.7L458.8,198.2L458.0,198.1L457.4,198.4L457.2,199.1L457.2,200.5L456.7,200.9L456.7,201.6L456.3,202.0L455.2,203.1L455.2,203.6L455.6,204.7L455.5,205.3L454.9,206.4L454.4,206.7L454.1,207.2L454.1,208.0L454.4,208.9L453.3,210.0L453.3,210.3L454.1,210.7L454.3,211.1L454.1,211.9L453.5,212.5L453.1,213.7L453.6,214.4L453.8,216.1L454.5,216.6L454.7,217.2L455.3,217.3L456.1,216.8L455.9,217.9L456.6,219.1L456.9,220.6L457.2,221.3L456.5,222.4L456.5,223.6L457.2,224.0L458.8,224.0L459.0,224.2L458.9,224.7L460.2,224.9L460.4,225.2L460.5,226.2L461.3,226.5L462.1,226.7L463.8,225.9L464.7,226.1L465.7,225.7L466.2,226.4L466.8,226.5L466.7,227.3L465.4,229.0L465.2,229.9L464.7,230.8L464.0,231.2L463.9,232.0L462.2,233.0L461.9,233.5L461.9,234.1L461.1,234.4L460.5,235.0L460.7,236.0L460.5,236.4L462.0,238.2L461.7,239.8L462.5,240.0L463.2,239.6L463.7,239.8L464.3,242.0L465.2,242.6L465.6,243.3L465.3,244.2L464.8,244.7L464.9,245.1L464.6,245.3L464.9,246.3L466.7,247.3L467.2,248.1L467.0,249.4L465.5,250.2L464.2,250.0L464.0,250.4L464.1,250.8L463.6,251.5L462.2,252.6L460.2,253.3L460.0,254.1L459.3,255.0L459.3,255.7L460.0,257.3L459.6,258.6L458.9,258.8L459.0,259.2L458.7,260.6L459.6,262.0L459.4,263.2L459.7,263.9L460.5,264.1L461.1,265.1L461.1,265.7L460.4,266.2L460.3,266.7L460.8,268.3L461.4,268.7L461.4,269.2L461.1,269.7L461.6,270.6L462.2,271.0L463.2,271.0L463.8,271.8L463.9,273.0L464.5,273.9L464.0,274.7L465.4,276.7L465.9,278.2L466.4,278.2L467.1,278.6L467.7,279.3L467.7,279.9L469.3,281.3L470.2,281.1L472.0,282.3L472.3,283.3L475.7,284.2L476.3,285.6L475.9,286.6L476.3,287.5L476.7,287.7L477.7,289.4L479.3,289.8L480.3,290.6L480.4,291.2L480.8,291.9L481.4,292.2L481.9,292.8Z" />
  <path class="county" data-location="Kitsap" d="M249.8,287.0L249.4,301.9L282.5,302.9L284.2,298.8L284.5,294.2L284.8,292.5L285.7,290.4L289.2,284.4L289.6,282.1L290.2,281.0L291.3,279.9L293.4,278.6L294.6,277.3L294.7,274.9L293.5,271.6L294.6,267.0L294.6,263.9L293.8,261.8L294.1,258.9L293.4,254.0L293.4,251.9L295.2,247.1L296.4,245.5L296.9,242.5L298.2,240.4L298.5,239.0L297.8,236.5L296.0,232.3L296.3,229.1L297.8,224.6L297.4,221.9L296.0,219.4L292.6,214.7L291.6,212.3L290.4,207.4L289.2,205.5L288.2,204.7L281.5,202.0L279.9,201.0L278.7,200.0L276.4,197.2L275.1,198.0L273.9,199.2L272.9,201.1L272.5,202.9L272.8,206.5L273.9,209.2L276.3,211.0L277.1,212.0L277.4,213.1L277.1,214.9L263.7,228.0L261.2,231.1L259.7,234.4L258.6,238.0L256.4,241.3L255.7,242.9L255.4,244.2L255.4,245.3L255.5,246.2L256.3,248.4L256.2,249.3L255.8,250.1L254.4,251.5L253.0,252.2L247.2,252.6L244.1,253.4L241.8,255.1L238.7,258.1L234.3,260.2L233.4,261.2L232.6,263.1L232.3,263.5L229.4,265.2L228.8,265.9L226.6,270.4L221.7,277.0L220.4,279.5L225.9,279.7L231.4,279.4L250.1,280.4L249.8,287.0Z" />
  <path class="county" data-location="Lincoln" d="M728.2,284.0L728.9,329.7L874.1,325.8L872.0,260.2L872.3,260.2L870.7,221.2L869.3,219.5L868.9,219.7L868.3,219.0L867.4,219.1L865.7,218.0L863.2,217.3L862.8,217.6L862.7,218.5L862.4,219.1L861.0,219.6L860.1,219.4L859.9,219.7L859.2,219.8L858.7,220.3L858.6,221.1L856.5,222.1L856.0,221.7L853.4,221.1L852.4,220.5L849.6,220.2L848.8,221.0L848.0,222.3L847.4,223.8L847.2,225.4L846.8,225.8L845.5,226.4L844.4,226.2L843.0,227.7L842.8,228.3L842.5,228.1L842.2,227.2L840.8,227.4L840.2,227.0L839.0,227.0L838.1,225.2L836.2,222.8L836.4,221.8L834.8,221.0L833.6,221.1L833.3,220.9L833.6,218.7L832.9,216.4L831.0,213.3L830.4,211.7L829.3,211.1L828.4,211.8L828.1,211.6L827.8,210.6L828.2,209.6L828.1,209.3L827.1,208.3L825.8,208.5L826.0,206.8L824.8,205.7L824.0,204.0L823.0,203.8L822.6,202.1L822.0,200.9L821.4,200.6L819.0,201.7L818.0,201.7L817.5,201.1L816.8,201.2L815.9,201.8L815.4,203.0L814.0,203.2L813.6,204.1L812.0,205.6L808.8,207.5L808.3,209.0L808.2,210.0L807.2,210.1L806.6,210.6L805.7,210.5L804.6,212.7L804.9,214.2L804.0,216.9L804.0,220.4L802.6,222.0L801.8,222.0L800.8,222.5L796.6,221.8L795.7,221.2L794.5,221.0L792.9,220.0L791.6,218.3L791.4,217.4L791.4,214.6L790.9,213.6L790.4,213.3L790.1,213.2L789.0,214.2L786.1,214.9L785.1,214.7L782.2,214.8L781.2,214.3L780.5,213.2L780.5,212.3L781.6,209.9L781.9,208.2L781.7,207.4L780.7,206.4L777.9,205.1L777.0,204.3L775.3,204.3L773.6,205.0L772.5,204.6L772.0,205.1L770.3,205.4L769.1,205.0L768.2,205.7L767.5,205.8L766.9,205.5L765.6,203.7L762.3,202.8L761.8,202.9L760.4,203.9L759.9,204.8L759.6,207.2L759.8,208.9L759.6,210.1L757.3,210.8L756.0,210.5L754.1,209.3L752.4,208.5L748.3,207.7L746.7,207.0L745.7,206.2L744.9,204.9L744.4,201.7L744.1,201.2L742.6,200.4L739.8,200.7L736.2,202.4L729.4,203.9L727.0,203.4L727.7,265.2L728.2,284.0Z" />
  <path class="county" data-location="Mason" d="M231.3,341.1L231.2,342.2L231.8,342.9L233.2,342.7L233.5,343.4L234.2,343.6L234.5,344.2L234.6,345.2L234.3,346.8L234.8,347.4L235.5,347.6L236.8,347.1L238.2,347.3L241.4,345.0L243.9,341.8L245.8,340.6L245.3,336.2L244.0,334.5L242.2,329.6L242.2,328.6L242.6,326.0L243.4,324.4L245.5,322.1L247.4,319.5L248.6,316.0L248.6,314.5L248.3,312.2L249.1,310.2L250.1,280.4L231.4,279.4L225.9,279.7L220.4,279.5L221.7,277.0L226.6,270.4L228.8,265.9L229.4,265.2L231.8,263.9L162.7,261.5L160.1,326.1L162.1,326.1L161.1,358.6L176.3,359.1L189.2,359.1L213.3,360.0L213.4,356.2L214.8,354.9L215.9,354.4L218.3,354.6L219.5,354.4L220.2,354.0L220.7,353.4L221.4,352.0L221.7,349.2L222.0,348.4L222.9,347.4L225.3,346.5L226.1,346.8L228.0,345.8L229.6,344.0L230.0,341.7L230.7,341.1L231.3,341.1Z" />
  <path class="county" data-location="Pend Oreille" d="M958.4,0.0L910.2,1.9L910.7,16.2L902.4,16.6L903.1,32.5L895.2,32.8L895.9,50.3L887.8,50.5L888.5,66.6L904.3,65.9L904.3,66.5L905.3,94.9L907.4,141.5L907.5,146.0L907.3,146.0L907.9,162.4L915.9,162.1L916.7,178.3L965.6,176.5L965.0,161.8L963.6,116.3L958.4,0.0Z" />
  <path class="county" data-location="Skagit" d="M284.1,124.9L284.7,126.7L286.4,129.2L290.2,133.0L291.5,134.8L293.5,136.3L296.2,137.5L367.9,138.9L404.7,139.1L404.8,139.4L414.1,139.8L475.7,140.4L475.4,139.7L472.8,138.9L471.1,139.4L470.9,138.1L470.1,137.8L468.7,136.5L467.6,136.7L467.3,136.4L467.2,135.9L467.3,135.2L467.8,134.7L467.7,134.1L467.2,133.6L467.4,132.3L467.8,132.4L468.1,131.4L468.5,130.8L469.4,131.2L470.6,131.0L470.9,130.6L470.7,129.5L470.9,129.1L470.6,127.7L469.5,125.8L468.4,124.9L468.8,124.3L468.6,123.4L467.8,122.3L468.0,121.2L468.3,120.8L468.3,119.9L469.1,118.7L470.0,119.0L470.9,118.9L470.3,117.5L470.8,115.4L471.4,114.8L471.0,112.5L470.6,112.1L470.1,112.2L469.2,111.7L468.6,111.0L468.5,110.2L468.3,109.9L468.6,109.4L468.7,108.6L469.3,107.6L469.0,107.2L469.1,106.7L470.1,105.0L471.3,104.1L471.8,103.4L476.0,103.5L477.0,102.7L477.7,102.9L479.3,102.4L480.3,102.8L481.3,102.3L481.8,102.8L482.1,102.7L482.4,100.8L482.2,100.1L482.3,99.7L481.6,98.5L482.0,97.7L482.2,97.0L483.6,96.9L485.8,98.0L487.9,98.2L488.1,97.8L487.8,96.4L488.4,96.5L489.0,95.9L489.8,95.8L490.1,95.5L491.4,96.1L491.8,96.8L492.9,97.0L493.0,96.2L493.6,95.7L493.1,94.7L493.6,93.6L495.0,93.7L495.2,93.3L495.8,93.2L497.7,94.2L497.5,94.5L497.5,95.0L498.5,95.6L498.7,95.8L498.6,96.2L499.5,97.1L498.8,98.2L498.5,98.3L498.4,98.9L499.3,99.5L499.4,99.8L502.0,101.4L502.9,101.0L504.6,101.1L506.2,100.4L507.3,99.2L509.4,99.3L510.9,98.3L511.8,98.2L512.5,97.6L512.5,96.9L512.7,96.6L511.8,94.8L512.8,92.7L512.8,91.5L513.8,91.4L514.7,90.4L514.3,88.6L513.8,88.3L512.3,86.0L511.5,85.7L510.6,84.7L510.2,84.7L510.0,85.4L510.1,86.0L509.2,86.9L509.2,87.2L507.4,88.0L505.5,87.2L505.0,86.6L504.8,86.0L503.9,85.4L503.6,84.7L502.6,83.7L502.4,83.0L502.5,82.1L502.8,81.7L502.0,79.3L503.1,78.4L503.5,77.3L503.9,77.2L504.1,76.2L504.5,75.9L505.8,75.9L506.4,75.2L506.5,74.5L506.8,74.1L506.5,73.4L487.2,73.4L487.1,76.4L445.4,76.2L339.3,73.8L294.0,73.0L280.2,76.0L278.7,76.1L276.2,75.7L274.7,75.0L272.4,73.8L268.6,71.2L267.3,72.4L265.3,73.3L264.4,74.5L261.1,77.2L260.2,78.3L259.8,79.3L259.5,81.7L260.5,85.3L262.0,88.4L261.9,89.3L261.0,91.4L260.8,92.8L261.1,93.5L261.9,94.3L262.6,95.6L263.1,97.2L263.2,98.2L262.6,99.9L260.2,102.7L259.8,103.5L259.7,104.5L259.9,105.8L262.1,113.6L262.2,115.1L262.1,116.7L270.6,115.6L271.5,115.8L271.8,116.8L272.5,117.1L274.3,116.9L275.5,116.2L276.6,116.4L279.7,115.0L280.6,114.9L281.1,115.2L281.2,116.1L282.1,117.3L281.7,118.9L282.0,119.5L282.3,121.7L282.7,122.4L282.8,123.1L283.8,124.1L284.1,124.9Z" />
  <path class="county" data-location="Clallam" d="M164.9,146.3L162.2,147.0L145.4,143.5L104.7,131.2L91.1,124.5L91.1,124.8L16.1,89.5L14.5,89.4L13.6,90.8L13.3,91.8L13.1,94.1L13.8,96.6L14.4,97.6L16.1,99.5L12.6,100.6L10.7,101.7L9.1,103.3L8.2,104.3L7.6,105.5L6.8,107.8L6.7,109.1L7.2,112.2L7.4,113.1L8.2,114.4L8.1,115.5L8.8,117.9L10.0,120.3L11.9,121.9L11.7,123.3L12.1,125.3L12.7,127.1L10.7,129.3L9.4,131.3L9.0,132.4L8.6,134.8L8.7,136.1L9.7,139.4L6.6,140.0L3.7,141.8L1.3,145.2L0.8,147.7L0.9,150.2L1.3,152.0L1.7,153.0L2.4,154.0L2.5,155.0L3.3,157.5L4.2,158.9L5.7,160.4L6.0,162.2L6.6,163.7L7.7,165.6L7.2,167.6L7.3,170.3L5.9,172.4L5.2,174.6L5.6,178.3L5.0,180.0L4.5,183.6L4.9,186.7L5.5,188.4L6.1,189.3L7.4,190.6L9.6,192.2L9.2,195.3L9.4,197.0L9.8,198.4L11.5,200.9L13.7,202.7L14.4,204.3L48.6,205.5L57.8,206.3L164.4,210.7L164.3,213.4L233.4,215.7L233.6,212.7L233.4,210.2L233.6,199.5L233.9,196.7L234.2,188.7L234.5,186.1L234.3,183.1L234.5,178.9L240.9,179.1L239.7,177.7L240.8,174.3L240.8,172.9L240.1,171.4L239.7,170.9L238.7,170.6L234.4,170.9L235.7,126.3L198.5,137.4L164.9,146.3Z" />
  <path class="county" data-location="Ferry" d="M740.1,39.5L741.0,71.5L736.8,71.7L737.6,103.5L740.8,103.4L741.4,146.4L742.7,199.4L742.0,199.4L742.0,200.5L743.3,200.7L744.1,201.2L744.4,201.7L744.9,204.9L745.7,206.2L746.7,207.0L748.3,207.7L752.4,208.5L756.7,210.7L759.6,210.1L759.8,208.9L759.6,207.2L759.9,204.8L760.4,203.9L761.8,202.9L762.3,202.8L765.6,203.7L766.9,205.5L767.5,205.8L768.2,205.7L769.1,205.0L770.3,205.4L772.0,205.1L772.5,204.6L773.6,205.0L775.3,204.3L777.0,204.3L777.9,205.1L780.7,206.4L781.7,207.4L781.9,208.2L781.6,209.9L780.5,212.3L780.5,213.2L781.2,214.3L782.2,214.8L785.1,214.7L786.1,214.9L789.0,214.2L790.1,213.2L790.4,213.3L790.9,213.6L791.4,214.6L791.4,217.4L791.6,218.3L792.9,220.0L794.5,221.0L795.7,221.2L796.6,221.8L799.6,222.5L800.8,222.5L801.8,222.0L802.6,222.0L804.0,220.4L804.0,216.9L804.9,214.2L804.6,212.7L804.9,211.9L805.7,210.9L805.8,209.5L804.4,206.5L803.6,204.1L804.3,196.2L801.5,193.8L800.8,191.1L797.5,187.0L797.4,186.2L798.0,185.3L801.3,183.2L802.6,181.9L805.0,181.8L807.9,183.2L813.0,183.2L813.6,182.8L814.0,182.0L814.1,181.2L814.0,180.2L814.2,179.9L815.0,179.6L816.1,180.5L816.6,180.5L817.8,179.5L818.1,178.5L817.7,176.1L818.2,174.9L818.2,174.0L817.3,171.2L815.3,169.7L815.1,166.9L815.5,166.1L816.0,165.6L817.7,165.6L819.1,165.0L821.0,164.8L822.0,163.8L822.4,162.8L822.7,161.1L822.0,157.3L821.9,155.2L822.1,154.5L822.8,154.0L822.9,153.5L822.6,151.8L821.9,151.2L825.5,147.7L827.1,145.7L828.2,142.1L828.4,140.7L827.8,139.3L827.3,138.8L827.0,138.0L826.7,136.3L826.2,135.0L825.1,133.9L824.7,132.7L823.7,131.2L823.6,129.9L823.0,128.2L823.0,125.0L822.6,121.6L822.1,120.4L821.6,118.1L819.9,115.2L819.7,113.6L820.0,111.5L819.6,110.3L819.6,108.6L818.5,107.3L818.4,106.3L818.5,104.6L819.0,103.4L821.1,101.3L822.0,97.9L821.9,96.6L822.1,94.8L822.5,94.0L823.3,93.5L825.7,93.9L826.7,92.4L826.8,91.8L826.5,90.8L826.3,88.8L826.6,88.2L827.1,84.4L828.3,82.0L828.0,80.9L827.8,78.2L827.8,77.4L828.0,77.3L827.9,76.9L828.1,76.0L828.9,74.8L828.6,73.5L829.1,73.4L829.2,72.0L830.2,71.3L830.4,70.5L830.4,69.7L829.5,65.6L829.4,65.3L828.7,65.2L828.5,64.3L828.9,64.3L829.0,63.5L828.1,60.2L828.4,59.0L828.1,58.2L828.2,57.1L827.3,55.6L828.3,53.9L828.2,53.6L827.4,53.8L826.9,53.2L826.7,52.3L827.6,52.1L827.6,51.3L826.2,49.9L826.5,49.4L827.1,49.3L827.2,49.0L827.1,48.6L826.2,48.3L826.0,46.7L826.6,46.2L827.3,46.8L827.4,45.7L826.9,44.6L825.8,45.3L825.5,45.9L824.9,46.0L824.6,45.7L824.3,44.4L823.2,44.0L822.7,43.5L822.9,42.2L822.6,40.6L821.8,39.3L821.3,37.2L820.6,36.6L820.2,35.3L818.2,34.8L818.3,32.8L817.3,31.6L817.6,29.9L816.4,29.3L815.7,28.0L815.9,26.8L815.6,26.1L816.2,24.8L816.0,24.0L817.0,23.4L817.7,21.4L816.7,20.9L815.6,19.6L814.9,18.6L814.4,17.1L815.2,14.1L816.0,12.2L815.5,11.5L814.4,11.3L814.2,10.9L814.8,9.9L814.8,8.3L815.0,8.0L815.5,8.1L816.0,7.7L815.9,7.3L815.4,7.2L814.4,6.4L814.3,5.9L815.5,5.9L816.9,6.5L817.3,5.9L817.1,5.3L739.3,7.4L739.9,24.0L740.1,39.5Z" />
  <path class="county" data-location="Asotin" d="M932.3,505.7L933.5,534.5L925.8,534.8L926.7,557.8L938.1,557.2L942.9,557.4L945.0,556.9L959.1,556.3L999.2,555.1L998.8,554.4L998.2,551.2L997.2,549.9L997.1,547.9L996.8,547.0L995.8,546.1L995.2,544.7L995.2,543.1L993.2,540.5L991.5,540.3L990.4,539.8L989.9,538.9L989.8,538.1L989.9,537.4L990.5,536.7L992.7,536.2L993.2,535.5L993.3,534.5L993.6,533.9L993.7,531.6L995.5,529.0L995.4,526.0L996.9,524.5L996.9,523.2L996.1,522.2L995.2,522.1L994.5,521.1L994.2,520.1L991.4,517.6L991.0,516.9L990.9,515.8L992.0,512.7L992.1,511.7L991.6,509.6L990.4,507.0L989.6,505.8L987.1,503.5L987.1,502.8L987.8,501.0L987.8,500.5L987.5,499.8L986.1,498.6L984.8,498.3L983.0,496.6L982.7,495.6L982.4,492.7L981.4,491.9L978.5,491.3L977.6,490.5L977.3,489.9L977.2,487.5L977.6,486.6L979.1,484.8L980.0,479.8L980.3,479.3L980.4,477.5L979.7,476.2L978.1,475.5L977.3,475.5L975.8,476.3L973.7,477.9L973.0,478.1L971.6,477.6L969.9,477.4L967.7,476.4L965.5,475.9L963.2,476.8L961.3,477.9L959.4,478.2L957.8,477.3L957.3,476.5L957.3,475.7L958.3,473.0L956.8,471.2L955.2,470.5L955.7,479.9L939.4,480.5L939.6,483.1L934.1,483.3L934.1,485.9L931.5,486.1L931.9,498.9L932.3,505.7Z" />
  <path class="county" data-location="Franklin" d="M695.9,511.1L695.8,512.5L696.2,513.5L699.7,515.4L704.1,520.2L708.4,521.5L712.2,521.7L715.4,522.4L725.2,527.7L726.4,525.0L727.4,523.3L731.6,520.9L733.6,519.2L740.4,518.1L748.1,516.2L749.3,514.9L749.9,513.4L751.4,512.3L751.8,510.8L752.5,510.2L755.3,509.0L758.4,509.1L759.7,508.1L759.9,506.5L758.9,504.7L758.9,504.0L760.5,502.3L760.8,499.4L762.3,496.0L762.8,495.8L765.5,495.6L768.1,495.8L768.5,495.2L768.7,492.8L769.0,492.1L771.3,491.1L771.9,490.5L772.8,488.2L773.3,487.5L776.1,486.1L776.4,485.6L776.4,484.7L775.8,482.6L775.8,481.7L776.5,479.5L776.4,478.1L778.0,474.4L778.0,473.6L777.7,471.4L778.0,469.4L778.3,468.8L781.7,464.2L784.8,462.7L786.6,459.0L789.1,456.8L793.1,455.2L794.6,453.4L795.6,451.5L796.7,450.9L797.3,450.8L798.6,451.1L802.4,453.5L804.8,453.9L806.7,453.9L810.1,450.6L814.6,448.9L816.1,448.8L817.2,449.0L820.1,451.1L821.3,451.0L823.3,449.9L824.5,449.6L825.0,449.6L827.6,451.4L828.7,451.7L829.3,450.7L829.2,450.0L828.9,449.9L829.7,448.7L829.6,447.8L830.0,447.7L830.7,448.1L830.8,447.4L830.6,446.3L830.8,445.5L830.6,445.1L828.5,443.7L828.4,443.3L828.6,442.5L827.9,442.1L827.6,441.3L827.1,441.1L826.8,440.3L826.9,439.8L826.4,439.3L826.9,438.1L827.3,437.9L827.1,437.4L827.3,437.3L827.2,436.4L827.4,436.3L827.2,436.0L828.0,435.4L828.0,435.0L823.6,425.1L824.8,424.2L825.7,425.0L826.4,424.4L828.6,423.9L808.7,424.9L760.4,426.5L701.6,427.1L681.5,427.6L681.8,438.6L671.0,438.6L670.5,439.5L670.6,439.9L671.5,440.8L676.0,443.1L676.6,444.1L676.9,445.7L676.9,448.8L677.3,450.4L681.1,454.8L681.8,456.0L684.0,457.8L686.9,459.4L689.2,462.2L690.4,464.3L694.6,467.1L694.9,467.6L696.4,473.3L695.7,475.2L696.2,477.6L695.9,480.6L696.5,483.8L695.6,489.5L695.9,491.0L695.9,493.4L695.2,494.7L696.1,498.3L697.2,500.1L698.0,504.9L697.8,507.5L696.4,509.7L695.9,511.1Z" />
  <path class="county" data-location="Clark" d="M309.3,647.9L311.6,647.2L312.5,596.3L312.8,588.2L313.4,588.2L313.9,553.5L313.2,553.5L313.2,553.2L312.2,552.7L310.6,552.4L310.0,552.6L309.0,554.0L307.7,554.2L307.6,556.3L307.4,556.7L306.6,557.2L306.2,557.8L305.4,558.0L304.9,559.3L305.1,560.2L304.6,560.9L303.5,560.9L303.1,561.3L303.7,562.1L303.5,563.3L303.8,563.9L304.7,564.6L304.8,565.0L304.3,566.0L303.5,566.4L303.4,567.0L303.5,567.7L302.5,569.5L301.0,570.7L299.9,570.8L299.3,571.2L298.6,570.8L298.5,570.1L296.7,570.4L294.0,568.2L291.4,567.8L291.4,567.3L290.9,567.2L289.5,567.6L288.4,567.4L288.0,567.0L288.0,566.2L287.1,565.7L283.8,565.0L283.1,565.3L282.9,565.8L282.4,565.9L281.5,565.1L281.2,565.3L281.4,566.0L281.3,566.4L280.1,566.4L279.6,565.5L278.7,565.9L278.0,565.6L276.5,566.5L276.5,566.9L276.8,567.6L274.9,568.7L274.5,569.5L273.8,570.0L273.3,571.3L272.5,571.5L270.5,570.9L269.8,571.2L269.2,572.0L267.9,572.6L267.1,573.5L266.0,574.3L265.3,574.1L264.0,574.2L262.4,573.8L261.3,574.5L260.6,575.6L259.9,574.6L259.0,573.9L257.7,573.7L256.1,573.0L255.7,573.1L255.6,573.7L255.3,574.1L253.9,574.7L252.5,574.4L252.3,574.7L252.6,575.7L252.4,576.3L251.5,577.7L250.7,577.9L249.7,577.8L250.0,580.1L248.6,580.7L248.4,581.2L249.1,581.9L250.6,581.3L250.4,583.2L251.0,584.7L252.1,585.9L252.2,586.6L251.8,586.8L250.1,586.0L249.4,586.0L248.1,587.1L245.2,588.3L244.5,589.2L243.6,589.5L243.5,590.7L242.1,594.2L242.1,597.0L245.2,602.3L246.2,606.5L246.3,611.1L244.5,617.5L244.2,621.0L245.4,625.4L248.7,627.9L251.9,629.2L254.7,631.6L256.7,632.9L260.7,634.6L266.1,635.1L272.8,637.2L276.2,638.7L281.9,640.6L285.1,643.0L287.1,643.7L290.7,643.1L293.2,641.9L294.7,641.6L298.3,642.9L300.9,646.9L305.7,647.9L309.3,647.9Z" />
  <path class="county" data-location="Kittitas" d="M544.3,428.9L584.8,429.1L595.9,428.8L601.6,428.3L604.9,428.7L605.3,425.4L606.3,424.1L607.8,422.8L608.8,421.5L610.5,417.4L610.8,414.9L610.6,413.8L609.9,412.7L607.4,409.1L605.8,406.4L605.6,400.5L605.9,395.0L605.6,393.4L605.7,392.0L605.5,390.5L601.0,381.2L600.8,380.1L600.9,378.5L600.3,377.0L600.0,373.3L596.7,369.9L596.1,368.8L595.7,367.5L595.6,366.5L595.9,365.0L597.5,360.6L598.5,359.6L599.5,359.3L600.7,356.4L600.8,353.4L599.6,350.7L599.4,349.0L599.5,348.1L600.3,345.9L600.1,342.8L600.5,341.1L600.3,340.0L599.7,339.0L598.4,338.1L592.8,338.7L591.4,338.4L589.2,335.4L588.6,333.0L588.8,331.6L551.8,332.0L549.7,329.6L547.0,329.5L545.9,328.1L544.5,326.9L544.2,325.9L542.9,324.8L542.3,324.6L540.7,323.5L540.2,323.9L539.4,323.4L539.4,322.7L538.2,321.6L536.8,321.6L535.9,321.0L535.4,319.7L534.9,319.2L535.1,318.9L534.4,318.6L534.0,318.6L533.7,319.3L534.3,321.8L531.9,322.6L531.9,323.4L531.3,323.3L530.3,323.6L529.8,323.4L529.1,322.8L529.1,321.0L528.2,319.9L528.0,317.9L525.4,317.3L524.5,317.5L524.2,317.0L523.0,316.4L521.2,317.2L520.6,316.9L519.1,317.1L518.1,316.9L517.9,316.7L517.1,316.8L516.1,315.9L515.9,315.4L515.1,315.6L513.0,313.0L511.8,312.8L510.1,311.8L509.4,309.9L509.4,308.4L508.6,307.5L506.3,307.3L505.6,306.7L504.1,306.4L502.3,306.4L501.8,305.4L501.0,304.7L500.9,303.7L500.2,303.1L499.9,302.1L498.7,302.6L496.7,301.9L495.7,302.9L495.5,303.6L494.9,304.1L494.0,303.7L492.5,302.4L491.2,303.4L489.6,302.1L488.9,301.2L486.6,301.6L485.7,300.9L484.6,300.0L484.6,298.3L484.9,297.3L483.9,296.5L483.9,295.5L481.2,294.8L481.3,293.9L481.9,292.7L480.8,291.9L480.4,291.2L480.3,290.6L479.3,289.8L477.7,289.4L476.7,287.7L476.3,287.5L475.9,286.6L476.3,285.6L475.7,284.2L472.3,283.3L472.0,282.3L470.2,281.1L469.3,281.3L467.7,279.9L467.7,279.3L467.1,278.6L466.4,278.2L465.9,278.2L465.4,276.7L464.0,274.7L464.5,273.9L463.9,273.0L463.8,271.8L463.2,271.0L462.2,271.0L461.6,270.6L461.4,269.8L460.8,269.5L460.6,269.7L460.3,270.7L458.6,269.9L458.0,269.9L457.5,270.5L456.3,269.9L453.8,270.9L454.0,271.6L453.7,272.2L454.1,273.0L453.8,273.8L453.2,274.5L453.2,275.2L453.1,275.4L452.5,275.5L451.7,274.8L450.9,275.3L449.3,275.3L448.2,274.6L446.6,275.4L446.2,276.3L446.2,276.9L446.0,277.3L446.1,278.2L445.7,278.7L445.9,278.8L445.9,279.3L444.8,279.6L444.8,280.0L445.1,280.3L444.8,280.4L444.9,280.8L443.8,281.5L443.3,281.2L443.0,281.8L443.1,282.1L442.5,283.1L440.3,283.2L440.1,283.7L439.7,283.9L439.5,284.4L439.7,284.9L438.7,285.0L439.1,285.6L438.8,286.7L438.6,287.1L438.1,287.5L438.2,287.7L437.6,288.6L437.4,290.0L436.3,290.7L436.3,291.3L436.0,291.5L434.7,291.3L433.7,292.3L432.9,291.8L432.6,292.0L432.4,292.6L431.6,293.8L429.7,294.0L427.6,295.8L427.7,296.4L427.5,296.9L426.9,297.5L427.3,298.8L426.8,299.7L426.1,299.7L424.4,300.3L423.8,301.0L423.6,301.8L421.7,301.8L421.5,302.7L421.9,302.8L422.1,303.2L422.1,304.8L421.5,305.5L421.1,305.3L420.7,306.0L421.6,306.7L421.7,307.7L421.2,308.3L419.8,308.6L419.8,309.4L420.2,310.9L419.5,310.6L418.3,310.9L417.5,310.6L417.1,311.4L416.7,311.5L416.7,312.2L417.2,312.8L416.8,314.0L416.9,314.3L418.6,315.4L421.0,317.9L420.5,320.0L419.2,322.0L419.1,322.5L419.6,323.0L420.2,323.0L420.6,323.4L420.9,325.0L420.7,325.5L421.4,326.4L422.4,326.9L422.4,326.1L422.8,325.6L423.6,326.3L425.5,326.4L426.3,326.9L428.4,327.1L428.6,327.0L428.5,326.6L429.6,325.9L429.8,326.2L429.8,327.1L432.2,327.8L432.2,328.5L432.6,328.9L432.5,330.3L432.9,331.7L433.3,332.1L433.2,332.7L432.6,333.2L432.4,334.3L431.6,334.4L430.8,335.2L429.7,335.5L429.9,336.1L429.1,338.3L429.2,338.6L431.4,339.5L433.3,339.7L435.2,340.8L436.1,342.5L435.8,343.1L436.3,343.9L436.4,345.3L435.9,345.8L435.9,346.4L434.9,347.9L435.7,349.8L436.5,350.3L437.4,352.6L437.1,352.9L436.7,354.2L435.2,355.1L434.4,354.9L432.8,355.3L431.4,354.4L430.9,354.5L430.2,353.9L429.0,353.7L425.3,355.3L425.2,356.1L424.5,356.5L424.4,357.2L423.5,357.8L424.1,360.2L424.6,360.5L424.5,361.1L424.0,361.5L424.1,361.8L425.3,362.9L426.5,362.3L427.0,363.2L427.3,363.2L427.3,363.6L427.0,363.9L427.2,364.7L428.3,365.5L428.6,365.9L428.7,366.6L429.5,366.8L430.7,365.6L431.8,365.3L432.9,366.1L435.4,365.8L436.7,364.3L438.5,364.0L439.3,363.6L443.2,366.1L445.4,366.9L446.1,367.8L447.2,367.9L447.7,369.3L448.2,369.6L448.1,369.9L448.4,370.4L449.6,370.8L449.5,371.1L450.7,372.3L451.8,371.9L452.3,372.5L452.3,372.9L454.0,373.7L454.8,374.9L455.4,375.3L455.8,375.2L456.2,375.8L456.9,376.3L457.0,376.7L457.6,376.9L458.1,378.3L458.5,378.6L458.8,379.4L459.3,379.7L459.2,380.4L460.3,380.7L460.6,381.1L461.5,381.0L462.0,381.8L463.4,381.9L463.4,385.9L464.1,385.9L464.1,386.6L464.8,386.6L464.7,387.2L465.4,387.2L465.4,387.9L466.1,387.9L466.1,389.9L466.7,389.9L466.7,390.6L467.4,390.6L467.4,391.9L468.1,392.0L468.0,392.6L469.4,392.6L469.4,394.7L470.0,394.7L470.0,395.3L470.7,395.3L470.7,396.0L471.4,396.0L471.4,396.7L499.7,396.9L520.9,396.7L521.1,398.1L521.1,402.4L521.0,412.6L536.8,412.8L536.8,428.8L544.3,428.9Z" />
  <path class="county" data-location="Klickitat" d="M419.3,556.8L395.3,556.7L394.9,588.0L394.9,588.8L395.4,588.8L395.2,605.1L407.3,605.3L406.9,605.9L405.6,606.1L405.1,606.9L404.5,607.1L404.2,608.0L404.4,609.3L404.9,609.6L405.8,611.1L406.4,611.6L405.9,612.4L406.4,614.6L406.2,615.9L409.2,616.7L413.9,620.3L418.9,621.7L421.8,622.0L425.5,620.1L430.0,619.8L433.3,620.8L436.5,623.2L445.8,626.2L447.7,630.2L448.4,633.9L448.2,636.3L449.8,638.2L454.8,638.0L455.6,637.2L456.6,637.6L458.5,636.1L458.1,635.2L462.7,630.6L465.4,629.8L469.3,630.1L472.7,629.7L475.8,630.6L479.8,629.0L480.9,629.1L484.9,632.2L487.2,631.6L492.4,626.3L501.0,623.6L513.9,618.2L516.5,615.5L520.9,612.6L526.6,612.5L530.7,614.0L535.6,619.3L537.6,621.1L540.7,622.1L550.8,621.2L561.0,618.9L566.3,617.1L575.8,616.1L581.0,609.4L584.7,607.4L593.9,605.1L607.3,597.7L614.8,596.9L619.9,595.4L619.7,557.5L554.2,557.8L547.5,558.1L540.6,557.8L526.3,558.0L464.9,557.5L454.2,557.1L419.3,556.8Z" />
  <path class="county" data-location="Cowlitz" d="M232.2,553.0L232.6,555.7L235.3,558.9L237.5,565.2L240.5,569.0L241.3,574.3L240.5,577.9L242.1,583.2L243.7,586.3L243.6,589.5L244.5,589.2L245.2,588.3L248.1,587.1L249.1,586.0L250.1,586.0L251.8,586.8L252.2,586.6L252.1,585.9L251.0,584.7L250.4,583.2L250.6,581.3L249.1,581.9L248.4,581.2L248.6,580.7L250.0,580.1L249.7,577.8L250.7,577.9L251.5,577.7L252.4,576.3L252.6,575.7L252.3,574.7L252.5,574.4L253.9,574.7L255.3,574.1L255.6,573.7L255.7,573.1L256.1,573.0L257.7,573.7L259.0,573.9L259.9,574.6L260.6,575.6L261.3,574.5L262.4,573.8L264.0,574.2L265.3,574.1L266.0,574.3L267.1,573.5L267.9,572.6L269.2,572.0L269.8,571.2L270.5,570.9L272.5,571.5L273.3,571.3L273.8,570.0L274.5,569.5L274.9,568.7L276.8,567.6L276.5,566.9L276.5,566.5L278.0,565.6L278.7,565.9L279.7,565.6L280.1,566.4L280.8,566.5L281.3,566.3L281.2,565.3L281.5,565.1L282.4,565.9L282.9,565.8L283.1,565.3L283.8,565.0L285.7,565.3L287.8,566.0L288.0,567.0L288.4,567.4L289.5,567.6L290.9,567.2L291.4,567.3L291.4,567.8L294.0,568.2L295.0,569.2L295.8,569.5L296.3,570.2L296.9,570.5L298.5,570.1L298.6,570.8L299.3,571.2L301.8,570.2L302.5,569.5L303.5,567.7L303.4,567.0L303.5,566.4L304.3,566.0L304.8,565.0L304.7,564.6L303.8,563.9L303.5,563.3L303.7,562.1L303.1,561.3L303.5,560.9L304.6,560.9L305.1,560.2L304.9,559.3L305.4,558.0L306.2,557.8L306.6,557.2L307.4,556.7L307.6,556.3L307.7,554.2L309.0,554.0L310.0,552.6L310.6,552.4L312.2,552.7L313.2,553.2L313.2,553.5L313.9,553.5L314.4,524.3L315.1,524.4L315.9,492.2L293.0,491.3L217.4,489.2L207.2,488.9L191.0,488.9L191.0,505.0L190.3,513.9L190.4,528.3L196.5,525.4L202.9,526.3L204.1,527.6L211.0,532.4L212.2,533.8L216.9,536.3L222.1,541.8L229.5,545.9L231.9,550.3L232.2,553.0Z" />
  <path class="county" data-location="Pacific" d="M73.7,423.5L75.4,433.4L76.0,444.1L75.0,463.2L75.2,465.2L75.0,468.5L75.0,472.1L74.7,478.0L75.0,479.8L74.4,486.9L73.0,492.2L73.0,493.0L72.5,494.8L71.9,495.8L71.3,497.5L70.9,500.6L69.9,503.3L69.5,505.2L69.8,507.2L85.7,507.3L85.8,507.2L85.8,506.0L86.1,505.2L85.5,503.5L86.0,501.3L87.4,500.9L88.6,502.1L89.9,505.6L92.1,506.0L93.7,506.9L95.7,508.5L97.0,510.5L99.0,512.6L106.4,513.6L113.8,511.2L118.4,510.6L123.4,508.0L125.0,508.9L126.2,486.5L154.9,488.0L173.1,488.5L173.8,471.2L174.0,457.4L174.0,455.4L173.2,455.3L173.7,443.9L173.9,434.4L173.9,423.4L173.6,423.4L173.9,419.6L174.1,412.8L144.2,411.4L109.8,410.7L107.5,410.3L84.1,409.0L71.5,408.5L72.2,415.6L73.7,423.5Z" />
  <path class="county" data-location="Thurston" d="M201.4,394.7L200.5,418.9L261.8,420.8L269.6,421.3L278.0,421.3L286.0,421.7L286.0,421.5L322.0,422.4L321.5,421.9L321.1,421.0L318.9,421.1L318.5,420.5L317.8,420.4L317.5,419.9L316.4,420.0L316.0,420.6L314.9,420.4L314.6,420.7L314.5,421.7L313.6,421.5L312.4,419.6L311.8,420.1L311.5,420.0L311.4,419.4L310.3,418.0L309.8,417.9L309.4,417.3L308.7,417.1L308.2,416.1L308.3,415.6L309.1,413.9L309.6,413.5L309.4,412.5L309.3,411.1L309.6,410.4L309.5,409.9L308.7,409.6L307.6,409.9L306.8,409.5L306.8,408.5L306.3,407.9L306.8,407.4L306.5,406.9L305.7,407.3L305.1,408.1L304.4,408.2L302.9,407.8L302.3,407.0L301.8,407.3L301.0,406.6L300.5,406.8L300.0,407.7L299.8,407.7L299.1,407.3L298.7,406.5L297.2,406.8L294.2,405.5L292.9,405.4L291.9,404.9L290.7,404.8L289.9,403.8L289.8,403.1L289.1,402.7L287.8,403.0L287.2,402.2L286.6,402.4L285.9,402.2L285.9,400.6L286.4,400.1L285.7,399.4L285.8,398.7L286.1,398.4L285.7,398.1L285.2,396.7L285.6,395.2L284.0,393.5L282.2,393.0L281.5,391.4L279.3,390.3L277.9,390.0L277.1,389.4L276.7,388.6L276.7,387.1L276.1,384.9L276.4,384.4L277.2,384.1L277.3,383.8L276.6,383.7L276.0,384.0L275.8,383.5L275.1,383.2L274.3,383.6L274.1,383.0L274.3,382.7L275.7,382.7L275.1,381.5L274.6,382.1L273.9,382.2L271.3,381.6L271.1,383.3L270.2,382.7L268.9,382.5L267.8,381.1L268.7,379.3L268.7,378.2L269.0,377.8L268.9,377.5L266.9,376.5L266.3,375.8L265.7,376.5L265.3,376.6L264.7,375.4L264.8,375.1L263.6,374.1L263.4,373.4L263.7,372.6L262.7,371.6L262.7,371.0L263.4,370.1L263.2,369.3L262.3,368.9L262.4,367.9L262.1,367.5L261.1,367.3L261.6,366.3L260.9,366.0L260.9,365.5L260.0,365.0L260.3,364.4L259.8,363.0L259.4,362.7L259.8,361.6L259.5,361.1L260.9,360.3L260.8,359.7L261.1,359.0L260.5,358.7L260.4,358.3L260.5,354.9L259.0,353.8L254.0,351.2L253.1,350.4L252.8,350.0L252.6,349.0L251.3,348.0L249.7,345.5L249.2,344.3L247.5,342.1L245.8,340.6L243.9,341.8L241.4,345.0L238.2,347.3L236.8,347.1L235.5,347.6L234.8,347.4L234.3,346.8L234.6,345.2L234.5,344.2L234.2,343.6L233.5,343.4L233.2,342.7L231.8,342.9L231.2,342.2L231.4,341.7L231.3,340.9L230.4,341.2L229.9,341.9L229.6,344.0L228.0,345.8L226.1,346.8L225.3,346.5L222.9,347.4L222.0,348.4L221.7,349.2L221.4,352.0L220.7,353.4L220.2,354.0L219.5,354.4L218.3,354.6L215.9,354.4L214.8,354.9L213.4,356.2L213.3,360.0L197.3,359.4L197.1,367.9L197.2,370.5L196.8,375.7L202.2,376.0L201.4,394.7Z" />
  <path class="county" data-location="Lewis" d="M265.6,421.1L200.5,418.9L200.8,413.6L195.4,413.2L189.3,413.3L174.1,412.8L173.9,419.6L173.6,423.4L173.9,423.4L173.9,434.4L173.7,443.9L173.2,455.3L174.0,455.4L174.0,457.4L173.8,471.2L173.1,488.5L186.8,488.8L207.2,488.9L293.0,491.3L315.7,492.1L315.7,491.9L332.0,492.2L332.0,491.9L337.1,492.0L422.9,493.2L424.0,492.9L424.5,490.9L424.7,490.7L424.4,490.1L425.0,489.1L423.7,486.9L423.0,486.4L422.7,485.7L422.3,485.3L422.3,483.8L421.9,482.5L421.4,481.5L421.4,480.8L421.8,480.0L420.1,479.1L419.5,477.8L418.8,476.9L418.9,475.8L419.3,474.9L420.4,473.8L419.6,472.8L417.2,472.0L416.3,469.8L416.3,469.3L416.8,467.1L417.1,466.8L417.0,466.2L418.2,465.9L419.1,465.2L420.1,465.0L421.3,463.8L420.9,462.9L421.0,462.5L421.9,461.6L420.8,460.6L420.4,459.5L421.0,458.5L421.7,458.2L422.1,457.6L422.7,457.4L423.3,455.2L422.6,453.6L423.4,452.8L423.7,451.8L425.1,450.9L425.3,450.1L424.9,449.0L425.3,447.3L424.8,446.7L423.8,446.4L424.3,445.5L422.1,445.1L421.6,444.4L421.5,443.6L421.6,442.8L422.2,441.9L422.0,440.0L422.6,438.9L422.6,438.5L423.2,438.4L423.8,437.7L426.7,438.1L427.1,437.0L426.4,435.9L426.4,435.0L428.9,433.3L429.8,433.2L428.5,431.3L427.8,430.7L426.4,430.4L426.1,430.2L423.0,430.4L422.6,430.1L422.3,428.9L420.1,428.1L419.9,427.5L420.0,427.0L420.8,425.6L420.7,424.7L419.6,424.5L418.4,424.7L418.9,423.8L418.3,422.9L417.9,422.8L417.8,421.9L416.9,420.6L416.9,419.9L378.4,419.4L376.0,420.8L374.7,421.9L374.3,423.0L373.2,423.5L372.4,424.4L372.6,425.3L371.8,426.0L370.8,426.1L369.3,428.3L368.9,429.3L366.9,429.6L366.3,429.1L366.0,429.4L364.9,429.3L363.3,429.0L362.5,428.5L361.4,428.5L360.0,427.7L356.8,427.4L356.3,427.1L355.6,425.7L353.3,424.4L352.4,424.6L352.5,425.0L352.1,425.5L351.5,425.5L351.2,426.1L350.6,426.3L349.7,426.3L349.3,425.8L348.5,425.7L348.4,424.9L347.7,425.0L347.2,424.6L346.4,425.0L346.2,425.5L345.7,425.5L345.4,426.2L344.8,426.5L344.1,426.3L342.5,426.5L340.0,425.2L339.5,425.6L337.2,424.6L333.0,425.1L331.4,424.1L330.7,424.3L329.5,424.1L329.0,424.4L327.3,424.0L327.2,423.4L325.2,423.6L324.3,423.3L324.3,422.8L323.4,422.5L322.6,422.8L322.2,422.7L322.0,422.4L311.9,422.1L265.6,421.1Z" />
  <path class="county" data-location="Douglas" d="M697.7,224.0L697.6,214.4L700.2,214.3L700.2,211.5L705.6,211.4L705.5,208.7L708.2,208.7L708.1,203.2L710.8,203.2L710.7,200.4L725.8,200.0L725.8,198.7L727.8,196.1L728.2,194.7L728.4,193.1L729.3,191.7L729.5,189.4L728.9,188.6L726.1,186.3L723.2,185.2L722.5,184.5L721.8,182.7L721.5,181.3L720.9,180.1L720.4,177.8L720.4,175.8L719.6,172.5L718.9,171.2L716.4,168.5L715.2,167.6L714.1,167.2L713.2,167.3L711.9,167.9L710.7,167.8L710.1,167.6L707.7,165.7L706.4,165.4L703.9,166.7L701.4,169.5L699.5,169.6L698.9,170.0L698.1,170.4L696.9,172.0L695.5,172.0L694.4,172.5L691.8,174.7L690.1,174.5L686.8,172.4L685.8,172.5L684.0,174.0L682.8,175.4L682.3,177.1L682.4,181.8L681.7,184.1L681.1,184.7L677.9,184.1L674.2,184.8L673.7,184.7L671.4,183.1L669.3,180.1L668.6,179.6L666.8,179.7L665.7,179.3L663.7,179.6L662.2,179.0L661.0,178.9L659.3,180.3L659.2,182.6L658.6,183.4L657.8,184.1L655.8,184.9L654.5,186.2L653.5,187.6L650.0,190.1L648.3,192.1L647.3,194.4L646.6,194.9L645.7,195.1L644.1,194.8L641.9,193.9L640.8,192.7L638.4,190.6L637.7,189.5L637.4,188.4L638.8,185.8L640.3,181.5L640.1,179.9L638.6,177.3L638.3,177.2L636.4,178.9L633.9,179.2L633.1,178.6L632.0,176.5L631.3,175.8L630.3,175.4L627.5,175.2L627.1,175.7L627.3,177.6L626.9,178.4L625.3,178.8L622.8,178.6L620.7,180.0L619.6,180.1L618.3,180.8L616.3,182.6L614.2,183.6L612.8,184.7L612.6,185.9L612.8,186.5L614.3,189.3L615.8,191.3L616.1,193.4L615.4,195.9L614.6,196.7L614.2,197.6L614.0,199.7L614.2,200.3L616.0,202.3L617.0,205.4L616.1,207.0L614.4,208.6L613.4,210.1L611.5,211.4L610.6,212.4L610.2,213.2L610.2,213.8L611.0,216.3L611.1,217.1L610.3,219.3L609.8,220.3L608.6,221.4L604.7,223.4L604.2,227.0L602.9,229.7L602.5,231.8L601.5,233.3L600.8,235.0L599.7,235.7L598.6,235.6L596.4,235.9L591.3,238.1L589.0,238.8L588.2,238.7L587.3,237.8L585.3,236.6L583.2,236.4L576.1,239.6L574.1,241.3L573.1,243.0L572.5,244.4L572.3,246.6L573.1,247.8L573.5,249.0L574.5,250.4L575.2,253.9L574.6,255.8L573.0,257.3L572.6,258.3L572.5,259.8L571.6,260.6L570.6,263.2L570.4,264.5L570.8,265.5L570.6,267.8L571.0,269.6L570.6,270.4L570.3,272.0L568.5,274.2L567.8,276.8L565.8,278.1L563.8,280.4L563.4,281.8L562.5,283.6L562.1,286.4L561.8,286.9L561.6,289.4L560.8,292.9L560.6,295.5L560.8,296.8L561.3,297.8L561.8,300.2L562.6,301.7L563.7,306.0L564.6,307.5L568.8,309.6L570.9,310.1L572.2,310.0L575.2,310.5L578.8,311.4L579.8,312.1L584.3,312.3L586.2,314.1L587.9,316.6L589.3,316.9L589.7,317.3L590.1,318.3L589.3,321.0L589.6,321.8L589.6,323.0L589.8,324.5L589.5,326.3L589.4,328.8L589.0,329.2L589.0,331.2L588.6,332.9L589.2,335.4L591.1,338.2L591.7,338.5L593.1,338.7L598.4,338.1L599.2,338.5L599.9,339.3L600.1,339.1L600.3,331.5L600.1,331.4L600.0,320.8L602.7,320.7L602.7,318.0L605.4,318.0L605.4,315.4L608.0,315.2L608.0,312.5L610.7,312.4L610.7,307.1L613.4,307.0L613.3,304.3L616.0,304.3L616.0,298.9L658.8,297.6L658.7,281.7L661.3,281.6L661.3,278.9L663.9,278.9L663.9,276.3L666.6,276.2L666.5,273.6L669.2,273.6L669.2,270.9L671.8,270.9L671.8,268.2L674.5,268.2L674.4,265.7L682.3,265.6L682.3,263.0L684.9,262.9L684.8,254.9L687.5,254.8L687.3,244.1L690.0,244.0L689.9,241.4L692.6,241.4L692.5,235.9L695.2,235.8L695.2,230.5L697.8,230.5L697.7,224.0Z" />
  <path class="county" data-location="Whatcom" d="M242.0,42.3L258.3,50.8L259.2,52.1L260.2,54.6L262.2,57.3L263.8,61.1L265.6,62.6L266.6,65.7L267.3,67.3L268.9,69.7L268.9,70.6L268.6,71.2L272.4,73.8L274.7,75.0L276.2,75.7L278.2,76.0L280.2,76.0L294.0,73.0L339.3,73.8L445.4,76.2L487.1,76.4L487.2,73.4L506.5,73.4L506.6,73.1L508.1,72.5L508.9,71.7L510.0,72.2L510.8,72.1L510.6,70.3L511.3,68.9L511.4,67.5L512.5,66.1L513.2,66.0L515.2,66.6L515.6,66.4L515.7,65.3L515.3,64.7L515.1,63.7L515.6,62.2L516.8,61.6L518.0,61.8L518.4,61.1L517.8,60.6L517.3,59.5L515.7,59.1L515.3,58.0L514.0,56.8L514.0,55.9L513.8,55.2L513.0,55.0L511.5,52.2L509.8,52.0L508.6,49.7L508.8,48.4L508.5,48.2L508.3,47.5L508.6,46.3L507.7,44.9L507.8,44.5L507.6,44.1L507.8,43.7L507.6,43.0L508.3,42.0L508.5,41.2L508.3,40.9L508.4,39.7L508.2,39.2L509.2,36.8L508.6,36.3L508.5,35.1L506.9,34.6L505.3,33.5L505.1,32.9L504.6,32.7L504.3,31.7L505.2,30.6L504.8,29.9L505.2,28.4L504.9,28.5L504.1,27.5L504.7,26.3L504.1,25.3L504.3,24.7L504.2,23.5L505.4,23.2L506.1,22.7L506.3,21.8L506.1,20.6L504.9,19.2L504.7,18.4L503.4,17.9L500.7,17.6L500.8,18.3L500.6,18.6L500.1,18.9L498.9,19.1L499.1,19.9L498.4,20.3L498.2,20.9L497.0,21.5L496.4,21.2L495.8,19.2L494.7,18.0L493.5,17.8L493.2,17.4L492.0,17.0L490.9,16.2L490.8,15.9L490.9,15.2L490.3,14.6L491.0,14.1L492.7,13.7L493.2,13.3L493.3,12.8L494.5,11.1L494.0,10.3L494.6,9.9L434.5,9.5L385.2,9.6L343.0,8.0L194.3,4.1L231.5,36.9L242.0,42.3Z" />
  <path class="county" data-location="Jefferson" d="M169.0,213.5L164.3,213.4L164.4,210.7L57.8,206.3L48.6,205.5L14.4,204.3L14.9,205.3L14.7,205.3L14.8,205.7L15.3,207.7L17.7,211.5L20.5,213.9L23.2,214.9L23.7,217.0L24.4,218.8L26.1,220.9L28.2,222.5L28.9,224.1L29.9,225.5L30.3,227.7L31.2,229.8L32.9,232.2L34.0,233.0L35.2,235.3L33.6,237.4L32.1,240.0L31.3,241.7L31.0,242.8L30.9,244.9L31.5,247.5L32.5,249.6L33.7,251.1L36.5,252.8L38.0,253.4L39.8,253.6L41.7,253.5L43.8,252.8L44.5,255.4L44.3,257.1L44.5,259.4L45.0,261.1L45.8,262.4L46.6,270.2L94.4,272.3L94.3,275.2L162.1,278.0L162.7,261.5L231.8,263.9L232.6,263.1L233.4,261.2L234.3,260.2L238.7,258.1L241.8,255.1L244.1,253.4L247.2,252.6L251.9,252.4L254.1,251.7L255.5,250.5L256.3,248.9L256.3,248.1L255.5,246.2L255.4,245.3L255.4,244.2L255.7,242.9L256.4,241.3L258.6,238.0L259.7,234.4L261.2,231.1L262.2,229.6L265.8,225.9L273.5,218.3L276.9,215.4L277.1,214.9L277.4,213.4L277.2,212.3L276.8,211.6L274.7,210.0L273.7,209.0L273.2,207.8L272.7,205.7L272.5,202.9L273.2,200.3L274.9,198.1L276.4,197.2L275.3,195.7L274.1,193.4L273.4,190.7L272.6,183.5L272.5,173.7L271.7,170.3L271.0,168.9L270.2,168.2L266.2,167.4L265.2,167.0L262.0,163.5L257.7,159.6L251.4,154.7L249.7,153.0L247.3,149.4L246.1,146.2L246.8,122.8L235.7,126.3L234.4,170.9L238.7,170.6L239.7,170.9L240.1,171.4L240.8,172.9L240.8,174.3L239.7,177.7L240.9,179.1L234.5,178.9L234.3,183.1L234.5,186.1L234.2,188.7L233.9,196.7L233.6,199.5L233.4,210.2L233.6,212.7L233.4,215.7L169.0,213.5Z" />
  <path class="county" data-location="Benton" d="M619.7,541.5L619.9,595.4L628.3,593.2L632.1,593.5L645.4,591.3L651.3,582.2L654.2,579.6L657.9,578.4L664.0,581.4L668.7,581.8L673.6,579.7L684.6,578.7L690.0,576.5L698.4,575.1L702.4,576.4L706.3,577.2L709.7,577.2L715.3,576.1L719.5,574.2L723.5,571.2L727.9,569.1L730.2,567.2L732.9,563.3L736.0,559.8L738.5,558.3L738.7,557.9L737.8,554.5L738.4,551.0L738.3,549.4L734.8,541.6L735.0,539.9L734.8,539.0L733.1,536.2L728.6,530.5L724.1,527.0L715.4,522.4L712.2,521.7L708.4,521.5L704.1,520.2L699.7,515.4L696.2,513.5L695.8,512.5L696.0,510.8L696.4,509.7L697.8,507.5L698.0,504.9L697.2,500.1L696.1,498.3L695.2,494.7L695.9,493.4L695.9,491.0L695.6,489.5L696.5,483.8L695.9,480.6L696.2,477.6L695.7,475.2L696.4,473.3L694.9,467.6L694.6,467.1L690.4,464.3L689.2,462.2L686.9,459.4L684.0,457.8L681.8,456.0L681.1,454.8L677.3,450.4L676.9,448.8L676.9,445.7L676.6,444.1L676.0,443.1L671.5,440.8L670.6,439.9L670.6,439.2L671.5,437.8L671.1,436.7L669.4,435.5L666.6,431.6L664.8,430.3L663.0,429.8L662.2,430.5L660.8,432.6L658.2,435.7L655.3,439.9L652.1,443.2L649.2,445.3L645.1,446.2L641.9,444.9L639.1,444.6L637.5,444.9L633.6,447.2L629.6,447.6L623.4,449.2L618.9,449.0L617.7,448.7L617.6,458.2L617.4,460.9L617.8,460.9L618.4,523.7L618.5,525.3L619.4,525.3L619.7,541.5Z" />
  <path class="county" data-location="Whitman" d="M923.0,427.8L923.7,428.0L924.8,429.3L925.8,432.5L926.7,434.0L927.8,435.1L929.3,435.8L930.7,435.5L932.3,435.7L933.7,436.5L933.9,437.1L933.9,438.9L933.6,440.4L933.6,441.3L934.1,442.6L935.2,443.7L937.5,445.3L938.0,445.8L938.5,447.3L939.2,448.2L940.4,448.9L943.6,449.0L944.9,449.5L946.0,450.3L947.7,452.6L949.5,453.6L951.4,455.4L952.5,457.9L952.8,459.5L954.4,462.4L954.6,463.4L954.4,465.3L953.8,466.9L953.8,468.0L954.0,469.0L954.7,470.2L956.8,471.2L958.3,473.0L957.3,476.0L957.3,476.5L957.8,477.3L959.2,478.1L960.4,478.1L961.8,477.7L964.7,476.1L966.1,475.9L967.7,476.4L969.9,477.4L971.6,477.6L973.2,478.1L975.8,476.3L977.3,475.5L978.1,475.5L979.6,476.2L972.5,321.9L857.0,326.4L859.3,390.3L858.3,390.4L858.1,399.2L857.4,399.9L856.0,400.3L856.0,401.0L855.5,401.7L854.0,402.9L854.2,404.6L855.7,404.8L855.5,405.2L855.7,405.8L855.1,406.2L854.8,406.9L855.0,407.6L853.3,409.1L852.5,409.0L852.3,409.3L852.7,411.0L852.7,412.4L853.3,413.4L853.1,413.9L853.1,414.5L852.3,415.0L851.5,414.1L850.4,414.7L849.8,416.2L849.7,417.3L849.0,417.9L846.1,417.2L845.6,416.4L844.4,416.7L843.0,416.1L842.3,417.2L841.7,417.1L841.1,417.4L840.2,418.8L839.1,419.4L836.8,419.7L836.2,420.0L835.4,419.9L835.3,420.6L835.5,421.0L834.6,422.3L832.4,422.3L831.0,421.5L829.9,422.5L829.1,423.8L826.4,424.4L825.7,425.0L824.8,424.2L823.6,425.1L828.0,435.0L828.0,435.4L827.2,436.0L827.4,436.3L827.2,436.4L827.3,437.3L827.1,437.4L827.3,437.9L826.9,438.1L826.4,439.3L826.9,439.8L826.8,440.3L827.1,441.1L827.6,441.3L827.9,442.1L828.6,442.5L828.4,443.3L828.5,443.7L830.6,445.1L830.8,445.5L830.6,446.3L830.8,447.4L830.7,448.1L830.0,447.7L829.6,447.8L829.7,448.7L828.9,449.9L829.2,450.0L829.3,450.7L828.7,451.7L829.3,451.9L831.7,454.8L833.0,455.8L833.6,456.8L834.4,457.5L835.8,457.8L838.2,457.2L841.9,457.2L843.1,456.3L843.6,454.7L844.4,453.9L847.5,453.8L850.1,452.8L851.7,451.7L854.6,451.1L858.1,451.1L862.2,450.0L867.8,451.2L870.5,450.8L871.2,449.7L871.6,446.5L872.1,445.2L873.0,444.3L874.8,443.5L877.8,443.9L880.8,443.4L882.1,442.6L883.7,440.8L884.7,439.4L885.6,437.6L886.0,435.4L886.1,433.9L886.6,432.0L887.1,431.0L888.6,430.0L889.6,430.2L890.9,429.7L893.7,429.2L895.1,428.3L895.9,428.1L899.4,428.5L900.8,429.1L903.1,432.3L904.5,433.2L906.3,433.5L908.4,432.9L909.4,433.0L913.0,431.8L915.6,432.3L917.6,432.0L919.1,431.2L919.4,429.8L920.5,428.6L921.9,427.8L923.0,427.8Z" />
  <path class="county" data-location="Stevens" d="M819.8,113.0L819.9,115.2L821.6,118.1L822.1,120.4L822.6,121.6L823.0,125.0L823.0,128.2L823.6,129.9L823.7,131.2L824.7,132.7L825.1,133.9L825.9,134.6L826.4,135.5L827.0,138.0L828.4,140.5L828.2,142.1L827.5,144.8L826.8,146.2L821.9,151.2L822.6,151.8L822.9,153.5L822.8,154.0L822.1,154.5L821.9,155.2L822.0,157.3L822.7,161.1L822.4,162.8L822.0,163.8L821.0,164.8L819.1,165.0L817.7,165.6L816.0,165.6L815.5,166.1L815.1,166.9L815.3,169.7L817.3,171.2L818.2,174.0L818.2,174.9L817.7,176.1L818.1,178.5L817.8,179.5L816.6,180.5L816.1,180.5L815.0,179.6L814.2,179.9L814.0,180.2L814.1,181.2L814.0,182.0L813.6,182.8L813.0,183.2L807.9,183.2L805.0,181.8L802.6,181.9L801.3,183.2L798.0,185.3L797.4,186.2L797.5,187.0L800.8,191.1L801.5,193.8L804.3,196.2L803.6,204.1L804.4,206.5L805.8,209.5L805.7,210.5L806.6,210.6L807.2,210.1L808.2,210.0L808.3,209.0L808.8,207.5L812.0,205.6L813.6,204.1L814.0,203.2L815.4,203.0L815.9,201.8L816.8,201.2L817.5,201.1L818.0,201.7L819.0,201.7L820.8,200.7L821.6,200.6L822.6,202.1L823.0,203.8L824.0,204.0L824.8,205.7L826.0,206.8L825.8,208.5L827.1,208.3L828.1,209.3L828.2,209.6L827.8,210.6L828.1,211.6L828.4,211.8L829.3,211.1L830.4,211.7L831.0,213.3L832.9,216.4L833.6,218.7L833.3,220.9L833.6,221.1L834.8,221.0L836.4,221.8L836.2,222.8L838.1,225.2L838.9,227.0L840.2,227.0L840.8,227.4L842.2,227.2L842.5,228.1L842.8,228.3L843.0,227.7L844.4,226.2L845.5,226.4L846.8,225.8L847.2,225.4L847.4,223.8L848.0,222.3L848.8,221.0L849.6,220.2L852.4,220.5L853.4,221.1L856.0,221.7L856.5,222.1L858.6,221.1L858.7,220.3L859.2,219.8L859.9,219.7L860.1,219.4L861.0,219.6L862.4,219.1L862.7,218.5L862.8,217.6L863.2,217.3L865.7,218.0L867.4,219.1L868.2,218.9L868.9,219.7L869.3,219.5L870.3,221.0L872.3,222.9L873.3,223.5L874.3,223.7L874.9,223.0L875.5,221.1L876.5,220.2L877.8,219.9L879.2,220.6L880.1,220.2L881.6,218.2L884.1,216.7L884.6,215.5L885.7,214.7L885.1,213.5L886.2,209.5L887.4,208.8L888.3,208.7L888.9,209.1L889.7,210.4L889.4,212.5L889.5,213.3L889.9,214.5L889.8,215.7L891.4,218.3L892.0,218.6L893.2,218.3L894.1,218.5L895.0,219.6L895.7,219.8L896.3,221.7L897.0,222.3L897.8,223.8L898.7,224.8L901.1,225.9L903.3,224.4L904.2,224.4L906.1,225.1L906.3,225.4L904.5,178.7L916.7,178.3L915.9,162.1L907.9,162.4L907.3,146.0L907.5,146.0L907.4,141.5L905.3,94.9L904.3,65.9L888.5,66.6L887.8,50.5L895.9,50.3L895.2,32.8L903.1,32.5L902.4,16.6L910.7,16.2L910.2,1.9L817.1,5.3L817.3,5.9L816.9,6.5L815.5,5.9L814.3,5.9L814.4,6.4L815.4,7.2L815.9,7.3L816.0,7.7L815.5,8.1L815.0,8.0L814.8,8.3L814.8,9.9L814.2,10.9L814.4,11.3L815.5,11.5L816.0,12.2L815.2,14.1L814.4,17.1L814.9,18.6L815.6,19.6L816.7,20.9L817.7,21.4L817.0,23.4L816.0,24.0L816.2,24.8L815.6,26.1L815.9,26.8L815.7,28.0L816.4,29.3L817.6,29.9L817.3,31.6L818.3,32.8L818.2,34.8L820.2,35.3L820.6,36.6L821.3,37.2L821.8,39.3L822.6,40.6L822.9,42.2L822.7,43.5L823.2,44.0L824.3,44.4L824.6,45.7L824.9,46.0L825.5,45.9L825.8,45.3L826.9,44.6L827.4,45.7L827.3,46.8L826.6,46.2L826.0,46.7L826.2,48.3L827.1,48.6L827.2,49.0L827.1,49.3L826.5,49.4L826.2,49.9L827.6,51.3L827.6,52.1L826.7,52.3L826.9,53.2L827.4,53.8L828.2,53.6L828.3,53.9L827.3,55.6L828.2,57.1L828.1,58.2L828.4,59.0L828.1,60.2L829.0,63.5L828.9,64.3L828.5,64.3L828.7,65.2L829.4,65.3L829.5,65.6L830.4,70.2L830.2,71.5L829.1,72.1L829.1,73.4L828.6,73.6L828.9,74.8L828.1,76.0L827.9,76.9L828.0,77.3L827.8,77.4L827.8,78.2L828.0,80.9L828.3,82.0L827.1,84.4L826.6,88.2L826.3,88.8L826.5,90.8L826.8,91.8L826.6,92.7L825.7,93.9L823.3,93.5L822.6,93.9L822.1,94.7L821.9,96.6L822.0,97.9L821.1,101.3L819.0,103.4L818.5,104.6L818.4,106.7L818.5,107.3L819.6,108.6L819.6,110.3L820.0,111.5L819.8,113.0Z" />
  <path class="county" data-location="King" d="M331.3,330.8L332.3,331.7L331.9,332.2L332.0,332.9L332.6,333.1L333.8,334.6L333.4,335.6L334.7,335.8L335.0,336.8L334.7,337.8L334.9,338.2L335.1,339.3L335.7,339.7L336.2,341.3L337.2,341.8L337.5,342.7L338.5,343.0L339.0,343.8L339.5,343.7L341.1,344.2L342.3,346.4L343.2,347.1L344.1,347.0L345.2,346.4L346.3,346.6L347.7,346.3L348.5,347.4L348.9,347.5L349.7,347.0L350.1,348.8L351.5,348.5L352.3,349.2L352.7,350.0L353.4,350.1L353.8,349.8L355.0,350.3L355.2,351.0L355.1,352.2L356.0,353.1L356.7,353.3L357.5,353.0L358.1,352.2L358.0,351.7L358.8,351.3L360.6,351.1L361.5,350.2L364.8,351.3L365.7,350.9L366.4,351.1L366.6,352.1L368.0,352.0L368.2,352.4L369.2,352.7L371.1,350.8L371.7,349.8L372.5,349.7L373.0,348.8L373.5,348.6L373.8,347.9L374.4,347.8L374.7,347.3L376.2,347.4L376.8,347.2L377.0,347.9L377.7,348.7L378.8,348.3L380.6,349.4L381.3,348.9L381.9,349.6L383.3,350.3L383.7,351.0L384.8,351.6L386.6,351.3L388.8,351.8L389.3,351.2L390.6,350.7L391.4,349.9L392.3,350.2L393.2,350.9L395.6,351.2L396.7,351.9L396.7,352.3L397.1,352.5L397.2,353.0L397.8,353.1L398.1,354.0L398.5,354.2L398.6,354.7L399.9,356.5L400.0,357.0L401.0,357.6L401.6,357.7L402.6,357.3L403.0,357.6L404.2,357.6L405.4,357.0L407.3,357.1L407.9,356.6L409.9,357.3L410.2,357.0L410.7,357.1L411.2,357.9L411.9,357.9L412.7,358.4L413.2,358.3L413.7,359.2L414.3,359.3L414.3,359.7L414.9,360.2L414.9,360.6L415.3,361.3L417.6,363.3L419.0,364.2L422.0,363.6L423.0,363.1L423.6,363.5L425.3,363.4L427.0,363.9L427.3,363.6L427.3,363.2L427.0,363.2L426.5,362.3L425.3,362.9L424.1,361.8L424.0,361.5L424.5,361.1L424.6,360.5L424.1,360.2L423.5,357.8L424.4,357.2L424.5,356.5L425.2,356.1L425.3,355.3L429.0,353.7L430.2,353.9L430.9,354.5L431.4,354.4L432.8,355.3L434.4,354.9L435.2,355.1L436.7,354.2L437.1,352.9L437.4,352.6L436.5,350.3L435.7,349.8L434.9,347.9L435.9,346.4L435.9,345.8L436.4,345.3L436.3,343.9L435.8,343.1L436.1,342.5L435.2,340.8L433.3,339.7L431.4,339.5L429.2,338.6L429.1,338.3L429.9,336.1L429.7,335.5L430.8,335.2L431.6,334.4L432.4,334.3L432.6,333.2L433.2,332.7L433.3,332.1L432.9,331.7L432.5,330.3L432.6,328.9L432.2,328.5L432.2,327.8L429.8,327.1L429.8,326.2L429.6,325.9L428.5,326.6L428.6,327.0L428.4,327.1L426.3,326.9L425.5,326.4L423.6,326.3L422.8,325.6L422.4,326.1L422.4,326.9L421.4,326.4L420.7,325.5L420.9,325.0L420.6,323.4L420.2,323.0L419.6,323.0L419.1,322.5L419.2,322.0L420.5,320.0L421.0,317.9L418.6,315.4L416.9,314.3L416.8,314.0L417.2,312.8L416.7,312.2L416.7,311.5L417.1,311.4L417.5,310.6L418.3,310.9L419.5,310.6L420.2,310.9L419.8,309.4L419.8,308.6L421.2,308.3L421.7,307.7L421.6,306.7L420.7,306.0L421.1,305.3L421.5,305.5L422.1,304.8L422.1,303.2L421.9,302.8L421.5,302.7L421.7,301.8L423.6,301.8L423.8,301.0L424.4,300.3L426.1,299.7L426.8,299.7L427.3,298.8L426.9,297.5L427.5,296.9L427.7,296.4L427.6,295.8L429.7,294.0L431.6,293.8L432.4,292.6L432.6,292.0L432.9,291.8L433.7,292.3L434.7,291.3L436.0,291.5L436.3,291.3L436.3,290.7L437.4,290.0L437.6,288.6L438.2,287.7L438.1,287.5L438.6,287.1L438.8,286.7L439.1,285.6L438.7,285.0L439.7,284.9L439.5,284.4L439.7,283.9L440.1,283.7L440.3,283.2L442.5,283.1L443.1,282.1L443.0,281.8L443.3,281.2L443.8,281.5L444.9,280.8L444.8,280.4L445.1,280.3L444.8,280.0L444.8,279.6L445.9,279.3L445.9,278.8L445.7,278.7L446.1,278.2L446.0,277.3L446.2,276.9L446.2,276.3L446.6,275.4L448.2,274.6L449.3,275.3L450.9,275.3L451.7,274.8L452.5,275.5L453.1,275.4L453.2,275.2L453.2,274.5L453.8,273.8L454.1,273.0L453.7,272.2L454.0,271.6L453.8,270.9L455.8,270.2L456.0,269.9L457.6,270.5L458.0,269.9L458.6,269.9L460.4,270.7L460.6,269.7L461.1,269.6L461.4,269.1L461.3,268.5L460.8,268.3L460.3,266.7L460.4,266.2L461.1,265.7L461.1,265.1L460.5,264.1L459.7,263.9L459.4,263.2L459.6,262.0L458.7,260.6L459.0,259.2L458.9,258.8L459.6,258.6L460.0,257.3L459.3,255.7L459.3,255.0L460.0,254.1L460.2,253.3L462.2,252.6L463.6,251.5L464.1,250.8L464.0,250.4L464.2,250.0L465.5,250.2L467.0,249.4L467.2,248.1L466.7,247.3L464.9,246.3L464.6,245.3L464.9,245.1L464.8,244.7L465.3,244.2L465.6,243.3L465.2,242.6L464.3,242.0L463.7,239.8L463.2,239.6L462.5,240.0L461.7,239.8L462.0,238.2L460.5,236.4L460.6,235.8L418.7,235.3L418.7,235.7L402.7,235.8L367.8,235.3L351.0,235.3L296.5,233.7L297.8,236.5L298.5,239.0L298.4,239.8L297.0,242.4L296.4,245.5L295.2,247.1L293.5,251.3L293.4,252.5L293.4,254.3L294.1,258.9L293.8,261.8L294.6,263.9L294.6,267.0L293.5,271.6L294.7,274.9L294.6,277.0L294.5,277.5L293.4,278.6L290.9,280.2L289.9,281.4L289.6,282.1L289.2,284.4L285.7,290.4L284.8,292.5L284.5,294.2L284.2,298.8L282.2,303.9L282.3,305.1L283.2,306.8L283.5,307.8L283.4,308.4L281.8,312.0L281.8,313.7L282.1,314.9L282.6,316.1L283.9,317.7L286.8,318.8L290.6,318.7L292.1,318.0L294.7,316.1L307.2,329.3L307.2,330.4L331.3,330.8Z" />
  <path class="county" data-location="Walla Walla" d="M756.5,509.0L754.2,509.3L752.3,510.4L751.8,510.8L751.4,512.3L749.9,513.4L749.2,515.0L747.8,516.4L745.3,516.8L737.1,518.8L733.3,519.3L731.6,520.9L727.4,523.3L725.4,527.1L725.2,527.7L728.8,530.8L733.0,536.1L734.4,538.1L735.0,539.5L734.8,541.6L738.3,549.4L738.4,551.0L737.8,554.5L738.7,558.1L736.3,559.5L732.9,563.3L860.2,559.7L860.3,557.6L860.6,556.1L860.6,552.5L860.0,536.7L859.7,521.3L843.6,521.9L843.3,514.1L843.1,505.6L827.1,506.2L825.5,457.2L827.3,457.0L827.0,450.9L825.0,449.6L823.8,449.7L820.7,451.2L819.6,450.9L817.2,449.0L814.6,448.9L810.1,450.6L808.8,451.7L807.2,453.5L806.2,454.0L802.4,453.5L798.6,451.1L796.7,450.9L795.6,451.5L794.6,453.4L793.1,455.2L789.1,456.8L786.6,459.0L785.2,462.2L784.5,463.0L782.4,463.7L781.1,464.8L778.0,469.4L777.7,471.8L778.0,473.6L778.0,474.4L776.4,478.1L776.5,479.5L775.8,481.7L775.8,482.6L776.3,484.1L776.3,485.9L773.3,487.5L772.8,488.2L771.9,490.5L771.3,491.1L769.0,492.1L768.7,492.8L768.5,495.2L768.1,495.8L765.5,495.6L762.8,495.8L762.3,496.0L760.8,499.4L760.5,502.3L758.9,504.0L758.9,504.7L759.9,506.5L759.8,508.0L758.4,509.1L756.5,509.0Z" />
  <path class="county" data-location="Garfield" d="M907.3,496.1L908.7,535.7L909.9,535.7L910.8,558.2L926.7,557.8L925.8,534.8L933.5,534.5L932.2,502.6L932.1,502.6L931.9,498.9L931.5,486.1L934.1,485.9L934.1,483.3L939.6,483.1L939.4,480.5L955.7,479.9L955.2,470.5L954.2,469.5L953.8,468.0L953.8,466.9L954.5,464.3L954.6,463.4L954.4,462.5L952.8,459.5L952.5,457.9L951.4,455.3L949.5,453.6L947.7,452.6L946.0,450.3L944.9,449.5L943.6,449.0L940.4,448.9L938.9,447.9L937.5,445.3L935.2,443.7L934.1,442.6L933.6,441.3L933.6,440.4L933.9,438.9L933.9,437.1L933.7,436.5L932.3,435.7L930.7,435.5L929.3,435.8L927.8,435.1L926.7,434.0L925.8,432.5L924.8,429.3L923.4,427.8L921.9,427.8L920.5,428.6L919.4,429.8L919.1,431.2L917.6,432.0L915.6,432.3L913.0,431.8L909.4,433.0L908.4,432.9L906.3,433.5L904.5,433.2L903.1,432.3L900.8,429.1L899.4,428.5L895.1,428.3L893.7,429.2L890.9,429.7L889.6,430.2L888.6,430.0L888.0,430.4L887.1,431.0L886.4,432.4L885.9,436.4L885.2,438.5L884.1,440.4L882.3,442.3L880.8,443.4L878.4,443.9L874.8,443.5L875.1,455.5L873.9,455.6L874.3,472.1L890.4,471.4L890.6,476.9L893.2,476.8L893.5,484.9L896.2,484.8L896.3,487.5L899.1,487.4L899.2,495.9L907.3,495.4L907.3,496.1Z" />
  <path class="county" data-location="Adams" d="M729.9,394.6L681.1,395.2L681.5,427.6L701.6,427.1L760.4,426.5L808.7,424.9L828.6,423.9L829.2,423.7L829.9,422.5L831.0,421.5L832.4,422.3L834.6,422.3L835.5,421.0L835.3,420.6L835.4,419.9L836.2,420.0L836.8,419.7L839.1,419.4L840.2,418.8L841.1,417.4L841.7,417.1L842.3,417.2L843.0,416.1L844.4,416.7L845.6,416.4L846.1,417.2L849.1,417.8L849.7,417.3L849.8,416.2L850.4,414.7L851.5,414.1L852.3,415.0L853.1,414.5L853.1,413.9L853.3,413.4L852.7,412.4L852.7,411.0L852.3,409.3L852.5,409.0L853.3,409.1L855.0,407.6L854.8,406.9L855.1,406.2L855.7,405.8L855.5,405.2L855.7,404.8L854.2,404.6L854.0,402.9L855.5,401.7L856.0,401.0L856.0,400.3L857.4,399.9L858.1,399.2L858.3,390.4L859.3,390.3L857.0,326.4L728.9,329.7L729.9,394.6Z" />
  <path class="county" data-location="San Juan" d="M216.6,54.4L198.3,61.5L200.7,71.1L204.1,88.4L210.6,106.2L216.0,112.1L198.8,137.2L246.8,122.7L248.4,122.6L252.7,123.1L257.5,123.2L259.0,122.9L260.8,121.3L261.4,120.0L261.9,118.2L262.2,114.3L261.7,111.9L259.9,105.8L259.7,104.0L260.4,102.4L262.6,99.9L263.2,98.2L263.1,97.2L262.6,95.6L261.9,94.3L261.1,93.5L260.8,92.8L261.0,91.4L261.9,89.3L262.0,88.4L260.5,85.3L259.7,82.6L259.5,81.0L259.8,79.3L260.2,78.3L261.1,77.2L264.4,74.5L265.3,73.3L267.3,72.4L268.3,71.5L268.9,70.6L269.0,70.1L268.8,69.4L267.3,67.3L266.6,65.7L265.6,62.6L263.6,60.7L262.2,57.3L260.2,54.6L258.8,51.4L257.5,50.3L231.5,36.9L231.1,48.8L216.6,54.4Z" />
  <path class="county" data-location="Snohomish" d="M327.2,234.7L351.0,235.3L367.8,235.3L402.7,235.8L418.7,235.7L418.7,235.3L460.6,235.8L460.5,235.0L461.1,234.4L461.9,234.1L461.9,233.5L462.2,233.0L464.0,232.0L464.0,231.2L464.7,230.8L465.2,229.9L465.4,229.0L466.7,227.3L466.8,226.5L466.2,226.4L465.7,225.7L464.7,226.1L463.8,225.9L462.1,226.7L461.3,226.5L460.5,226.2L460.4,225.2L460.2,224.9L458.9,224.7L459.0,224.2L458.8,224.0L457.2,224.0L456.5,223.6L456.5,222.4L457.2,221.3L456.9,220.6L456.6,219.1L455.9,217.9L456.1,216.8L455.3,217.3L454.7,217.2L454.5,216.6L453.8,216.1L453.6,214.4L453.1,213.9L453.5,212.5L454.1,211.9L454.3,211.1L454.1,210.7L453.3,210.3L453.3,210.0L454.4,208.9L454.1,208.0L454.1,207.2L454.4,206.7L454.9,206.4L455.5,205.3L455.6,204.7L455.2,203.6L455.2,203.1L456.3,202.0L456.7,201.6L456.7,200.9L457.2,200.5L457.2,199.1L457.4,198.4L458.0,198.1L458.8,198.2L458.9,197.7L459.5,197.4L460.2,196.1L460.9,195.5L461.1,195.0L460.9,194.6L461.0,193.8L460.1,193.1L459.7,192.4L459.5,191.2L457.2,189.3L457.2,188.7L456.7,187.4L459.4,186.8L459.7,186.1L460.8,185.4L461.2,184.4L462.3,184.5L462.9,184.2L463.2,183.4L463.8,183.1L464.6,183.0L465.7,183.6L467.1,182.4L468.0,182.0L469.8,182.0L471.8,180.6L472.9,180.6L473.8,181.2L474.0,181.0L474.4,180.5L475.3,179.9L475.9,178.8L475.9,178.5L476.5,178.5L477.4,177.7L478.1,177.6L478.3,176.8L479.2,175.9L479.3,174.9L480.3,174.8L481.1,175.1L482.3,174.2L482.4,173.8L481.7,173.5L481.1,172.4L481.2,171.7L480.9,171.2L480.2,170.4L480.3,170.0L480.1,169.0L481.4,167.7L481.4,166.9L482.3,166.4L483.3,166.4L484.1,166.1L484.0,165.6L484.3,165.2L486.3,165.5L487.3,164.9L487.3,164.5L487.0,163.0L486.1,161.9L485.7,160.3L485.8,159.8L484.9,159.5L483.9,158.4L482.4,157.8L481.8,156.4L480.3,156.1L480.2,155.4L480.8,152.8L479.3,151.6L478.0,148.5L475.9,146.5L475.4,145.6L475.3,144.5L474.4,143.1L474.6,142.4L475.5,142.1L475.9,141.3L475.7,140.4L414.1,139.8L404.8,139.4L404.7,139.1L367.9,138.9L296.2,137.5L298.2,139.0L299.8,141.1L301.6,144.1L303.1,147.2L303.3,148.0L304.1,148.7L304.1,149.4L303.5,150.8L301.2,155.8L300.7,158.9L300.8,162.3L301.2,164.5L302.3,167.3L305.4,172.8L307.7,176.0L309.1,179.5L309.5,181.2L309.9,183.8L309.7,185.2L308.4,188.7L308.1,190.4L308.7,192.6L310.2,196.3L310.9,199.7L310.1,205.3L308.1,208.7L307.8,210.9L307.1,212.4L304.6,215.7L300.0,220.4L298.6,222.6L297.8,224.6L296.3,229.1L296.0,232.3L296.5,233.7L327.2,234.7Z" />
  <path class="county" data-location="Skamania" d="M312.0,624.0L311.6,647.2L317.8,644.3L320.2,641.8L325.8,640.7L329.5,641.3L331.0,640.8L338.4,636.3L341.2,635.3L343.7,635.2L345.1,634.5L348.9,632.1L349.9,630.2L350.5,629.9L352.6,630.1L356.1,628.3L357.1,626.9L357.0,625.2L361.6,621.1L368.8,618.8L378.6,621.2L382.2,621.2L387.3,619.3L392.1,619.5L404.8,615.6L406.2,615.9L406.4,614.6L405.9,612.4L406.4,611.6L405.8,611.1L404.9,609.6L404.4,609.3L404.2,608.0L404.5,607.1L405.1,606.9L405.6,606.1L406.9,605.9L407.3,605.3L395.2,605.1L395.4,588.8L394.9,588.8L394.9,588.0L395.3,556.7L406.7,556.8L407.4,493.0L337.1,492.0L332.0,491.9L332.0,492.2L315.7,491.9L315.9,492.2L315.1,524.4L314.4,524.3L313.4,588.2L312.8,588.2L312.8,589.3L312.0,624.0Z" />
  <path class="county" data-location="Grant" d="M655.8,297.7L616.0,298.9L616.0,304.3L613.3,304.3L613.4,307.0L610.7,307.1L610.7,312.4L608.0,312.5L608.0,315.2L605.4,315.4L605.4,318.0L602.7,318.0L602.7,320.7L600.0,320.8L600.1,331.4L600.3,331.5L600.1,339.1L599.9,339.3L600.3,340.0L600.5,341.1L600.1,342.8L600.3,345.9L599.5,348.1L599.4,349.0L599.6,350.7L600.7,353.0L600.9,355.0L600.6,356.7L599.8,358.2L599.6,359.0L597.5,360.6L595.9,364.9L595.6,366.8L595.9,368.4L596.5,369.6L600.0,373.3L600.3,377.0L600.9,378.5L600.8,380.1L601.0,381.2L605.5,390.5L605.7,392.0L605.6,393.4L605.9,395.0L605.6,400.5L605.8,406.4L607.4,409.1L609.8,412.4L610.8,414.6L610.6,417.3L608.9,421.3L607.8,422.8L606.3,424.1L605.3,425.4L604.9,428.8L604.9,431.3L608.7,440.5L610.4,442.4L611.8,443.3L613.3,446.1L614.7,447.8L618.9,449.0L623.4,449.2L629.6,447.6L633.6,447.2L636.9,445.2L638.5,444.7L641.9,444.9L645.1,446.2L648.7,445.5L652.1,443.2L655.3,439.9L658.2,435.7L660.8,432.6L662.2,430.5L663.0,429.8L664.8,430.3L666.6,431.6L669.4,435.5L671.1,436.7L671.5,437.8L671.0,438.6L681.8,438.6L681.1,395.2L729.9,394.6L728.3,290.1L727.7,265.2L727.0,203.4L726.1,202.9L725.8,202.3L725.8,200.0L710.7,200.4L710.8,203.2L708.1,203.2L708.2,208.7L705.5,208.7L705.6,211.4L700.2,211.5L700.2,214.3L697.6,214.4L697.8,230.5L695.2,230.5L695.2,235.8L692.5,235.9L692.6,241.4L689.9,241.4L690.0,244.0L687.3,244.1L687.5,254.8L684.8,254.9L684.9,262.9L682.3,263.0L682.3,265.6L674.4,265.7L674.5,268.2L671.8,268.2L671.8,270.9L669.2,270.9L669.2,273.6L666.5,273.6L666.6,276.2L663.9,276.3L663.9,278.9L661.3,278.9L661.3,281.6L658.7,281.7L658.8,297.6L655.8,297.7Z" />
  <path class="county" data-location="Island" d="M300.2,141.7L298.9,139.8L296.9,137.9L293.5,136.3L291.5,134.8L290.2,133.0L286.4,129.2L284.7,126.7L283.9,124.2L282.8,123.1L282.7,122.4L282.3,121.7L282.0,119.5L281.7,118.9L282.1,117.7L282.1,117.1L281.2,116.1L281.1,115.2L280.6,114.9L279.7,115.0L276.6,116.4L275.5,116.2L274.3,116.9L272.5,117.1L271.8,116.8L271.5,115.8L270.6,115.6L262.1,116.7L261.6,119.3L260.8,121.3L259.9,122.3L258.0,123.2L254.4,123.2L248.4,122.6L246.8,122.8L246.1,146.2L247.3,149.4L249.7,153.0L251.4,154.7L257.7,159.6L262.0,163.5L265.2,167.0L266.2,167.4L269.6,167.9L271.0,168.9L271.9,171.0L272.5,173.7L272.5,180.9L272.8,186.2L273.4,190.7L274.1,193.4L275.7,196.2L279.3,200.5L281.5,202.0L288.2,204.7L289.5,205.8L290.4,207.4L291.6,212.3L292.6,214.7L296.0,219.4L297.3,221.6L297.8,224.6L298.6,222.6L300.0,220.4L304.6,215.7L307.1,212.4L307.8,210.9L308.1,208.7L310.1,205.3L310.9,199.7L310.2,196.3L308.7,192.6L308.1,190.4L308.4,188.7L309.7,185.2L309.9,183.8L309.5,181.2L309.1,179.5L307.7,176.0L305.4,172.8L302.3,167.3L301.0,163.6L300.7,160.5L301.1,156.3L303.5,150.8L304.1,149.4L304.1,148.7L303.3,148.0L302.3,145.4L300.2,141.7Z" />
  <path class="county" data-location="Grays Harbor" d="M181.2,359.1L176.3,359.1L161.1,358.6L162.1,326.1L160.1,326.1L162.1,278.0L94.3,275.2L94.4,272.3L46.6,270.2L47.7,279.9L47.7,280.4L47.2,281.0L47.0,282.2L47.1,284.6L48.6,289.9L46.8,292.3L46.5,293.7L46.4,296.2L46.6,297.9L47.2,300.8L48.7,306.0L49.6,308.1L53.4,312.1L53.3,315.2L54.2,318.2L55.9,321.1L59.6,323.7L60.6,330.4L62.3,337.5L62.9,339.3L63.1,340.1L62.8,342.4L65.2,352.1L65.3,356.9L65.8,359.2L65.4,366.5L65.6,370.1L64.2,378.1L64.2,385.2L64.5,386.9L65.6,390.2L68.6,393.4L68.9,394.1L70.2,399.1L71.5,408.5L84.1,409.0L107.5,410.3L109.8,410.7L144.2,411.4L173.4,413.0L176.2,412.7L200.8,413.6L202.2,376.0L196.8,375.7L197.2,370.5L197.1,367.9L197.3,359.4L181.2,359.1Z" />
  <path class="county" data-location="Pierce" d="M312.4,330.6L307.2,330.4L307.2,329.3L294.7,316.1L292.1,318.0L290.6,318.7L286.8,318.8L283.9,317.7L282.6,316.1L282.1,314.9L281.8,313.7L281.8,312.0L283.5,308.1L283.2,306.8L282.2,304.8L282.2,303.9L282.5,302.9L276.1,302.6L249.4,301.9L249.1,310.2L248.3,312.2L248.6,314.5L248.6,316.0L247.4,319.5L245.5,322.1L243.4,324.4L242.6,326.0L242.2,328.6L242.2,329.6L244.0,334.5L245.3,336.2L245.8,340.6L247.5,342.1L249.2,344.3L249.7,345.5L251.3,348.0L252.6,349.0L252.8,350.0L253.1,350.4L254.0,351.2L259.0,353.8L260.5,354.9L260.4,358.3L261.1,359.2L260.8,360.6L259.5,361.1L259.8,361.6L259.4,362.7L259.8,363.0L260.3,364.4L260.0,365.0L260.9,365.5L260.9,366.0L261.6,366.3L261.1,367.3L262.1,367.5L262.4,367.9L262.3,368.9L263.2,369.3L263.4,370.1L262.7,371.0L262.7,371.7L263.6,372.5L263.7,372.8L263.4,373.4L263.5,373.8L263.8,374.4L264.8,375.1L264.7,375.4L265.0,376.4L265.6,376.6L266.3,375.8L266.9,376.5L268.9,377.5L268.7,379.3L267.8,380.7L267.9,381.4L268.9,382.5L270.2,382.7L271.1,383.3L271.3,381.6L273.9,382.2L274.6,382.1L275.2,381.5L275.7,382.7L274.3,382.7L274.1,383.0L274.3,383.6L275.1,383.2L275.8,383.5L276.0,384.0L276.6,383.7L277.3,383.8L277.2,384.1L276.4,384.4L276.1,384.9L276.7,387.1L276.7,388.6L277.1,389.4L277.9,390.0L279.3,390.3L281.5,391.4L282.2,393.0L284.0,393.5L285.6,395.2L285.2,396.7L285.7,398.1L286.1,398.4L285.8,398.7L285.7,399.4L286.4,400.1L285.9,400.6L285.9,402.2L286.6,402.4L287.2,402.2L287.8,403.0L289.1,402.7L289.8,403.1L289.9,403.8L290.7,404.8L291.9,404.9L292.9,405.4L294.2,405.5L297.2,406.8L298.7,406.5L299.1,407.3L299.8,407.7L300.0,407.7L300.5,406.8L301.0,406.6L301.8,407.3L302.3,407.0L302.9,407.8L304.4,408.2L305.1,408.1L305.7,407.3L306.6,407.0L306.8,407.4L306.3,407.9L306.8,408.5L306.8,409.5L307.6,409.9L309.0,409.7L309.5,409.9L309.6,410.4L309.3,411.1L309.6,413.5L309.1,413.9L308.2,415.7L308.7,417.1L309.4,417.3L309.8,417.9L310.3,418.0L311.4,419.4L311.5,420.0L312.4,419.6L313.6,421.5L314.5,421.7L314.6,420.7L314.9,420.4L316.0,420.6L316.4,420.0L317.5,419.9L317.8,420.4L318.5,420.5L318.9,421.1L321.1,421.0L321.4,421.8L322.0,422.2L322.2,422.7L322.7,422.8L323.4,422.5L324.3,422.8L324.3,423.3L325.2,423.6L327.2,423.4L327.3,424.0L329.0,424.4L329.5,424.1L330.7,424.3L331.4,424.1L333.0,425.1L337.2,424.6L339.5,425.6L340.0,425.2L342.5,426.5L344.1,426.3L344.8,426.5L345.4,426.2L345.7,425.5L346.2,425.5L346.4,425.0L347.2,424.6L347.7,425.0L348.4,424.9L348.5,425.7L349.3,425.8L349.7,426.3L350.6,426.3L351.2,426.1L351.5,425.5L352.1,425.5L352.5,425.0L352.4,424.6L353.3,424.4L355.6,425.7L356.3,427.1L356.8,427.4L360.0,427.7L361.4,428.5L362.5,428.5L363.3,429.0L364.9,429.3L366.0,429.4L366.3,429.1L366.9,429.6L368.9,429.3L369.3,428.3L370.8,426.1L371.8,426.0L372.6,425.3L372.4,424.4L373.2,423.5L374.3,423.0L374.7,421.9L376.0,420.8L378.4,419.4L416.7,419.9L417.1,419.0L417.8,418.3L418.5,418.2L417.5,417.3L417.5,416.9L416.7,416.1L416.8,415.9L416.5,415.1L416.6,414.8L416.1,414.7L414.5,413.1L414.9,412.8L414.7,412.6L415.0,412.3L414.9,411.4L414.1,410.4L413.7,410.7L413.2,410.2L413.5,409.7L412.8,408.8L412.5,407.9L412.6,407.7L412.0,407.0L411.8,406.4L412.0,405.2L410.5,404.9L410.2,403.9L408.4,403.2L408.7,402.9L409.0,401.7L409.9,400.9L410.0,400.5L409.7,399.8L409.8,399.5L410.6,398.2L411.1,398.1L411.9,396.7L412.6,396.6L413.4,395.9L414.6,395.8L414.8,395.4L415.6,395.0L415.9,394.4L417.0,394.2L417.1,392.9L417.4,393.0L417.9,392.0L417.6,390.1L417.9,389.3L417.5,388.5L417.6,387.9L416.9,387.2L417.0,386.5L418.9,384.9L418.4,383.9L418.5,383.6L420.8,382.2L421.7,382.0L421.8,381.5L423.4,380.2L423.0,379.3L423.5,378.2L423.6,377.5L423.7,377.0L424.8,376.5L425.0,375.6L424.3,373.7L426.0,371.4L426.1,370.8L426.8,370.5L427.0,369.9L427.7,369.5L427.2,368.3L427.3,367.7L427.5,367.6L427.5,366.4L427.0,365.9L426.5,364.6L427.0,363.8L425.3,363.4L423.6,363.5L423.0,363.1L422.0,363.6L419.0,364.2L417.6,363.3L415.3,361.3L414.9,360.6L414.9,360.2L414.3,359.7L414.3,359.3L413.7,359.2L413.2,358.3L412.7,358.4L411.9,357.9L411.2,357.9L410.7,357.1L410.2,357.0L409.9,357.3L407.9,356.6L407.3,357.1L405.4,357.0L404.2,357.6L403.0,357.6L402.6,357.3L401.6,357.7L401.0,357.6L400.0,357.0L399.9,356.5L398.6,354.7L398.5,354.2L398.1,354.0L397.8,353.1L397.2,353.0L397.1,352.5L396.7,352.3L396.7,351.9L395.6,351.2L393.2,350.9L392.3,350.2L391.4,349.9L390.6,350.7L389.3,351.2L388.8,351.8L386.6,351.3L384.8,351.6L383.7,351.0L383.3,350.3L381.9,349.6L381.3,348.9L380.6,349.4L378.8,348.3L377.7,348.7L377.0,347.9L376.8,347.2L376.2,347.4L374.7,347.3L374.4,347.8L373.8,347.9L373.5,348.6L373.0,348.8L372.5,349.7L371.7,349.8L371.1,350.8L369.2,352.7L368.2,352.4L368.0,352.0L366.6,352.1L366.4,351.1L365.7,350.9L364.8,351.3L361.5,350.2L360.6,351.1L358.8,351.3L358.0,351.7L358.1,352.2L357.7,352.9L356.6,353.3L355.9,353.0L355.1,352.2L355.2,351.0L355.0,350.3L353.8,349.8L353.4,350.1L352.7,350.0L352.3,349.2L351.5,348.5L350.1,348.8L349.7,347.0L348.9,347.5L348.5,347.4L347.7,346.3L346.3,346.6L345.2,346.4L344.1,347.0L343.2,347.1L342.3,346.4L341.1,344.2L339.5,343.7L339.0,343.8L338.5,343.0L337.5,342.7L337.2,341.8L336.2,341.3L335.7,339.7L335.1,339.3L334.9,338.2L334.7,337.8L335.0,336.8L334.7,335.8L333.4,335.6L333.8,334.6L332.6,333.1L332.0,332.9L331.9,332.2L332.3,331.7L331.3,330.8L312.4,330.6Z" />
  <path class="county" data-location="Wahkiakum" d="M158.7,510.7L160.8,512.9L163.2,516.8L162.5,525.6L167.5,530.9L168.9,531.5L169.9,532.4L181.6,533.1L189.3,529.0L190.4,528.3L190.3,513.9L191.0,505.0L191.0,488.9L154.9,488.0L126.2,486.5L125.0,508.9L130.1,511.7L135.1,510.3L143.0,511.2L147.7,510.8L150.8,510.1L154.1,508.8L156.9,509.2L158.7,510.7Z" />
  <path class="county" data-location="Columbia" d="M843.2,507.5L843.6,521.9L859.7,521.3L860.0,536.7L860.6,552.5L860.6,556.1L860.3,557.6L860.2,559.7L910.8,558.2L909.9,535.7L908.7,535.7L907.3,495.4L899.2,495.9L899.1,487.4L896.3,487.5L896.2,484.8L893.5,484.9L893.2,476.8L890.6,476.9L890.4,471.4L874.3,472.1L873.9,455.6L875.1,455.5L874.8,443.5L873.5,443.9L872.1,445.2L871.4,447.1L871.0,450.2L870.2,450.9L867.8,451.2L862.1,450.0L858.1,451.1L855.1,451.0L852.2,451.6L848.3,453.5L844.4,453.9L843.6,454.7L843.1,456.3L842.3,456.9L841.3,457.3L838.2,457.2L835.8,457.8L834.4,457.5L833.6,456.8L833.0,455.8L831.7,454.8L829.3,451.9L827.6,451.4L827.0,450.9L827.3,457.0L825.5,457.2L827.1,506.2L843.1,505.6L843.2,507.5Z" />
  <path class="county" data-location="Spokane" d="M968.2,233.8L965.6,176.5L904.5,178.7L906.3,225.4L906.1,225.1L904.2,224.4L903.3,224.4L901.1,225.9L898.7,224.8L897.8,223.8L897.0,222.3L896.3,221.7L895.7,219.8L895.0,219.6L894.1,218.5L893.2,218.3L892.0,218.6L891.4,218.3L889.8,215.7L889.9,214.5L889.5,213.3L889.4,212.5L889.7,210.4L888.9,209.1L888.3,208.7L887.4,208.8L886.2,209.5L885.1,213.5L885.7,214.4L885.6,214.9L884.6,215.5L884.0,216.8L881.4,218.3L879.9,220.3L879.1,220.6L877.8,219.9L876.5,220.2L875.5,221.1L874.9,223.0L874.3,223.7L873.0,223.4L870.7,221.2L872.3,260.2L872.0,260.2L874.1,325.8L972.5,321.9L968.2,233.8Z" />
  <path class="county" data-location="Okanogan" d="M607.8,9.6L494.6,9.9L494.0,10.3L494.5,11.1L493.3,12.8L493.2,13.3L492.7,13.7L491.0,14.1L490.3,14.6L490.9,15.2L490.8,15.9L491.3,16.6L492.6,17.0L493.5,17.8L494.7,18.0L495.8,19.2L496.4,21.2L497.0,21.5L498.2,20.9L498.4,20.3L499.1,19.9L498.9,19.1L500.1,18.9L500.6,18.6L500.8,18.3L500.7,17.6L503.4,17.9L504.7,18.4L504.9,19.2L506.1,20.6L506.3,21.8L506.1,22.7L505.4,23.2L504.2,23.5L504.3,24.7L504.1,25.3L504.7,26.3L504.1,27.5L504.9,28.5L505.2,28.4L504.8,29.9L505.2,30.6L504.3,31.7L504.6,32.7L505.1,32.9L505.3,33.5L506.9,34.6L508.5,35.1L508.6,36.3L509.2,36.8L508.2,39.2L508.4,39.7L508.3,40.9L508.5,41.2L508.3,42.0L507.6,43.0L507.8,43.7L507.6,44.1L507.8,44.5L507.7,44.9L508.6,46.3L508.3,47.5L508.5,48.2L508.8,48.4L508.6,49.7L509.8,52.0L511.5,52.2L513.0,55.0L513.8,55.2L514.0,55.9L514.0,56.8L515.3,58.0L515.7,59.1L517.3,59.5L517.8,60.6L518.4,61.1L518.0,61.8L516.8,61.6L515.6,62.2L515.1,63.7L515.3,64.7L515.7,65.3L515.6,66.4L515.2,66.6L513.2,66.0L512.5,66.1L511.4,67.5L511.3,68.9L510.6,70.3L510.8,72.1L510.0,72.2L508.9,71.7L508.1,72.5L506.6,73.1L506.6,73.9L506.8,74.1L506.5,74.5L506.4,75.2L505.8,75.9L504.5,75.9L504.1,76.2L503.9,77.2L503.5,77.3L503.1,78.4L502.0,79.4L502.8,81.7L502.5,82.1L502.4,83.0L502.6,83.7L503.6,84.7L503.9,85.4L504.8,86.0L505.0,86.6L505.5,87.2L507.4,88.0L508.6,87.6L510.0,86.3L510.0,85.1L510.3,84.6L510.6,84.7L511.5,85.7L512.3,86.0L513.8,88.3L514.3,88.6L514.7,90.4L513.8,91.4L512.8,91.5L512.8,92.7L511.8,94.8L512.7,96.7L515.8,96.8L517.4,96.3L518.3,95.7L518.8,95.8L519.2,96.6L519.1,97.6L518.2,98.7L518.0,99.8L518.3,100.3L518.1,101.3L520.5,102.2L521.5,102.8L521.7,103.2L520.4,103.4L519.1,104.7L518.5,105.9L518.7,106.7L520.5,107.6L521.2,108.3L519.9,108.5L519.1,109.7L518.9,109.8L518.9,110.3L518.4,111.4L517.1,111.5L516.8,111.9L517.3,113.4L518.0,113.5L518.8,114.3L518.8,115.3L518.3,115.4L518.3,115.7L519.1,117.6L519.0,118.5L519.5,118.8L519.7,119.5L519.6,120.0L519.6,120.9L519.0,121.5L519.2,121.8L521.4,121.8L522.5,121.4L522.9,121.8L523.9,122.2L524.2,122.9L525.2,123.8L526.5,124.0L526.9,124.8L529.2,125.5L529.2,126.0L529.7,126.2L529.6,127.4L530.1,128.4L529.3,128.9L529.0,130.7L527.9,131.4L527.2,132.6L527.0,133.2L527.2,134.5L526.5,135.4L527.1,136.0L528.4,136.1L529.9,136.7L530.0,137.3L531.1,138.3L534.3,138.3L535.0,137.6L536.0,137.4L536.7,139.2L537.1,139.5L537.6,140.5L538.3,140.7L538.3,141.1L538.9,142.1L539.8,142.6L540.4,143.7L541.4,143.8L541.7,144.3L541.4,145.1L541.6,145.5L543.6,147.0L544.5,146.9L546.1,148.6L547.8,148.9L548.9,149.6L550.8,150.1L551.3,150.7L551.8,151.9L550.9,152.9L551.5,153.2L552.0,154.3L552.6,154.7L554.2,154.6L554.9,154.3L555.5,154.7L555.4,155.1L555.6,155.9L556.3,157.0L556.5,158.2L555.9,159.1L555.7,160.6L555.1,161.1L555.0,162.6L554.5,163.3L554.5,163.9L554.9,165.2L554.7,165.6L555.1,166.3L555.7,166.4L555.8,167.3L556.3,168.4L556.6,168.6L557.3,168.5L558.1,169.2L559.0,170.7L558.9,171.1L559.2,171.5L560.1,172.1L561.1,171.5L562.0,171.6L562.6,171.0L563.4,171.1L563.8,172.0L564.7,172.2L566.6,174.6L567.4,174.6L568.4,175.9L569.1,176.3L569.4,177.0L570.4,177.9L570.2,178.5L571.0,178.6L571.8,179.5L572.3,179.4L573.0,180.4L574.6,180.7L576.4,180.5L576.8,181.2L578.3,182.1L579.3,182.4L579.8,182.2L580.1,182.8L581.7,182.9L581.9,183.5L582.9,184.2L583.2,184.8L582.8,185.2L582.2,184.9L581.0,185.2L581.3,185.9L580.8,186.5L581.3,187.0L581.3,188.0L582.8,188.7L584.4,189.0L584.7,189.9L588.3,191.6L588.7,192.3L589.3,192.9L589.3,194.0L589.9,195.0L589.6,195.2L589.5,196.2L591.2,198.1L591.7,198.3L591.8,198.8L590.9,200.3L590.9,200.8L591.3,201.1L592.0,201.1L592.9,202.0L593.2,201.9L593.6,202.2L615.7,202.1L614.2,200.3L614.0,199.5L614.4,197.2L615.4,195.9L616.0,194.2L616.1,193.4L615.9,191.7L612.8,186.5L612.6,185.9L612.8,184.7L614.2,183.6L616.3,182.6L618.3,180.8L619.6,180.1L620.7,180.0L622.8,178.6L625.3,178.8L626.9,178.4L627.4,177.5L627.1,175.7L627.6,175.2L630.3,175.4L631.3,175.8L632.0,176.5L633.1,178.6L633.9,179.2L636.4,178.9L638.3,177.2L638.6,177.3L640.1,179.9L640.3,181.5L638.8,185.8L637.4,188.4L637.7,189.5L638.4,190.6L642.2,194.1L644.5,195.0L646.5,195.0L647.3,194.4L648.3,192.1L650.0,190.1L653.5,187.6L654.5,186.2L655.8,184.9L657.8,184.1L658.6,183.4L659.2,182.6L659.3,180.3L661.0,178.9L662.2,179.0L663.7,179.6L665.7,179.3L666.8,179.7L668.6,179.6L669.3,180.1L671.4,183.1L673.7,184.7L674.2,184.8L677.9,184.1L681.1,184.7L681.7,184.1L682.4,181.8L682.3,177.1L682.8,175.4L684.0,174.0L685.8,172.5L686.8,172.4L690.1,174.5L691.8,174.7L694.4,172.5L695.5,172.0L696.9,172.0L698.1,170.4L698.9,170.0L699.5,169.6L701.4,169.5L703.9,166.7L706.4,165.4L707.7,165.7L710.1,167.6L710.7,167.8L711.9,167.9L713.2,167.3L714.1,167.2L715.2,167.6L716.4,168.5L718.9,171.2L719.6,172.5L720.4,175.8L720.4,177.8L720.9,180.1L721.5,181.3L721.8,182.7L722.5,184.5L723.2,185.2L726.1,186.3L729.4,189.2L729.5,189.8L729.3,191.6L728.4,193.1L728.2,194.7L727.9,195.8L726.0,198.2L725.7,198.9L725.8,202.3L726.4,203.1L728.1,203.7L729.4,203.9L735.5,202.6L739.8,200.7L742.0,200.5L742.0,199.4L742.7,199.4L741.4,146.4L740.8,103.4L737.6,103.5L736.8,71.7L741.0,71.5L739.4,7.5L607.8,9.6Z" />
</svg>
