<?xml version="1.0" encoding="UTF-8" standalone="no"?>
<svg
   xmlns:dc="http://purl.org/dc/elements/1.1/"
   xmlns:cc="http://creativecommons.org/ns#"
   xmlns:rdf="http://www.w3.org/1999/02/22-rdf-syntax-ns#"
   xmlns:svg="http://www.w3.org/2000/svg"
   xmlns="http://www.w3.org/2000/svg"
   xmlns:sodipodi="http://sodipodi.sourceforge.net/DTD/sodipodi-0.dtd"
   xmlns:inkscape="http://www.inkscape.org/namespaces/inkscape"
   version="1.1"
   x="0px"
   y="0px"
   viewBox="0 0 60.904826 58.423518"
   enable-background="new 0 0 258.056 169.118"
   xml:space="preserve"
   id="svg3248"
   inkscape:version="0.48.5 r10040"
   width="100%"
   height="100%"
   sodipodi:docname="zoomed.svg">
<path
   transform="translate(-45.340259,-41.217869)"
   style=""
   class="district"
   clip-path="none"
   d="m 81.998,64.955 0.724,0.008 -0.021,0.425 0.299,0.102 0.184,0.005 0.134,-0.118 0.315,0.004 0.206,-0.166 0.052,0.224 0.345,-0.055 -0.015,-0.196 0.751,-0.029 0.118,0.157 -0.091,0.192 0.248,0.05 -0.004,0.087 0.185,-0.02 0.051,0.058 0.016,0.043 -0.169,0.001 -0.005,0.175 0.088,0.001 -0.004,0.17 0.092,0.008 -0.001,0.085 -0.11,0.016 0.093,0.422 -0.22,0.104 -0.046,0.215 -0.135,0.172 -0.213,0.093 -0.033,0.153 0.566,0.738 0.042,0.3 -0.252,-0.005 -0.167,0.334 -0.526,0.418 -0.141,0.308 0.105,0.319 -0.124,1.08 0.135,0.139 0.304,0.083 -0.068,0.172 0.034,0.182 -0.252,-0.206 -0.013,0.105 -0.303,-0.026 0.055,0.197 -0.234,0.058 0,-0.089 -0.174,-0.025 0,-0.169 0.135,-0.072 0.008,-0.088 -0.402,0.035 -0.177,-0.071 -0.091,0.196 -0.054,-0.13 -0.4,-0.083 0.143,-0.061 -0.008,-0.262 0.305,0.007 0.075,0.132 0.252,-0.04 0.051,0.095 0.175,0.041 0.003,-0.112 -0.44,-0.157 -0.078,-0.14 0.023,-1.352 -0.349,-0.01 0.005,-0.35 -2.127,-0.059 -0.104,-0.089 -0.032,0.098 0.088,0.078 -0.087,0.09 -0.053,0.281 -0.191,-0.278 -0.312,-0.087 -0.105,-0.491 0.109,-0.982 0.275,0.427 0.008,-0.136 0.052,0.023 -0.078,-0.257 0.082,-0.361 0.068,0.098 0.038,0.534 0.125,-0.099 0.061,-0.333 0.144,-0.223 0.11,0.009 0.051,0.198 0.148,0.027 -0.03,0.115 0.047,-0.091 -0.026,-0.047 0.109,-0.1 -0.066,-0.227 -0.087,-0.05 0.074,-0.11 -0.03,-0.269 0.088,-0.386 -0.059,-0.131 0.351,-0.023 0.01,-0.949 0.093,0.009 L 82,64.868 z"
   id="48" />
<path
   transform="translate(-45.340259,-41.217869)"
   style=""
   class="district"
   clip-path="none"
   d="m 78.686,82.001 0.019,-0.525 -0.178,-0.003 0.006,-0.176 0.351,0.015 0.188,0.198 1.834,0.039 -0.01,0.135 0.166,0.006 -0.007,0.231 0.059,0.003 0.006,-0.231 0.172,0.005 0.015,-0.523 -0.085,-0.002 0.001,-0.176 -0.162,-0.017 -0.248,-0.501 0.169,-0.01 0.038,-1.929 0.343,0.01 -0.005,0.174 0.338,0.009 0.005,-0.175 0.352,0.006 0.023,-0.699 0.696,0.011 0.02,-0.472 0.095,0.094 0.242,0.042 0.805,0.022 0.247,-10e-4 0.007,-0.142 0.215,0.204 0.127,0.018 -0.017,0.631 0.174,0.118 -0.018,0.753 0.117,0.17 -0.297,-0.002 -0.018,0.698 0.696,0.016 -0.015,0.7 0.587,0.005 0.005,0.395 0.112,-0.075 -0.011,0.394 -0.222,-0.006 -0.006,0.175 0.187,0.005 -0.008,0.242 0.217,0.079 -0.017,0.352 -0.183,-0.065 -0.039,0.59 0.353,0.009 0.025,-0.344 0.1,0.029 0.059,0.379 0.134,0.153 0.06,0.337 0.115,0.161 -0.152,-0.006 -0.003,0.669 -1.577,-0.019 -0.022,-0.274 -0.239,-0.265 -0.424,0.081 -0.435,-0.422 -0.231,-0.014 -0.096,0.072 -0.523,0.065 -0.307,-0.059 -0.304,0.216 -0.224,0.418 -0.121,0.082 -0.42,-0.228 -0.079,0.052 0.063,0.166 -0.151,-0.057 -0.02,-0.14 -0.111,0.008 -0.055,0.077 -0.078,-0.071 0.047,-0.041 -0.04,-0.091 -0.24,-0.006 0.004,-0.177 -0.124,0.004 0.001,-0.087 -0.04,0.11 -0.359,0.013 -0.06,0.378 -0.867,0.019 -0.277,-0.077 -0.347,0.01 -0.09,-0.039 -0.175,-0.444 -0.138,-0.098 0.066,0 0.026,-0.692 0.344,0.006 0.018,-0.675 z"
   id="47" />
<path
   inkscape:connector-curvature="0"
   d="m 78.381,67.005 h -0.033 l -0.022,-0.027 0.107,0.004 -0.052,0.023 z m -0.095,0.157 0.004,-0.027 0.026,0.027 -0.004,0.008 -0.026,-0.008 z M 78.3,67.028 78.275,67.02 78.273,67.015 h 0.034 L 78.3,67.028 z m -0.027,0.167 -0.002,0.037 -0.01,0.008 0.007,-0.044 0.005,-0.001 z m 0.102,-0.172 -0.017,-10e-4 -0.001,-0.007 0.035,0.007 -0.017,10e-4 z m 0.275,-0.124 -0.018,-0.002 0.029,-0.018 0.002,0.006 -0.013,0.014 z m -0.356,0.278 -0.012,0.009 -0.009,-0.005 0.005,-0.016 0.016,0.012 z m 0.379,-0.281 0.006,0.013 -0.001,0.007 -0.016,-0.015 0.011,-0.005 z m -0.252,0.075 -0.017,-0.005 0.044,0.001 -0.004,0.004 h -0.023 z m -0.102,0.162 -0.013,-0.021 0.024,-0.085 0.04,0.048 -0.051,0.058 z m -1.465,-4.105 1.724,0.059 -0.012,-0.151 -0.208,-0.031 0.002,-0.175 0.152,0.002 0.001,-0.085 -0.082,-0.091 0.003,-0.177 -0.183,-0.095 0.03,-0.33 -0.182,-0.296 0.06,0.006 -0.013,-0.18 -0.08,-0.021 -0.033,-0.135 -0.118,0.009 0.221,-0.093 0.057,0.07 0.262,0.008 0.002,-0.355 2.284,0.084 -0.05,1.106 0.247,0.064 -0.012,0.062 -0.09,-0.001 -0.012,0.174 0.159,0.006 0.004,0.441 -0.129,-0.006 0.122,0.271 -0.718,-0.026 -0.144,0.074 0.032,0.183 -0.189,-0.003 -0.023,0.117 -0.37,-0.049 -0.163,-0.569 0.324,-0.601 0,-0.242 0.112,-0.099 -0.195,0.065 -0.28,-0.045 -0.475,0.513 -0.097,0.449 0.146,0.281 -0.003,0.464 0.098,0.175 0.17,1.15 0.284,0.331 0.234,-0.015 0.245,0.132 0.08,0.141 -0.243,0.524 -0.227,0.229 -0.267,0.117 -0.035,0.291 -0.261,0.272 -0.008,0.218 -0.067,-0.03 -0.081,-0.229 -0.17,-0.076 -0.052,-0.106 -0.092,0.147 -0.265,0.009 -0.025,0.06 0.054,0.026 -0.062,0.208 -0.168,0.003 0.154,-0.892 0.013,-0.653 -0.07,-0.002 0.001,-0.176 -0.459,-0.012 -0.146,0.063 -0.048,-0.107 -0.124,0.131 -0.358,-0.228 -0.223,0.209 0.035,-2.562 z"
   id="46"
   class="district"
   clip-path="none"
   transform="translate(-45.340259,-41.217869)" />
<path
   transform="translate(-45.340259,-41.217869)"
   style=""
   class="district"
   clip-path="none"
   d="m 81.213,64.234 -0.046,-0.277 0.159,-0.004 0.014,-0.769 0.414,0.007 0.093,-0.162 0.141,0.166 0.046,-0.473 0.059,-0.041 -0.047,0.141 0.353,0.183 0.06,-0.667 -0.055,-0.298 0.049,-0.059 0.369,0.012 -0.002,-0.166 -0.095,-0.003 0.002,-0.175 0.086,0.003 -0.084,-0.177 -0.002,-0.356 5.454,0.156 2.347,-0.039 -0.006,0.249 0.207,0.034 0.025,0.585 0.266,0.184 0.02,0.15 -0.164,-0.053 0.327,0.449 -0.047,0.347 -0.465,-0.034 -0.008,0.173 -0.165,0.025 -0.004,0.062 0.161,0.095 0.006,0.082 -0.119,0.086 0.178,0.305 -0.116,0.01 -0.186,-0.108 0.011,0.329 -1.86,-0.083 0.029,0.37 -0.703,-0.012 0.19,0.525 0.386,0.597 0.071,0.272 0.498,0.875 0.123,0.074 0.181,0.648 -0.256,0.014 0.137,0.146 -0.289,0.512 0.051,0.114 -0.029,1.468 -0.718,-0.025 -0.004,0.135 -0.341,-0.014 -0.031,-0.075 -0.072,0.051 -0.253,-0.184 -0.054,0.062 -1.365,-0.042 0.002,-0.167 -0.126,-0.24 -0.095,-0.005 -0.132,-0.131 -0.004,-0.112 -0.445,0.629 -0.491,-0.019 0.492,-0.725 -0.326,-0.149 0.173,-0.341 0.252,0.005 -0.042,-0.3 -0.566,-0.738 0.033,-0.153 0.213,-0.093 0.135,-0.172 0.046,-0.215 0.22,-0.104 -0.093,-0.422 0.11,-0.016 0.001,-0.085 -0.092,-0.008 0.004,-0.17 -0.088,-0.001 0.005,-0.175 0.169,-0.001 -0.016,-0.043 -0.051,-0.058 -0.185,0.02 0.004,-0.087 -0.248,-0.05 0.091,-0.192 -0.118,-0.157 -0.751,0.029 0.015,0.196 -0.345,0.055 -0.052,-0.224 -0.206,0.166 -0.315,-0.004 -0.134,0.118 L 83,65.49 82.701,65.388 82.722,64.963 81.998,64.955 82,64.868 l -0.261,0.173 -0.093,-0.009 -0.01,0.949 -0.351,0.023 -0.194,-0.214 -0.119,-0.527 0.088,-0.369 0.138,-0.059 0.023,-0.146 -0.239,-0.119 0.002,-0.171 0.178,0.028 0.152,-0.133 0.004,-0.056 z"
   id="45" />
<path
   transform="translate(-45.340259,-41.217869)"
   style=""
   class="district"
   clip-path="none"
   d="m 81.533,56.021 0.171,0.006 0.011,-0.396 0.109,-0.002 0.004,-0.171 -0.078,-0.002 0.052,-0.173 -0.088,-0.004 0.028,-0.237 -0.098,-0.005 -0.032,-0.25 0.111,-0.011 0.001,0.154 0.176,0.008 -0.004,0.265 0.09,-0.004 0.006,-0.083 0.082,0.005 0.046,-0.359 -0.219,-0.003 0.007,-0.171 -0.088,-0.005 -0.048,0.11 -0.22,-0.081 0.086,-0.041 0.054,-0.197 -0.086,-0.156 0.051,-0.171 0.978,0.026 0.012,-0.741 0.095,0.003 0.021,-0.174 -0.25,-0.343 -0.415,-0.076 0.18,-0.497 -0.084,-0.295 0.063,-0.467 0.212,-0.213 0.252,-0.069 0.175,-0.162 0.311,-0.072 0.238,-0.317 -0.053,-0.911 0.098,-0.222 0.123,-0.064 0.005,-0.046 -0.063,-0.084 0.004,-0.049 0.15,-0.003 -0.188,-0.392 -0.196,-0.052 0.071,-0.133 0.252,0.003 0.018,-0.483 0.084,0.005 -0.04,-0.261 0.11,0.002 0.026,-0.065 0.016,-0.717 0.244,0.021 0.025,-0.154 0.175,0.007 0.059,-0.105 -0.065,-0.102 2.033,0.009 -0.035,1.753 0.706,0.012 0.01,0.641 0.25,0.008 0.109,-0.115 0.096,0.068 0.042,0.189 -0.183,0.255 -0.06,0.267 0.079,0.196 -0.018,0.717 0.093,-0.052 0.278,0.468 0.237,0.201 0.441,0.021 -0.158,3.377 -1.362,0.061 -0.05,0.926 -1.483,-0.909 -0.078,0.037 -0.057,0.081 0.078,0.182 -0.007,0.283 0.156,0.456 -0.093,0.178 0.077,0.576 0.12,0.142 0.119,-0.078 -0.019,0.107 -0.078,0.027 0.162,0.052 -0.312,0.16 -0.165,-0.024 -0.326,-0.772 -0.215,-0.122 -0.017,0.651 -0.214,-0.006 -0.166,0.079 -1.378,-0.044 -0.01,0.344 -0.753,-0.02 0.018,1.055 -0.815,-0.022 -0.114,-0.18 -0.28,-0.007 0.041,-0.535 -0.064,0 0.003,-0.176 -0.124,0 0.001,-0.063 0.093,-0.002 -0.095,-0.085 0.061,-0.641 -0.116,-0.02 0.007,-0.354 -0.234,0.028 -0.058,-0.069 0.595,-0.655 0.256,0.099 0.026,0.55 0.176,0.004 z"
   id="44" />
<path
   inkscape:connector-curvature="0"
   d="m 78.727,67.384 -0.005,-0.013 0.004,-0.005 0.014,0.012 -0.013,0.006 z m -0.287,0.148 0.005,0.012 -0.017,0.007 0.003,-0.019 0.009,0 z m 0.171,-0.07 0,-0.011 0.022,-0.01 -0.018,0.035 -0.004,-0.014 z m -2.531,-0.889 0.019,-0.569 0.14,0.004 0.043,-0.176 0.434,0.023 0.103,-0.265 0.207,-0.204 0.374,0.223 0.126,-0.131 0.048,0.107 0.146,-0.063 0.459,0.012 -0.001,0.176 0.07,0.002 -0.013,0.653 -0.154,0.892 0.146,0.006 0.086,0.2 0.09,-0.079 -0.006,0.112 0.029,0.072 0.124,-0.044 0.05,-0.058 0.012,0.014 0.006,-0.004 0.049,-0.053 0.053,0.075 0.234,0.007 0.056,0.086 -0.007,0.342 -0.099,0.285 -0.139,0.147 0.01,-0.063 H 78.72 l -0.011,0.175 -0.068,-0.121 -0.197,-0.039 -0.664,0.547 -0.008,0.237 -0.17,-0.006 -0.002,0.058 -0.613,0.294 0.019,0.04 v 0.082 l -0.12,-0.03 0.114,-0.06 -0.103,-0.069 0.024,-0.063 -0.139,-0.196 0.063,-0.027 -0.08,-0.099 0.209,-0.107 -0.002,-1.301 -0.277,-0.355 -0.613,-0.454 -0.002,-0.235 z m 2.383,0.749 0.172,0.003 -0.085,0.187 -0.128,-0.032 0.09,-0.096 -0.049,-0.062 z m -0.186,0.023 0.014,-0.031 0.135,-10e-4 -0.029,0.031 -0.12,0.001 z m 0.405,0.075 0.091,0.002 0.016,0.029 -0.033,0.029 -0.074,-0.06 z m -0.211,0.104 -0.037,-0.002 -0.019,-0.03 0.033,0.004 0.023,0.028 z m 0.184,-0.117 -0.001,0.011 -0.04,0.021 0.018,-0.035 0.023,0.003 z m -0.014,-0.027 0.004,-0.057 0.071,0.044 -0.014,0.027 -0.061,-0.014 z"
   id="43"
   class="district"
   clip-path="none"
   transform="translate(-45.340259,-41.217869)" />
<path
   inkscape:connector-curvature="0"
   d="m 79.908,69.887 0.035,-0.089 0.098,0.01 0.211,0.17 0.32,-0.126 0.079,0.202 -0.012,0.213 0.742,0.44 -0.278,0.68 -0.02,1.163 -0.136,0.266 -0.409,0.452 -0.352,-0.232 -0.246,-0.41 0.097,-0.182 0.128,-0.072 0.072,-0.35 0.162,-0.287 0.007,-0.234 -0.085,-0.378 -0.36,-0.35 -0.253,-0.365 -0.024,-0.447 0.159,0.005 0.065,-0.079 z m 1.279,4.372 -0.014,-0.016 0.002,-0.003 0.019,0.007 -0.007,0.012 z m -0.373,-5.39 -0.082,-0.087 0.032,-0.099 0.104,0.09 2.127,0.059 -0.005,0.35 0.349,0.011 -0.023,1.352 0.078,0.14 0.441,0.157 -0.003,0.112 -0.175,-0.041 -0.051,-0.095 -0.253,0.04 -0.075,-0.133 -0.305,-0.007 0.008,0.263 -0.143,0.061 0.4,0.083 0.054,0.13 0.091,-0.196 0.176,0.071 0.402,-0.035 -0.008,0.088 -0.134,0.072 -0.001,0.169 0.174,0.025 v 0.089 l 0.233,-0.058 -0.055,-0.197 0.303,0.025 0.014,-0.104 0.252,0.206 -0.035,-0.183 0.069,-0.172 -0.304,-0.083 -0.135,-0.139 0.123,-1.08 -0.105,-0.319 0.141,-0.308 0.521,-0.411 0.326,0.149 -0.492,0.725 0.492,0.02 0.445,-0.629 0.003,0.111 0.133,0.131 0.094,0.005 0.126,0.24 -0.002,0.167 1.366,0.042 0.054,-0.061 0.253,0.184 0.071,-0.051 0.031,0.075 0.342,0.014 0.004,-0.135 0.71,0.025 -0.009,0.319 0.315,0.002 -0.024,0.197 0.174,0.003 0.446,0.399 -0.002,0.116 -0.352,-0.007 -0.002,0.175 -0.147,-0.004 0.003,-0.175 -0.514,-0.015 0.006,-0.204 -0.097,0.01 0.005,-0.163 -0.176,-0.007 -0.009,0.283 -0.208,0.304 -0.54,-0.26 -0.57,-0.022 -0.185,0.071 0.183,0.251 -0.119,0.377 0.003,0.279 0.119,0.284 -0.188,0.196 -0.063,-0.033 0.079,-0.057 -0.021,-0.104 -0.255,-0.01 -0.073,0.201 -0.041,-0.066 -0.65,-0.014 -0.188,0.299 0.015,0.216 -0.161,-0.207 -0.173,0.027 -0.004,0.109 0.085,0.024 -0.086,-0.003 -0.008,0.22 h -0.087 l -0.014,0.35 -0.087,-10e-4 -0.02,0.688 -2.076,-0.056 -0.536,-0.126 -0.011,0.129 -0.19,-0.119 -0.496,0.074 -0.007,0.126 -0.178,-0.076 0,0.443 H 81.66 l -0.007,0.245 -0.058,0.009 -0.393,-0.159 0.095,-0.042 -0.042,-0.288 -0.258,-0.374 0.249,-0.426 -0.028,-0.175 0.312,-0.35 -0.021,-0.703 0.107,-0.057 0.168,-0.412 -0.186,-0.401 0.137,-0.058 0.039,0.045 -0.072,0.039 -0.009,0.045 0.027,0.061 0.059,0.044 -0.072,-0.104 0.078,-0.067 -0.032,0.079 0.085,0.094 -0.067,-0.099 0.044,-0.072 -0.085,-0.104 0.092,-0.121 0.087,0.02 -0.082,-0.058 0.008,-0.088 0.071,-0.023 -0.267,0.027 -0.298,-0.196 -0.243,-0.623 0.013,-0.24 -0.128,-0.129 -0.036,-0.175 0.044,-0.14 0.238,0.116 0.018,-0.054 -0.433,-0.387 z"
   id="41"
   class="district"
   clip-path="none"
   transform="translate(-45.340259,-41.217869)" />
<path
   clip-path="none"
   class="district"
   d="M 36.65625 0 L 36.9375 0.5 L 37.09375 2.03125 L 37.59375 2.0625 L 37.59375 1.9375 L 37.71875 1.96875 L 37.71875 2.03125 L 37.9375 2.0625 L 37.84375 4.59375 L 38.25 4.625 L 38.28125 4.71875 L 38.09375 4.71875 L 38.09375 4.9375 L 38.5625 4.96875 L 38.53125 5.96875 L 38.78125 5.96875 L 38.78125 5.8125 L 38.96875 5.84375 L 39.03125 5.71875 L 38.96875 5.625 L 41 5.625 L 40.96875 7.375 L 41.65625 7.40625 L 41.6875 8.03125 L 41.9375 8.0625 L 42.03125 7.9375 L 42.125 8 L 42.15625 8.1875 L 42 8.4375 L 41.9375 8.71875 L 42 8.90625 L 42 9.625 L 42.09375 9.5625 L 42.375 10.03125 L 42.59375 10.25 L 43.03125 10.25 L 42.875 13.65625 L 41.53125 13.71875 L 41.46875 14.625 L 40 13.71875 L 39.84375 13.84375 L 39.9375 14.03125 L 39.9375 14.3125 L 40.0625 14.75 L 39.96875 14.9375 L 40.0625 15.5 L 40.1875 15.65625 L 40.3125 15.5625 L 40.28125 15.6875 L 40.1875 15.71875 L 40.25 15.75 L 40.375 15.75 L 40.0625 15.90625 L 40.09375 16 L 40.5 16.53125 L 41.34375 17.3125 L 41.21875 17.34375 L 41.6875 17.90625 L 41.625 17.90625 L 41.71875 18.0625 L 41.71875 18.3125 L 41.8125 18.6875 L 41.78125 19.3125 L 42.0625 19.34375 L 42.0625 20.03125 L 47.25 20.03125 L 56.40625 20.21875 L 56.21875 28.78125 L 55.84375 28.78125 L 55.75 33.03125 L 56.4375 33.03125 L 56.4375 32.9375 L 59.90625 33 L 59.9375 32.75 L 59.96875 32.75 L 59.96875 0 L 36.65625 0 z "
   id="39" />
<path
   inkscape:connector-curvature="0"
   d="m 81.084,48.989 -0.024,-0.042 0.293,0.15 -0.255,-0.099 -0.014,-0.009 z m 0.108,0.286 0.132,0.025 -0.303,0.347 -0.083,0.895 -0.028,0.247 -0.012,0.013 0.047,-0.436 -0.076,-0.551 0.057,0.153 0.112,-0.573 0.154,-0.12 z m -2.786,0.669 -0.61,-0.279 -0.26,-0.45 0.184,-0.088 0.147,0.005 0.051,0.017 -0.043,10e-4 0.081,0.186 0.137,0.062 0.05,0.116 0.188,0.053 -0.002,0.12 0.19,0.209 -0.113,0.048 z m -1.511,-5.481 -0.705,0.339 0,0 0.705,-0.339 z m -0.165,-0.294 2.972,0.074 -0.052,-0.313 -0.277,-0.247 0.002,-0.155 0.322,0.017 0.145,-0.131 -0.299,-0.408 0.041,-0.345 0.276,0.014 0.111,-0.066 0.226,0.109 0.326,-0.102 0.269,0.255 0.743,0.024 -0.005,-0.185 0.619,0.007 0.009,-0.357 0.193,-0.002 0.087,0.905 0.496,0.011 0.003,-0.106 0.121,0.009 -0.003,0.088 0.21,0.01 -0.077,2.526 0.404,0.043 0.031,0.095 -0.188,10e-4 0.001,0.213 0.472,0.038 -0.062,1.706 -0.026,0.063 -0.11,-0.002 0.039,0.261 -0.083,-0.005 -0.018,0.483 -0.253,-0.003 -0.072,0.139 0.196,0.046 0.188,0.407 -0.146,-0.017 0.05,0.183 -0.123,0.064 -0.098,0.223 -0.024,0.29 0.089,0.494 -0.058,0.233 -0.191,0.21 -0.31,0.072 -0.175,0.162 -0.252,0.068 -0.212,0.214 -0.062,0.467 0.084,0.295 -0.181,0.497 0.416,0.076 0.25,0.343 -0.021,0.174 -0.095,-0.003 -0.012,0.741 -0.978,-0.026 -0.05,0.171 0.085,0.156 -0.054,0.197 -0.086,0.041 0.22,0.081 0.048,-0.11 0.088,0.005 -0.007,0.171 0.219,0.003 -0.046,0.359 -0.082,-0.005 -0.005,0.083 -0.091,0.004 0.004,-0.265 -0.176,-0.009 -10e-4,-0.153 -0.101,-0.005 -0.014,0.077 0.035,0.188 0.099,0.005 0.003,0.154 -0.49,0.067 0.157,-0.524 -1.74,-0.046 0.057,-0.146 -0.108,-0.247 -0.166,-0.008 -0.004,0.195 -0.346,-0.008 0.014,-0.609 -0.179,-0.02 0.006,-0.229 -0.177,-0.036 0.017,-0.676 0.177,0.007 0.005,-0.175 0.177,0.004 0.006,-0.102 -0.104,-0.002 0,-0.095 -0.194,0.029 -0.004,-0.053 0.481,-0.203 0.881,-0.122 0.481,-0.371 0.326,-0.431 0.099,-0.004 0.161,-0.302 -0.057,-0.119 0.074,-0.182 -0.165,-0.025 -0.051,0.168 -0.076,-0.025 -0.054,0.069 0.056,0.07 -0.096,-0.053 0.189,-0.323 0.013,-0.204 0.283,0.009 -0.04,-0.178 -0.243,-0.006 0.016,-0.123 0.161,0.007 0.003,-0.082 -0.151,-0.01 0.03,-0.088 0.216,0.005 0.102,-0.293 -0.015,-0.166 -0.105,-0.115 0.074,-0.048 0.135,0.146 0.026,0.012 -0.066,-0.152 0.115,0.06 0.091,-0.091 0.151,0.022 0.016,-0.051 -0.405,-0.107 -0.001,-0.176 0.417,-1.291 -0.92,0.695 -0.045,0.095 0.038,-0.027 0.058,0.174 -0.199,0.09 -0.247,-0.06 -0.997,-0.784 -0.587,-0.265 -0.048,-0.095 0.096,-0.056 0.056,0.113 0.377,0.142 0.084,-0.121 -0.072,-0.095 0.076,-0.104 -0.142,-0.062 -0.088,-0.222 -0.183,-0.104 -0.227,-0.015 -0.05,0.147 -0.141,-0.188 -0.097,-0.31 -0.635,-0.438 -0.016,-0.284 -0.118,-0.29 -0.554,-0.264 -0.025,-0.31 L 77.204,44.98 77.2,44.782 77.076,44.593 76.82,44.385 76.73,44.169 z m -0.738,-0.031 0.11,0.496 0,0 -0.11,-0.496 z"
   id="38"
   class="district"
   clip-path="none"
   transform="translate(-45.340259,-41.217869)" />
<path
   inkscape:connector-curvature="0"
   d="m 79.232,71.326 0.022,0.02 -0.03,0.018 -0.009,-0.022 0.017,-0.016 z m 1.941,2.917 0.014,0.016 -0.014,-0.007 v -0.009 z m -4.212,-4.676 0.044,0.002 -0.019,-0.122 0.613,-0.294 0.002,-0.057 0.17,0.006 0.008,-0.237 0.664,-0.547 0.197,0.039 0.068,0.121 -0.028,-0.113 0.093,-0.062 0.083,0.45 -0.23,0.889 -0.036,0.253 0.064,0.225 -0.091,0.257 0.125,0.164 0.125,0.447 0.051,0.025 0.034,-0.066 0.286,0.249 0.009,0.187 0.103,0.053 0.16,0.509 0.168,-0.104 -0.019,-0.375 0.083,-0.036 0.159,0.173 0.041,0.24 -0.103,0.183 -0.266,0.06 -0.021,0.214 -0.136,0.183 -0.075,0.306 0.125,0.437 -0.101,0.065 -0.007,0.088 0.178,0.112 0.261,0.333 0.367,0.107 0.623,0.509 0.249,-0.007 0.225,-0.149 0.173,0.094 0.079,-0.029 0.146,0.566 -0.223,0.436 -0.19,0.18 -10e-4,0.075 -0.118,-0.005 -0.043,0.136 -0.231,-0.002 0.045,-0.084 -0.069,-0.206 -0.375,0.088 -0.221,-0.166 -0.258,-0.028 -0.349,-0.148 -0.526,-0.554 0.023,-0.679 -0.175,-0.01 -0.004,0.138 -0.094,-0.053 -0.004,-0.089 -0.147,-0.015 -0.195,-0.442 -0.007,-0.18 0.112,-0.043 -0.051,-0.374 -0.062,-0.166 -0.277,-0.316 -0.325,-1.724 -0.203,-0.015 0.006,-0.252 -0.121,-0.196 -0.662,-0.012 -0.005,0.202 -0.133,-0.133 0.003,-0.298 0.153,-0.405 0.083,-0.008 z"
   id="37"
   class="district"
   clip-path="none"
   transform="translate(-45.340259,-41.217869)" />
<path
   inkscape:connector-curvature="0"
   d="m 75.727,64.025 0.454,0.101 0.051,0.117 0.258,0.009 0.085,0.178 0.261,0.008 -0.06,1.327 -0.06,0.091 -0.434,-0.023 -0.043,0.176 -0.14,-0.004 -0.019,0.569 0.002,0.232 0.613,0.454 0.277,0.355 0.002,1.301 -0.209,0.107 0.08,0.099 -0.045,0.028 -0.848,-0.821 -0.288,-0.127 -0.033,-0.308 -0.018,0.208 -0.039,-0.146 -0.057,0.004 0.008,0.142 h -0.05 l 0.005,-0.217 -0.27,0.149 -0.487,-0.275 -0.292,-0.296 -0.041,-0.376 -0.094,-0.21 -0.18,-0.24 -0.31,-0.184 0.365,-0.152 0.276,-0.231 0.225,-0.065 0.067,0.233 0.32,0.112 -0.222,-0.208 -0.164,-0.338 0.214,-0.363 0.024,-0.321 -0.089,-0.175 0.167,-0.229 0.537,-0.311 0.145,-0.16 0.056,-0.22 z"
   id="36"
   class="district"
   clip-path="none"
   transform="translate(-45.340259,-41.217869)" />
<path
   clip-path="none"
   class="district"
   d="M 18.21875 24.40625 L 18 24.78125 L 17.78125 24.78125 L 17.46875 25 L 17.3125 25 L 17 25.21875 L 17.125 25.21875 L 17.15625 25.40625 L 17.0625 25.40625 L 17.0625 25.3125 L 17 25.21875 L 16.9375 25.1875 L 16.8125 25.1875 L 16.78125 25.3125 L 16.375 25.40625 L 15.875 25.78125 L 15.5625 25.90625 L 15.375 26.09375 L 15.375 26.15625 L 15.3125 26.0625 L 15.25 26.03125 L 15.28125 25.96875 L 15.3125 26.0625 L 15.3125 25.84375 L 15.5625 25.375 L 15.625 25.34375 L 15.625 25.25 L 15.5 25.21875 L 14.8125 25.53125 L 14.46875 26.125 L 14.59375 26.1875 L 14.53125 26.25 L 14.46875 26.15625 L 14.34375 26.21875 L 14.28125 26.34375 L 14.21875 26.34375 L 14.0625 26.21875 L 13.53125 26.46875 L 13.3125 26.625 L 12.65625 26.71875 L 12.6875 26.84375 L 12.5625 27.03125 L 12.71875 27.34375 L 12.625 27.4375 L 12.46875 27.875 L 12.25 27.96875 L 11.71875 28.46875 L 11.0625 28.46875 L 10.8125 29.21875 L 10.9375 29.34375 L 10.625 29.375 L 10.6875 29.71875 L 10.375 29.75 L 10.21875 30.0625 L 9.59375 30.96875 L 9.375 31.15625 L 9.25 31.15625 L 8.78125 31.96875 L 8.71875 32.59375 L 8.59375 32.9375 L 8.3125 33.40625 L 7.78125 33.9375 L 7.46875 34.5 L 7.8125 34.78125 L 8.125 34.75 L 8 34.875 L 7.71875 34.90625 L 7.5 34.71875 L 7.46875 34.8125 L 7.25 34.84375 L 7.15625 35 L 7 35.09375 L 7.0625 35.1875 L 6.90625 35.1875 L 6.78125 35.5625 L 6.4375 36.09375 L 6.28125 36.65625 L 5.96875 37.125 L 5.9375 37.375 L 5.78125 37.65625 L 5.6875 37.65625 L 5.6875 37.78125 L 5.90625 37.9375 L 5.84375 38 L 5.84375 38.46875 L 6.0625 38.5625 L 6.40625 38.53125 L 6.53125 38.59375 L 6.90625 38.5 L 7.75 38.8125 L 7.84375 38.78125 L 7.8125 38.6875 L 7.9375 38.5625 L 8.0625 38.53125 L 8.09375 38.59375 L 8.34375 38.5 L 8.21875 38.6875 L 8.15625 38.71875 L 8.09375 38.625 L 7.9375 38.65625 L 7.90625 39.0625 L 8.1875 39.34375 L 8.5625 39.34375 L 8.78125 39.21875 L 9.15625 38.40625 L 9.5625 38.125 L 10.0625 37.9375 L 10.28125 37.65625 L 10.5 37.5625 L 10.75 37.59375 L 10.71875 37.53125 L 10.875 37.4375 L 11.46875 37.28125 L 12.4375 36.75 L 12.75 36.75 L 12.84375 36.46875 L 12.9375 36.375 L 13.09375 36.375 L 13.1875 36.21875 L 13.46875 36.28125 L 13.59375 36.125 L 13.75 36.125 L 13.90625 36.03125 L 13.90625 35.96875 L 14.09375 35.875 L 14.375 35.5 L 14.46875 35.5625 L 14.4375 35.46875 L 14.5625 35.375 L 14.65625 35.375 L 14.6875 35.25 L 14.875 35.3125 L 15 35.1875 L 15 35.28125 L 14.8125 35.46875 L 14.90625 35.53125 L 14.84375 35.9375 L 14.5625 36.03125 L 14.5 36.0625 L 14.40625 36.21875 L 13.875 36.75 L 13.625 37.09375 L 13.375 37.125 L 13.1875 37.28125 L 12.5 38.03125 L 12.21875 38 L 11.5625 38.28125 L 11.25 38.28125 L 10.90625 38.4375 L 10.5625 38.46875 L 10.46875 38.40625 L 10.21875 38.59375 L 9.96875 38.6875 L 9 39.53125 L 8.6875 39.6875 L 8.1875 39.8125 L 7.75 39.78125 L 7.125 39.84375 L 7.15625 39.65625 L 7.09375 39.59375 L 6.90625 39.625 L 6.84375 39.46875 L 6.125 39.34375 L 6.0625 39.21875 L 5.6875 39.15625 L 5 39.34375 L 4.53125 39.8125 L 4.34375 39.6875 L 4.28125 39.4375 L 4.4375 39.125 L 4.3125 38.6875 L 4.6875 38.4375 L 4.65625 38.15625 L 4.78125 37.90625 L 4.96875 37.0625 L 5.3125 36.46875 L 5.59375 35.6875 L 5.71875 35.625 L 5.6875 35.375 L 5.84375 35.25 L 6.03125 34.84375 L 6 34.71875 L 6.0625 34.625 L 5.96875 34.5 L 6.03125 34.40625 L 5.90625 34.15625 L 5.9375 33.9375 L 5.96875 33.96875 L 5.96875 34.03125 L 5.96875 34.0625 L 5.96875 34.21875 L 6.1875 34.3125 L 6.375 34.21875 L 6.78125 33.78125 L 6.84375 33.5625 L 6.9375 33.40625 L 7.875 32.4375 L 7.875 32.25 L 8 32.15625 L 7.90625 32 L 8.125 31.375 L 8.15625 31.09375 L 8.40625 30.84375 L 8.53125 30.5 L 8.5 30.34375 L 8.34375 30.28125 L 8.375 30.1875 L 8.25 30.15625 L 8.3125 30.09375 L 8.40625 30.15625 L 8.5 30.0625 L 8.78125 30.0625 L 9.03125 29.71875 L 9.34375 29.4375 L 9.375 29.1875 L 9.53125 29.0625 L 9.65625 28.84375 L 9.75 28.5 L 10 28.1875 L 10.28125 27.625 L 10.46875 27.59375 L 10.53125 27.4375 L 10.34375 27.5 L 10.3125 27.4375 L 9.875 27.40625 L 6.6875 27.25 L 0 27.03125 L 0 52.375 L 2.4375 52.4375 L 2.4375 55.3125 L 2.375 56.03125 L 9.84375 56.03125 L 9.21875 55.625 L 9.34375 55.21875 L 9.625 54.9375 L 9.65625 54.75 L 9.375 54.59375 L 9.53125 54.8125 L 9.34375 54.96875 L 9.40625 55.03125 L 9.34375 55.09375 L 9.34375 54.96875 L 9.34375 54.875 L 9.28125 54.875 L 9.40625 54.78125 L 9.3125 54.59375 L 9.40625 54.5 L 9.375 54.40625 L 9.25 54.375 L 9.28125 54.28125 L 9.1875 54.28125 L 9.125 54.1875 L 8.90625 54.375 L 8.9375 54.28125 L 9 54.25 L 9 54.21875 L 9.09375 54.125 L 9.03125 54.03125 L 8.6875 53.90625 L 8.5 53.53125 L 8.59375 53.40625 L 8.5625 53.15625 L 8.75 52.875 L 9.28125 52.625 L 9.40625 52.6875 L 9.53125 52.5 L 9.625 52.21875 L 9.5625 52.15625 L 9.75 51.875 L 9.53125 51.78125 L 9.46875 51.59375 L 9.625 51.75 L 9.78125 51.75 L 9.96875 51.875 L 10.1875 51.75 L 10.40625 51.75 L 10.625 51.59375 L 10.53125 51.4375 L 10.15625 51.1875 L 10.34375 51.25 L 10.375 50.75 L 10.59375 50.28125 L 11.25 49.65625 L 11.3125 49.5625 L 11.40625 49.59375 L 11.71875 49.21875 L 11.90625 48.8125 L 11.9375 48.4375 L 11.59375 48.28125 L 11.5 48.3125 L 11.375 48.0625 L 11.25 48.03125 L 11.21875 48.5 L 10.65625 49.09375 L 10.625 49.25 L 10.59375 49.1875 L 10.40625 49.34375 L 10.40625 49.4375 L 10.46875 49.4375 L 10.3125 49.625 L 10.3125 49.71875 L 10.21875 49.6875 L 10.09375 49.75 L 9.78125 50.15625 L 9.75 50.09375 L 9.875 49.78125 L 9.78125 49.59375 L 9.21875 49.6875 L 9.03125 50.03125 L 9.09375 50.1875 L 9.28125 50.21875 L 9.25 50.25 L 9.28125 50.3125 L 9.1875 50.25 L 9.15625 50.34375 L 9.125 50.5 L 8.875 50.75 L 8.71875 51.09375 L 8.34375 51.40625 L 7.78125 51.625 L 7.625 51.46875 L 7.75 51.40625 L 7.75 51.3125 L 7.1875 51.40625 L 6.6875 51.84375 L 6.6875 51.96875 L 6.5 52.0625 L 6.46875 52.15625 L 6.65625 52.25 L 6.5 52.21875 L 6.46875 52.15625 L 6.4375 52.09375 L 6.375 52.125 L 6.4375 52 L 6.3125 51.96875 L 6.40625 51.46875 L 6.4375 51.53125 L 6.46875 51.4375 L 6.6875 51.375 L 7.125 50.90625 L 7.40625 50.8125 L 7.8125 50.875 L 8 50.84375 L 8 50.75 L 8.03125 50.8125 L 8.25 50.875 L 8.46875 50.75 L 8.46875 50.21875 L 8.65625 49.96875 L 8.625 49.40625 L 8.5625 49.375 L 8.46875 49.53125 L 8.40625 49.5 L 8.5 49.34375 L 8.40625 49.28125 L 8.125 49.375 L 7.9375 49.375 L 7.875 49.25 L 7.6875 49.28125 L 7.59375 49.4375 L 7.53125 49.40625 L 7.40625 49.46875 L 7.34375 49.6875 L 6.90625 50.09375 L 6.78125 50.09375 L 6.6875 50.28125 L 6.46875 50.34375 L 6.40625 50.1875 L 6.3125 50.25 L 6.28125 50.375 L 6.34375 50.40625 L 6.28125 50.46875 L 6.28125 50.375 L 6.25 50.28125 L 6.375 50.09375 L 6.5 49.96875 L 6.65625 49.96875 L 6.71875 49.875 L 7.03125 49.75 L 7.28125 49.5625 L 7.21875 49.53125 L 7.34375 49.375 L 7.6875 49.1875 L 8.21875 49.28125 L 8.46875 49.15625 L 8.5625 49 L 8.53125 49.125 L 8.59375 49.25 L 8.84375 49.3125 L 9.21875 48.84375 L 9.5 48.625 L 9.875 48.5 L 10.34375 48.625 L 10.46875 48.59375 L 10.75 48.21875 L 10.78125 47.8125 L 11.1875 47.4375 L 11.1875 47.34375 L 11.25 47.40625 L 11.34375 47.21875 L 11.0625 46.96875 L 10.90625 47.09375 L 10.5625 47 L 10.25 47.03125 L 9.875 47.125 L 9.8125 47.25 L 9.59375 47.1875 L 9.46875 47.25 L 9.40625 47.3125 L 9.34375 47.25 L 9.5 47.1875 L 9.1875 47.03125 L 9.15625 46.84375 L 8.84375 46.90625 L 8.03125 46.78125 L 7.34375 46.90625 L 7.15625 46.875 L 7 46.71875 L 6.84375 46.71875 L 6.84375 46.59375 L 6.5625 46.6875 L 6.21875 46.6875 L 6.1875 46.53125 L 6.1875 46.5 L 6.3125 46.5 L 6.28125 46.34375 L 6.1875 46.3125 L 6.40625 46.3125 L 6.59375 46.1875 L 6.96875 45.78125 L 7.25 45.625 L 7.5625 45.28125 L 7.78125 44.84375 L 7.9375 44.875 L 7.96875 44.8125 L 8.03125 44.875 L 8.125 44.71875 L 8.03125 44.53125 L 8.71875 44.1875 L 8.75 44.0625 L 8.90625 44.03125 L 8.9375 44.1875 L 9.09375 44.1875 L 8.71875 44.5625 L 8.28125 44.8125 L 7.9375 45.09375 L 7.78125 45.34375 L 7.875 45.59375 L 8 45.65625 L 8.25 45.75 L 8.375 46 L 8.28125 46.03125 L 8.125 46 L 8.0625 45.875 L 7.9375 45.84375 L 7.96875 45.75 L 7.15625 46.21875 L 7.03125 46.375 L 7.03125 46.5 L 7.21875 46.59375 L 7.28125 46.75 L 8.03125 46.59375 L 8.375 46.625 L 8.53125 46.71875 L 8.78125 46.625 L 8.9375 46.6875 L 9.1875 46.59375 L 9.34375 46.78125 L 9.34375 47 L 9.65625 47.09375 L 9.6875 46.96875 L 10 46.90625 L 10.0625 46.9375 L 10.5 46.8125 L 10.53125 46.8125 L 10.625 46.875 L 10.78125 46.78125 L 10.90625 46.84375 L 10.90625 46.96875 L 11.15625 46.75 L 11.40625 46.875 L 11.5 46.6875 L 11.375 46.375 L 11.21875 46.375 L 11.21875 46.28125 L 11.3125 45.90625 L 11.40625 45.84375 L 11.40625 45.9375 L 11.53125 45.53125 L 11.40625 45.625 L 11.4375 45.4375 L 11.3125 45.375 L 11.4375 45.28125 L 11.46875 45.1875 L 11.40625 45.0625 L 11.3125 45.09375 L 11.3125 45 L 11.375 44.84375 L 11.40625 44.90625 L 11.5625 44.84375 L 11.5625 44.9375 L 11.625 44.875 L 11.625 44.96875 L 11.75 44.71875 L 11.78125 43.9375 L 11.75 43.96875 L 11.8125 43.25 L 11.9375 43.15625 L 12.03125 42.90625 L 12.0625 42.96875 L 12 43.09375 L 12.28125 42.84375 L 12.59375 42.75 L 12.6875 42.65625 L 12.75 42.53125 L 12.75 42.59375 L 12.6875 42.65625 L 12.75 42.71875 L 12.875 42.59375 L 12.90625 42.6875 L 13.03125 42.59375 L 13.0625 42.65625 L 13.15625 42.625 L 13.40625 42.375 L 13.53125 42.40625 L 13.78125 42.21875 L 13.90625 41.96875 L 13.84375 41.84375 L 13.8125 41.53125 L 13.84375 41.46875 L 13.84375 41.59375 L 13.90625 41.625 L 13.875 41.8125 L 14.03125 41.71875 L 14 41.8125 L 14.03125 41.96875 L 14.5625 41.8125 L 14.71875 41.5 L 14.75 41.28125 L 14.75 41.09375 L 14.78125 41.125 L 14.75 41.28125 L 15 41.03125 L 15 40.59375 L 15.1875 40.21875 L 15.03125 40.34375 L 15.25 39.96875 L 15.25 39.65625 L 15.03125 39.84375 L 15.28125 39.5 L 15.3125 39.09375 L 15.3125 39.03125 L 15.25 39.0625 L 15.125 39.28125 L 15.21875 38.8125 L 15.125 38.75 L 14.96875 38.78125 L 15.28125 38.375 L 15.4375 37.71875 L 15.21875 37.34375 L 15.5625 37.28125 L 15.5625 37.4375 L 15.65625 37.40625 L 15.75 38 L 15.59375 38.6875 L 15.6875 39.125 L 15.90625 39.375 L 15.90625 39.625 L 16.0625 39.59375 L 16.15625 37.40625 L 20.65625 37.5625 L 20.5 37.375 L 20.53125 36.90625 L 20.78125 36.25 L 20.84375 35.40625 L 20.96875 34.96875 L 21.125 34.71875 L 21.125 34.21875 L 21.3125 34.03125 L 21.46875 33.71875 L 21.65625 33.71875 L 21.78125 33.59375 L 21.84375 33.6875 L 21.875 33.65625 L 21.5625 33.09375 L 21.25 33.09375 L 21.125 33.1875 L 20.84375 33.15625 L 20.8125 33.3125 L 20.625 33.28125 L 20.625 33.15625 L 20.4375 33.15625 L 20.4375 33.3125 L 20.25 33.3125 L 20.25 33.6875 L 20.09375 33.65625 L 20.09375 33.5 L 19.90625 33.46875 L 19.90625 33.6875 L 19.3125 33.65625 L 19.3125 33.53125 L 19.53125 33.125 L 19.6875 32.59375 L 19.25 32.59375 L 19.28125 31.875 L 19.46875 31.875 L 19.4375 32.4375 L 19.625 32.4375 L 19.625 32.25 L 19.78125 32.25 L 19.8125 32.03125 L 19.71875 32.03125 L 19.71875 31.875 L 19.71875 31.71875 L 19.8125 31.65625 L 19.6875 31.625 L 19.65625 31.5 L 20 31.15625 L 20.28125 31.03125 L 20.34375 30.84375 L 20.21875 30.625 L 20.5625 30.25 L 20.53125 30.0625 L 20.6875 30.0625 L 20.53125 29.90625 L 20.5 29.625 L 20.78125 29.5625 L 21.0625 29.34375 L 21.28125 29.375 L 21.28125 29.28125 L 21.65625 29.28125 L 21.65625 29.1875 L 21.75 29.1875 L 21.75 29.28125 L 21.8125 29.28125 L 21.8125 29.15625 L 21.90625 29.125 L 21.40625 29.09375 L 21.40625 28.90625 L 21.15625 28.59375 L 21.03125 29.03125 L 20.84375 28.90625 L 20.78125 28.6875 L 20.8125 28.5625 L 20.875 28.6875 L 21 28.125 L 20.9375 27.96875 L 20.78125 27.875 L 20.6875 28.03125 L 20.59375 29.0625 L 20.59375 28.40625 L 20.53125 28.28125 L 20.4375 28.375 L 20.5 28.46875 L 20.46875 29.25 L 20.59375 29.09375 L 20.625 29.125 L 20.65625 29.21875 L 20.625 29.28125 L 20.75 29.5 L 20.59375 29.53125 L 20.34375 29.4375 L 20.4375 28.9375 L 20.375 28.9375 L 20.34375 29.21875 L 20.21875 29.15625 L 20.0625 28.78125 L 20.125 28.5 L 20.21875 28.46875 L 19.9375 28.09375 L 20.125 28.15625 L 20.21875 27.75 L 20.03125 27.5625 L 19.9375 27.625 L 19.84375 27.90625 L 19.71875 27.8125 L 19.59375 27.90625 L 19.5 27.75 L 19.5 27.59375 L 19.4375 27.4375 L 19.53125 27.125 L 19.5 26.96875 L 19.71875 26.28125 L 19.5625 26.375 L 19.53125 26.28125 L 18.65625 26.25 L 18.6875 24.46875 L 18.25 24.46875 L 18.21875 24.40625 z M 14.40625 26.21875 L 14.3125 26.46875 L 14.09375 26.65625 L 14.21875 26.375 L 14.3125 26.375 L 14.3125 26.34375 L 14.40625 26.21875 z M 14.40625 42.3125 L 14.03125 42.65625 L 14 42.5625 L 13.6875 42.84375 L 13.53125 42.84375 L 13.28125 42.96875 L 13.15625 43.21875 L 13.1875 43.25 L 13.09375 43.28125 L 13.03125 43.46875 L 12.90625 43.4375 L 13.03125 43.34375 L 13.125 43.0625 L 12.84375 43.0625 L 12.65625 43.1875 L 12.4375 43.125 L 12.3125 43.15625 L 12.09375 43.5 L 12.09375 44.5625 L 12 44.75 L 12.0625 44.8125 L 12 44.96875 L 11.9375 45 L 11.9375 44.90625 L 11.84375 45.03125 L 11.8125 45.40625 L 12 46 L 12.1875 46 L 12.15625 46.03125 L 12.34375 46.1875 L 12.46875 46.4375 L 12.5625 46.46875 L 12.6875 46.78125 L 12.78125 46.78125 L 12.875 46.875 L 13.1875 48.15625 L 13.34375 48.46875 L 13.34375 48.875 L 13.25 49 L 13.40625 48.9375 L 13.53125 48.71875 L 13.65625 48.6875 L 13.625 48.65625 L 13.78125 48.59375 L 14.0625 48.3125 L 14.53125 46.9375 L 14.5 46.65625 L 14.125 46 L 14.0625 45.84375 L 14.09375 45.5625 L 13.8125 45.375 L 13.625 44.9375 L 13.8125 44.03125 L 13.90625 43.8125 L 13.90625 43.75 L 13.75 43.84375 L 13.78125 43.78125 L 13.625 43.65625 L 13.6875 43.34375 L 14.03125 43.09375 L 14.21875 42.6875 L 14.46875 42.46875 L 14.5 42.375 L 14.4375 42.375 L 14.40625 42.3125 z "
   id="35" />
<path
   inkscape:connector-curvature="0"
   d="m 72.226,74.44 0.079,-0.656 0.07,-0.055 0.692,0.356 0.04,0.072 -0.298,0.343 -0.004,0.429 0.375,0.396 0.13,0.331 0.339,0.276 -0.365,0.606 0.128,0.206 -0.005,0.679 0.315,0.615 -0.338,0.22 0.077,0.301 -0.033,0.196 0.403,0.312 1.017,0.16 0.683,0.514 -0.159,0.151 -0.709,0.144 -0.144,0.153 -0.448,0.17 -0.22,0.237 -0.227,0.021 -0.227,0.153 -0.366,0.494 -0.211,0.582 -0.229,0.013 -0.294,-0.121 -0.144,-0.194 -0.041,-0.199 0.129,-0.382 0.222,-0.284 0.102,-0.317 0.288,0.196 0.355,-0.534 0.407,-0.283 0.044,-0.098 -0.088,-0.108 0.05,-0.194 -0.059,0.198 -0.134,-0.108 -0.02,-0.609 -0.217,0.053 -0.113,0.123 -0.11,-0.059 -0.363,0.122 -0.164,-0.067 0.136,0.103 -0.095,0.341 0.037,0.151 0.305,-0.211 0.113,-0.007 0.21,0.26 -0.193,0.272 -0.358,-0.179 -0.278,-0.024 -0.229,0.097 -0.218,0.242 -0.248,1.392 -0.037,0.907 -0.053,0.091 -0.174,0.015 -0.22,-0.032 -0.134,-0.128 -0.32,-0.008 -0.277,-0.528 0.112,-0.848 0.081,-0.201 0.226,-0.158 0.046,-0.353 -0.061,-0.236 -0.284,-0.444 -0.042,-0.282 0.055,-0.133 0.227,-0.169 -0.089,-0.109 0.031,-0.111 0.26,-0.328 -0.037,-0.185 0.092,-0.197 0.041,-0.464 -0.086,-0.395 0.019,-0.393 0.068,-0.296 0.087,-0.021 0.024,-0.319 0.203,-0.119 0.007,-0.138 0.159,-0.123 0.006,-0.312 0.51,-0.208 0.088,-0.184 0.075,-0.582 z m 4.494,-4.462 -0.006,0.774 -0.099,0.489 0.303,1.009 0.077,0.085 0.014,0.851 0.26,0.863 -0.029,0.652 -0.274,1.291 0.095,0.338 -0.321,-0.01 -0.014,0.355 -0.626,-0.012 -0.003,0.082 -0.127,0.047 0.225,0.044 -0.011,0.175 -0.194,-0.005 -0.153,-0.118 -0.541,-0.16 0.499,-0.391 -0.026,-0.563 0.235,-0.413 0.049,-0.252 -0.27,-0.439 -0.558,-0.457 -0.384,-0.716 0.162,-0.194 0.022,-0.147 -0.251,-0.306 0.196,-0.245 -0.107,-0.504 0.045,-0.208 -0.05,-0.245 -0.35,-0.763 -0.297,-0.269 0.612,-0.318 0.521,-0.575 0.116,0.062 0.041,0.208 0.299,0.322 0.071,0.013 0.068,-0.098 0.316,0.018 0.002,-0.095 0.26,-0.033 0.203,-0.142 z"
   id="34"
   class="district"
   clip-path="none"
   transform="translate(-45.340259,-41.217869)" />
<path
   transform="translate(-45.340259,-41.217869)"
   style=""
   clip-path="none"
   class="district"
   d="m 76.1,76.663 0.625,0.013 0.014,-0.356 0.322,0.01 -0.097,-0.324 0.184,-0.676 0.121,-1.26 -0.19,-0.71 0.168,0.007 -0.003,0.109 0.267,0.003 0.002,-0.071 0.509,0.571 0.226,0.905 0.049,-0.001 0.017,0.065 -0.164,-10e-4 0.276,1.062 -0.131,0.35 0.351,0.009 -0.006,0.162 0.322,0.009 10e-4,0.085 0.117,0.004 -0.039,0.132 0.059,0.102 -0.063,0.089 0.125,0.002 -0.07,0.203 0.063,0.032 -0.009,0.205 -0.19,0.205 0.036,0.152 -0.487,0.452 0.001,0.124 0.556,0 0.065,-0.115 -0.062,-0.167 0.068,-0.164 0.231,-0.071 -0.145,-0.195 0.471,0.047 0.103,-0.375 1.103,0.029 0.247,-0.059 0.141,-0.11 10e-4,0.162 0.107,0.002 -0.026,1.064 -0.083,0.031 0.081,0.053 -0.001,0.092 -0.343,-0.01 -0.038,1.929 -0.169,0.01 0.248,0.501 0.162,0.017 -0.001,0.176 0.085,0.002 -0.015,0.523 -0.172,-0.005 -0.006,0.231 -0.059,-0.003 0.007,-0.231 -0.166,-0.006 0.01,-0.135 -1.834,-0.039 -0.198,-0.2 -1.395,-0.041 0.008,-0.35 -0.387,-0.006 0.056,-0.272 -0.093,-0.768 0.057,-0.278 -0.105,-0.202 0.051,-0.006 -0.11,-0.004 -0.047,-0.246 0.053,0.241 0.049,0 0.01,-0.151 -0.086,-0.122 0.044,-0.065 -0.147,-0.232 -0.431,-0.379 -0.153,-1.196 -0.259,-0.227 0.194,0.005 0.011,-0.175 -0.225,-0.044 0.127,-0.047 z"
   id="33" />
<path
   transform="translate(-45.340259,-41.217869)"
   style=""
   clip-path="none"
   class="district"
   d="m 76.712,59.677 10e-4,-0.07 0.179,-0.106 0.257,0.006 0.035,-0.242 0.065,-0.018 -0.041,-0.93 0.211,0.055 0.196,-0.236 0.062,-0.277 0.187,-0.24 0.473,0.021 0.003,-0.202 0.351,0.002 0.013,0.065 0.146,-0.092 0.449,0.058 0.008,0.369 0.1,0.252 0.587,0.642 0.311,0.2 -0.113,0.34 -0.183,0.067 0.032,0.102 -0.135,0.061 -0.267,0.017 -0.19,-0.129 -0.104,0.009 -0.007,-0.426 -0.287,0.134 -0.079,-0.039 -0.054,0.154 -0.222,0 -0.035,0.342 -0.439,-0.014 -0.24,0.216 -0.179,1.175 0.654,0.025 -0.002,0.355 -0.263,-0.008 -0.057,-0.07 -0.22,0.093 0.118,-0.009 0.032,0.135 0.081,0.02 0.013,0.18 -0.06,-0.006 0.181,0.296 -0.03,0.33 0.183,0.095 -0.002,0.177 0.082,0.09 -0.001,0.085 -0.152,-0.002 -0.002,0.175 0.207,0.032 0.013,0.151 -1.724,-0.059 -0.019,1.41 -0.261,-0.008 -0.085,-0.178 -0.262,-0.011 -0.046,-0.115 -0.447,-0.067 0.204,-0.849 -0.278,-0.882 0.106,-0.493 -0.444,-0.642 0.003,-0.27 -0.116,-0.167 0.015,-0.11 0.213,-0.232 -0.118,-0.769 0.383,0.006 -0.004,0.175 0.524,0.017 0.003,-0.179 z"
   id="32" />
<path
   clip-path="none"
   class="district"
   d="M 47.4375 41.0625 L 47.375 44.59375 L 47.03125 44.5625 L 46.84375 44.625 L 46.5625 44.59375 L 46.25 44.40625 L 45.78125 44.3125 L 45.65625 44.15625 L 45.65625 44.0625 L 45.5625 44.09375 L 45.28125 44.3125 L 45.125 44.5625 L 45.15625 44.65625 L 44.9375 44.84375 L 45 44.9375 L 44.9375 44.96875 L 44.90625 45.15625 L 44.625 45.21875 L 44.625 45.40625 L 44.4375 45.46875 L 44.34375 45.3125 L 44.25 45.28125 L 43.90625 45.34375 L 43.9375 45.5625 L 44.1875 45.53125 L 44.0625 46.25 L 44.25 46.25 L 44.25 46.40625 L 44.09375 46.4375 L 44.09375 46.9375 L 43.53125 46.9375 L 43.5625 46.5625 L 40.375 46.5 L 40.40625 45.8125 L 40.84375 45.8125 L 41.09375 46.125 L 41.09375 44.625 L 41.28125 44.625 L 41.28125 44.4375 L 42.59375 44.5 L 42.71875 43.875 L 42.71875 43.6875 L 42.5 43.40625 L 42 43.375 L 42 43.5625 L 41.75 43.53125 L 41.75 43.6875 L 41.65625 43.75 L 41.34375 43.6875 L 41.15625 43.75 L 41.125 43.6875 L 41.125 43 L 39.5625 42.96875 L 39.53125 42.6875 L 39.28125 42.4375 L 38.875 42.5 L 38.4375 42.09375 L 38.1875 42.0625 L 38.09375 42.15625 L 37.5625 42.21875 L 37.28125 42.15625 L 36.96875 42.375 L 36.75 42.78125 L 36.625 42.875 L 36.1875 42.625 L 36.125 42.6875 L 36.1875 42.84375 L 36.03125 42.8125 L 36 42.65625 L 35.90625 42.65625 L 35.84375 42.75 L 35.78125 42.6875 L 35.8125 42.625 L 35.78125 42.53125 L 35.53125 42.53125 L 35.53125 42.34375 L 35.40625 42.375 L 35.40625 42.28125 L 35.375 42.375 L 35.03125 42.40625 L 34.96875 42.78125 L 35.1875 42.75 L 35.1875 43.03125 L 35.03125 42.90625 L 35 43.0625 L 34.84375 43.0625 L 34.84375 43.21875 L 35.09375 43.21875 L 35.09375 43.40625 L 35 43.40625 L 35 43.5 L 35.09375 43.5 L 35.09375 43.75 L 35.34375 43.75 L 35.34375 44.0625 L 35.5 44.125 L 35.21875 44.15625 L 34.78125 44.53125 L 34.78125 44.96875 L 34.28125 44.96875 L 34.21875 45.65625 L 33.90625 45.65625 L 33.71875 44.9375 L 32.625 44.9375 L 32.65625 45.65625 L 32.125 45.625 L 32.125 45.71875 L 32 45.71875 L 31.96875 45.8125 L 31.5625 45.84375 L 31.75 46.3125 L 31.75 46.6875 L 32.96875 47.25 L 32.96875 47.40625 L 33.15625 47.375 L 33.375 47.4375 L 33.34375 47.90625 L 33.75 47.75 L 34.1875 47.96875 L 34.375 48.28125 L 34.71875 48.5 L 34.65625 49.9375 L 34.46875 50.25 L 34.40625 50.21875 L 34.40625 50.125 L 34.3125 50.15625 L 34.15625 50.40625 L 34.15625 50.59375 L 34.09375 50.65625 L 34.15625 52.0625 L 34.3125 52.1875 L 34.46875 52.1875 L 34.46875 51.9375 L 34.78125 51.9375 L 34.625 51.625 L 34.75 51.625 L 34.8125 51.5625 L 35.15625 52.1875 L 35.375 52.25 L 35.34375 52.5 L 35.46875 52.40625 L 35.875 52.71875 L 35.90625 52.96875 L 35.71875 53.1875 L 35.96875 53.5 L 36.3125 53.5 L 36.59375 53.40625 L 36.8125 53.53125 L 36.875 53.75 L 37 53.875 L 37.0625 53.78125 L 37.3125 53.78125 L 37.40625 53.65625 L 37.5625 53.625 L 37.90625 53.78125 L 37.9375 53.9375 L 38.09375 53.71875 L 38.1875 53.90625 L 38.65625 54.09375 L 38.8125 54.34375 L 39.875 54.28125 L 40.125 54.34375 L 40.15625 54.71875 L 40 55.25 L 40.0625 55.46875 L 40.28125 55.6875 L 40.28125 56.34375 L 40.90625 56.34375 L 41.0625 56.8125 L 41.75 57.1875 L 42.125 57.65625 L 43.21875 58.21875 L 43.71875 58.34375 L 44.34375 58.15625 L 44.75 57.90625 L 45.25 57.875 L 45.21875 57.84375 L 46.875 57.84375 L 47 58 L 46.9375 57.875 L 46.96875 57.875 L 49.5 57.9375 L 51.09375 57.9375 L 51.09375 58.4375 L 59.96875 58.4375 L 59.96875 41.4375 L 58.96875 41.4375 L 53.78125 41.34375 L 51.75 41.25 L 51.75 41.15625 L 47.4375 41.0625 z "
   id="31" />
<path
   transform="translate(-45.340259,-41.217869)"
   style=""
   clip-path="none"
   class="district"
   d="m 78.705,81.476 -0.019,0.525 0.174,0.003 -0.018,0.675 -0.344,-0.006 -0.026,0.692 -0.066,0 0.145,0.107 0.178,0.45 0.704,0.091 1.101,-0.034 -0.006,0.262 -0.165,-0.108 -0.015,0.14 -0.158,-0.002 -0.004,0.174 0.246,0.003 -0.003,0.175 -0.088,-0.002 -10e-4,0.092 0.089,0 -0.006,0.261 0.264,0.005 -0.008,0.29 0.175,0.062 -0.294,0.042 -0.44,0.369 0.008,0.448 -0.512,-0.005 -0.066,0.701 -0.3,-0.005 -0.202,-0.714 -1.072,-0.01 0.006,0.703 -0.521,-0.018 -0.002,0.088 -0.134,0.013 -0.003,0.072 -0.383,0 -0.03,0.057 -0.076,-0.059 0.004,-0.177 -0.069,-0.001 0.001,-0.081 -0.159,0.082 -0.056,-0.087 0.1,-0.915 -2.651,-2.817 0.47,-0.085 0.346,-0.28 0.201,0.008 0.062,0.097 0.145,-0.013 0.097,-0.043 0.169,-0.305 1.252,-0.375 0.374,-0.352 -0.019,-0.756 0.387,0.006 -0.008,0.35 1.054,0.028 -0.006,0.176 z"
   id="30" />
<path
   transform="translate(-45.340259,-41.217869)"
   style=""
   clip-path="none"
   class="district"
   d="m 70.438,88.788 0.53,0.008 0.003,-0.124 -0.1,-0.045 0.105,-0.209 0.055,-1.733 0.275,0.394 1.026,0.04 0.14,0.211 -0.085,0.155 0.033,0.994 0.099,0.004 0.007,-0.172 0.546,0.018 0.06,0.088 0.198,0.005 -0.021,0.793 0.431,0.013 -0.026,1.05 -0.433,-0.008 -0.004,0.107 0.087,0.035 -0.088,-0.002 -0.047,1.306 0.087,0.003 -0.002,0.085 0.27,0.011 0.257,0.167 0.227,0.035 0.655,0.352 0.182,0.147 0.197,0.297 0.638,0.383 -0.045,1.761 -0.533,-0.039 -0.012,0.353 -1.318,-0.038 -0.682,-0.784 0.016,-0.658 -0.165,-0.006 0.003,-0.096 -0.305,-0.047 -0.296,-0.336 0.014,-0.833 -0.361,-0.18 0.009,-0.227 0.108,0.009 0.09,-0.313 -0.133,-0.006 0.006,-0.123 -0.047,-0.002 0.055,-0.62 -0.165,-0.002 0.011,-0.299 -0.233,0.042 -0.007,0.17 -0.292,-0.007 -0.224,0.182 -0.075,0.616 -0.472,-0.034 -0.11,-0.091 0.353,-0.262 0.006,-0.253 -0.058,0.104 -0.216,-0.017 -0.004,-0.44 -0.245,-0.085 0.02,-0.357 -0.194,-0.003 0.007,-0.602 0.092,-0.129 0.005,-0.368 0.075,-0.001 -0.148,-0.321 z"
   id="29" />
<path
   inkscape:connector-curvature="0"
   d="m 65.943,87.833 0.307,0.055 0.193,0.435 -0.022,0.309 -0.558,0.263 -0.546,0.112 -0.497,-0.072 -0.207,-0.238 -0.149,-0.059 -0.51,-0.067 -0.287,-0.285 -0.009,-0.098 0.228,-0.117 0.188,-0.339 0.308,-0.29 0.106,-0.378 0.389,0.123 0.16,-0.103 0.212,0.021 0.141,0.407 0.263,-0.008 -0.067,0.327 0.055,0.118 0.176,0.072 0.126,-0.188 z m -1.599,1.368 0.238,0.156 0.235,0.006 0.238,0.182 -0.008,-0.064 0.069,0.035 0.267,0.383 -0.089,0.574 0.032,0.533 -0.111,0.049 -0.038,0.122 0.055,0.218 -0.224,0.08 -0.146,-0.192 -0.157,-0.083 -0.205,-0.001 0.057,-0.021 -0.164,-0.209 -0.065,0.092 0.132,0.025 0.033,0.208 0.074,0.021 0.016,0.113 -0.267,0.104 -0.031,-0.22 -0.122,-0.171 0.02,0.393 0.153,0.234 -0.003,0.118 0.089,-0.224 0.081,0.019 0.155,0.324 -0.099,0.164 -0.142,0.071 -0.095,-0.034 0.01,-0.186 -0.189,0.066 -0.162,-0.098 -0.225,-0.393 -0.306,-0.29 -0.06,-0.159 0.041,0.088 0.031,0.002 -0.02,-0.176 -0.106,0.06 -0.247,-0.254 0.134,-0.207 0.4,-0.167 0.133,0.173 0.106,-0.003 -0.191,-0.275 -0.122,-0.051 -0.004,-0.275 0.147,-0.283 0.167,-0.16 0.079,-0.014 -0.083,0.025 0.041,0.046 0.171,-0.208 0.01,-0.009 h 0.018 l -0.016,0.082 0.122,-0.268 0.143,-0.071 z m 5.813,-4.156 0.287,0.198 -0.229,0.107 0.136,0.02 -0.005,0.206 0.354,-0.073 -0.032,1.179 0.363,0.003 -0.055,1.733 -0.105,0.209 0.1,0.045 -0.003,0.124 -0.529,-0.008 -0.169,0.066 0.148,0.32 -0.075,10e-4 -0.004,0.368 -0.092,0.129 -0.007,0.603 0.194,0.003 -0.02,0.357 0.245,0.085 0.004,0.44 0.216,0.017 0.058,-0.104 -0.006,0.253 -0.347,0.275 0.151,0.105 0.424,0.006 0.075,-0.616 0.224,-0.182 0.292,0.007 0.007,-0.17 0.232,-0.042 -0.011,0.299 0.164,0.002 -0.055,0.62 0.047,0.002 -0.006,0.123 0.133,0.006 -0.09,0.313 -0.107,-0.009 -0.009,0.227 0.361,0.18 -0.008,0.843 0.29,0.326 0.306,0.048 -0.003,0.096 0.165,0.006 -0.016,0.658 0.682,0.784 1.497,0.048 -0.014,0.565 0.075,-0.014 0.015,0.162 0.936,-0.003 -0.081,1.577 -2.344,-0.041 -0.343,-0.119 -0.758,-0.454 -1.575,-0.074 -0.07,-0.054 -1.185,1.275 -0.228,0.066 -0.018,-0.134 -0.129,-0.028 -0.083,0.19 0.005,-0.199 -0.214,0.238 -0.363,0.066 -0.01,0.745 -0.356,0.833 0.146,0.116 -0.279,0.126 -0.219,-0.208 -0.245,0.099 -0.051,-0.155 0.052,-0.082 0.313,0.049 0.058,-0.046 -0.164,-0.313 -0.145,0.164 -0.17,0.008 -0.686,-0.166 -0.064,0.457 -0.237,-0.155 -0.318,-0.059 -0.293,-0.326 0.043,-0.214 0.2,-0.282 -0.004,-0.288 0.075,-0.128 -0.064,-0.12 -0.48,-0.212 -0.169,-0.177 -0.15,0.187 -0.123,0.023 -0.15,-0.314 0.027,-0.09 -0.307,-0.242 -0.066,-0.196 0.082,-0.2 -0.265,-0.278 0.022,-0.159 0.167,-0.234 -0.054,-0.2 -0.232,-0.091 0.045,-0.274 -0.078,-0.109 -0.267,-0.058 0.123,-0.247 -0.179,-0.09 -0.013,-0.123 -0.23,-0.13 0.082,-0.157 -0.226,-0.45 0.091,-0.277 -0.065,-0.139 0.364,-0.179 0.042,-0.346 -0.152,-0.111 -0.021,-0.256 0.283,0.013 0.362,0.249 0.126,-0.084 0.233,-0.518 0.584,-0.837 0.309,-0.241 0.332,-0.064 0.364,-0.322 0.312,-0.696 0.117,-0.538 0.75,-0.38 0.213,-0.479 -0.039,0.108 0.105,-0.037 -0.003,0.059 0.086,0.012 0.099,-0.067 0.1,-0.268 -0.142,0.239 -0.1,0.032 -0.062,-0.129 -0.034,0.029 0.076,-0.31 -0.028,-0.306 0.118,-0.457 0.509,-0.715 0.091,-0.935 0.069,-0.037 -0.068,0.434 0.138,-0.262 -0.037,-0.136 0.12,0.016 0.156,-0.241 0.039,0.05 -0.049,-0.292 0.258,-0.495 0.415,-0.576 z"
   id="28"
   class="district"
   clip-path="none"
   transform="translate(-45.340259,-41.217869)" />
<path
   transform="translate(-45.340259,-41.217869)"
   style=""
   clip-path="none"
   class="district"
   d="m 70.843,83.578 0.127,0.02 0.108,0.263 0.216,0.238 -0.037,0.053 0.502,0.553 0.46,0.365 0.471,0.177 0.343,0.31 0.31,0.566 0.058,0.621 0.057,0.064 0,-0.478 0.177,0.024 -0.177,-0.059 -0.141,-0.463 0.1,-0.089 0.202,0.4 -0.141,-0.396 0.139,0.092 -0.116,-0.203 0.036,-0.172 0.355,0.534 0.064,-0.014 -0.277,-0.491 0.107,0.075 0.056,-0.139 0.231,0.269 0.064,-0.066 -0.274,-0.327 0.079,-0.149 0.085,0.088 -0.018,-0.196 0.033,0.208 0.035,0.027 0.013,-0.137 0.329,0.249 -0.016,0.079 0.221,0.232 0.084,-0.011 0.377,0.362 -0.056,0.089 0.05,0.108 0.215,-0.007 -0.01,-0.19 -1.179,-1.079 0.124,-0.195 0.275,0.28 0.596,0.226 0.355,0.335 -0.003,0.075 0.007,-0.071 0.454,0.389 -0.085,-0.088 0.026,-0.137 -0.201,-0.072 -0.483,-0.49 -0.208,-0.064 -0.061,-0.121 -0.093,-0.033 -0.048,0.069 -0.1,-0.054 0.093,0.009 0.073,-0.093 -0.301,-0.042 -0.173,-0.111 -0.163,-0.396 -0.191,-0.204 -0.311,-0.115 -0.216,0.044 -0.359,-0.177 -0.005,-0.258 0.238,-0.036 0.131,-0.099 0.13,-0.509 0.397,-0.023 2.651,2.817 -0.065,1.009 -0.209,0.075 0.039,-0.188 -0.175,-0.004 0.004,-0.122 0.088,0.003 -0.013,-0.046 -0.197,0.023 0.004,-0.116 0.125,0.003 -0.022,-0.184 -0.081,-0.002 -0.005,-0.176 -0.313,0.034 0.073,0.068 -0.104,0.032 0.03,0.396 -0.602,0.03 -0.105,-0.02 0.002,-0.06 -0.158,-0.002 -0.004,0.109 -0.461,-0.021 -0.006,0.213 0.175,0.145 -0.059,2.218 -0.439,-0.01 -0.003,0.105 -0.09,-0.002 -0.019,-0.106 -0.035,0.045 -0.72,-0.068 0.021,-0.793 -0.198,-0.005 -0.06,-0.088 -0.546,-0.018 -0.007,0.172 -0.099,-0.004 -0.033,-0.994 0.085,-0.155 -0.14,-0.211 -1.026,-0.04 -0.262,-0.395 -0.376,-0.002 0.032,-1.179 -0.354,0.073 0.005,-0.206 -0.137,-0.019 0.228,-0.096 -0.285,-0.21 0.175,-0.758 -0.609,-1.262 0.23,-0.046 0.214,0.086 0.811,0.747 0.041,-0.032 z"
   id="27" />
<path
   inkscape:connector-curvature="0"
   d="m 61.394,80.826 0.09,-2.207 4.511,0.151 -0.146,-0.188 0.02,-0.444 0.238,-0.673 0.08,-0.844 0.121,-0.43 0.143,-0.25 0.003,-0.499 0.186,-0.191 0.169,-0.321 0.191,0.005 0.116,-0.118 0.055,0.093 0.032,-0.035 -0.311,-0.552 -0.297,-0.005 -0.119,0.084 -0.276,-0.013 -0.045,0.131 -0.202,-0.01 0.006,-0.133 -0.172,-0.009 -0.008,0.177 -0.173,-0.006 -0.009,0.353 -0.171,-0.007 0.004,-0.176 -0.173,-0.007 -0.004,0.21 -0.6,-0.024 0.003,-0.149 0.211,-0.38 0.157,-0.532 -0.434,-0.021 0.039,-0.715 0.174,0.007 -0.035,0.543 0.184,0.007 0.014,-0.178 0.163,0.006 0.012,-0.225 -0.086,-0.003 0.003,-0.141 0.011,-0.178 0.093,-0.054 -0.142,-0.033 -0.032,-0.097 0.367,-0.368 0.28,-0.158 0.047,-0.143 -0.126,-0.224 0.345,-0.384 -0.042,-0.194 0.168,0.011 -0.156,-0.164 -0.034,-0.272 0.28,-0.069 0.286,-0.203 0.213,0.005 0.003,-0.089 0.368,0.014 0.005,-0.105 0.104,0.003 -0.003,0.106 0.07,0.001 0.005,-0.136 0.082,-0.038 0.167,0.158 -0.03,0.095 0.101,-0.01 0.085,0.273 -0.087,0.304 -0.375,0.053 -0.005,0.094 -0.187,0.11 0.003,0.129 -0.073,-0.011 0.003,-0.135 -0.087,-10e-4 -0.002,0.076 -0.013,-0.077 -0.161,-0.003 -0.017,0.063 -0.122,0.009 -0.514,0.331 -0.132,0.224 -0.018,0.225 -0.74,0.455 0.018,0.096 0.169,-0.046 0.021,0.067 h 0.081 l 0.009,-0.083 0.099,0.027 0.557,-0.194 0.245,-0.391 0.494,0.131 0.287,-0.271 0.322,-0.022 0.043,0.073 0.21,-0.287 0.441,0.089 0.601,-0.907 0.269,-0.25 0.043,-0.119 0.148,-0.06 0.255,-0.398 -0.043,-0.062 0.096,0.021 0.405,-0.291 0.151,0.059 0.077,0.105 -0.069,0.4 0.187,0.094 -0.246,0.23 -0.019,0.108 0.146,0.109 0.191,-0.043 0.309,0.175 -0.221,0.128 -0.147,0.246 0.081,0.672 -0.266,0.735 0.02,0.202 0.456,0.102 0.332,-0.079 0.085,0.054 0.127,0.377 -0.011,-0.135 0.06,-0.052 0.355,0.049 0.269,0.393 -0.29,0.308 -0.022,0.146 -0.258,0.388 -0.215,0.166 -0.02,0.301 -0.154,0.333 -0.304,0.271 0.005,0.279 -0.068,0.088 0.099,0.329 -0.184,0.296 0.064,0.515 -0.095,0.11 0.103,0.411 -0.147,0.234 -0.149,0.073 -0.209,-0.178 -0.131,-0.016 0.361,0.28 -0.133,0.362 -0.173,0.146 -0.123,0.757 0.185,0.505 0.203,0.214 0.048,0.169 -0.445,0.686 -0.162,0.655 -0.539,0.973 -0.04,0.027 -0.055,-0.004 0.05,-0.058 -0.124,-0.352 -0.19,-0.198 0.021,-0.347 -0.111,0.212 -0.217,0.194 0.118,0.198 0.129,-0.005 0.28,0.314 -0.037,0.21 0.14,0.412 0.191,0.421 0.532,0.822 0.034,0.218 -0.05,0.136 -0.594,0.879 -0.335,0.305 -0.249,0.112 -0.171,-0.049 -0.296,-0.408 0.058,-0.142 0.216,-0.192 -0.02,-0.191 0.094,-0.241 -0.226,-0.229 -0.199,-0.093 -0.136,-0.254 -0.064,0.018 -0.123,-0.429 -0.189,0.041 0.088,0.151 0.034,-0.079 0.061,0.07 0.029,0.322 0.134,0.041 0.233,0.4 0.025,0.265 -0.096,0.15 -0.492,0.052 -0.393,-0.358 -0.28,-0.007 -0.57,-0.274 -0.154,0.01 -0.134,-0.119 0.016,-0.095 -0.055,0.093 -0.284,-0.146 -0.186,0.054 -0.147,0.27 0.094,-0.051 -0.016,0.052 -0.125,0.051 -0.229,-0.018 -0.1,-0.085 -0.033,-0.228 0.227,-0.526 0.059,-0.05 0.038,-0.019 -0.078,0.062 0.055,0.081 0.019,0.623 0.097,-0.416 0.146,-0.281 -0.072,-0.203 -0.221,-0.251 0.03,-0.134 0.465,-0.592 0.184,-0.095 h 0.228 l 0.078,0.055 -0.014,0.139 0.057,-0.193 0.071,-0.054 0.002,0.096 0.196,-0.302 -0.19,0.146 0.093,-0.543 0.086,-0.056 0.077,-0.114 -0.099,0.111 -0.052,-0.066 -0.136,0.331 -0.12,-0.223 -0.177,-0.017 -0.095,-0.167 0.039,0.041 0.027,-0.117 -0.111,0.04 0.124,-0.056 0.281,-0.334 0.045,-0.012 0.075,0.038 -0.015,0.096 0.097,-0.332 0.586,-0.288 0.024,-0.265 0.363,-0.216 -0.037,-0.466 -0.094,-0.182 0.071,-0.03 0.001,-0.067 -0.041,0.06 -0.071,-0.176 0.042,-0.279 -0.056,-0.059 0.071,-0.104 -0.063,-0.059 0.018,-0.105 0.106,-0.073 -0.001,-0.224 -0.045,-0.186 -0.095,-0.013 0.064,0.092 -0.185,0.33 0.026,0.159 -0.114,0.207 -0.01,0.496 -0.142,0.274 0.408,-0.155 -1.713,0.764 -0.318,0.307 -0.126,0.004 -0.159,-0.5 -0.119,-0.045 0.098,0.1 0.078,0.347 -0.012,0.396 0.154,-0.181 -0.054,0.121 -0.418,0.251 -0.188,0.275 -0.479,0.258 -0.075,0.007 -0.022,-0.021 0.042,0.016 -0.09,-0.356 -0.181,-0.006 0.195,0.247 -0.061,0.407 0.109,0.059 -0.023,-0.122 0.038,0.14 -0.152,0.543 -0.36,0.532 -0.125,0.422 -0.238,0.435 -0.044,0.506 -0.541,0.555 0.21,-0.058 0.034,0.046 0.17,-0.177 0.15,0.044 0.122,-0.101 0.048,0.106 -0.108,0.375 -0.151,0.088 -0.118,0.357 0.184,-0.2 -0.04,-0.018 0.413,-0.031 0.162,-0.257 -0.093,0.378 0.09,0.435 0.185,0.194 0.1,0.017 0.187,-0.286 0.116,-0.025 -0.195,0.284 0.018,0.26 -0.088,0.244 0.063,0.349 0.102,0.055 -0.005,0.238 -0.472,0.362 -0.132,0.232 -0.194,0.082 -0.086,-0.203 0.009,-0.478 -0.074,-0.203 -0.039,0.355 -0.187,0.343 -0.097,-0.166 0.09,0.233 -0.057,0.106 0.167,-0.075 0.043,0.434 0.07,0.104 -0.009,0.256 0.116,-0.325 0.167,-0.065 v 0.06 l -0.242,0.398 -0.106,0.64 -0.199,0.286 -0.352,0.196 -0.186,-0.095 -0.067,-0.258 0.122,0.006 -0.196,-0.332 0.029,-0.209 0.24,-0.198 -0.406,0.188 -0.278,-0.136 -0.454,-0.986 -0.098,-0.391 0.069,-0.319 -0.141,-0.162 -0.336,-0.191 -0.326,-0.703 0.555,-1.48 0.042,-0.013 0.107,0.095 0.055,0.03 0.021,-0.006 -0.108,-0.076 0.048,-0.148 0.512,-0.525 0.284,-0.53 -0.008,0.069 0.122,-0.089 -0.103,0.021 -0.043,-0.264 0.072,-0.186 -10e-4,0.07 0.043,-0.048 -0.028,-0.115 0.194,-0.158 0.025,-0.065 -0.252,0.204 0.02,0.085 -0.19,0.119 -0.052,-0.556 0.12,-0.377 0.004,-0.314 0.045,-0.23 0.045,-0.105 0.086,-0.125 -0.11,0.212 0.414,0.051 0.301,-0.065 0.118,-0.127 -0.057,-0.024 0.054,-0.065 -0.259,0.1 -0.137,-0.08 -0.145,0.036 -0.506,-0.281 -0.003,-0.062 0.051,-0.098 -0.028,0.16 0.168,-0.231 -10e-4,-0.174 0.163,-0.098 -0.052,-0.127 0.167,-0.251 0.065,-0.26 -0.251,0.413 -0.127,0.062 0.115,-0.022 -0.45,0.132 z"
   id="26"
   class="district"
   clip-path="none"
   transform="translate(-45.340259,-41.217869)" />
<path
   transform="translate(-45.340259,-41.217869)"
   style=""
   clip-path="none"
   class="district"
   d="m 73.714,90.278 0.026,-1.05 0.289,0.055 0.035,-0.045 0.019,0.106 0.09,0.002 0.003,-0.105 0.439,0.01 0.059,-2.218 -0.175,-0.145 0.006,-0.213 0.461,0.021 0.004,-0.109 0.158,0.002 -0.002,0.06 0.105,0.02 0.602,-0.03 -0.03,-0.396 0.104,-0.032 -0.073,-0.068 0.313,-0.034 0.005,0.176 0.081,0.002 0.022,0.184 -0.125,-0.003 -0.004,0.116 0.197,-0.023 0.013,0.046 -0.088,-0.003 -0.004,0.122 0.175,0.004 -0.039,0.188 0.389,-0.164 -0.001,0.081 0.069,0.001 -0.004,0.177 0.127,0.106 0.028,0.24 0.11,0.164 -0.015,0.381 1.23,0.577 0.002,0.13 0.166,-0.026 0.222,0.071 -0.006,0.47 0.384,-0.148 0.439,0.209 0.181,0.302 0.356,0.214 -0.063,1.453 -0.172,0.306 -0.073,-0.011 0,-0.097 -0.101,0.014 -0.163,0.266 0.016,0.169 -0.067,0.07 0.048,1.416 0.075,-0.001 0.137,0.185 0.017,0.512 0.144,0.208 0.026,0.298 -0.504,0.123 -0.22,-0.021 -0.27,-0.082 -0.368,-0.243 0.008,-0.295 -0.689,-0.023 -0.004,-0.111 -0.155,0.097 -0.543,-0.012 0.013,-0.706 0.259,-0.077 0.039,-0.113 -0.037,-0.157 -0.251,-0.007 0.008,-0.352 -0.7,-0.019 -0.015,0.708 -0.77,-0.008 -0.58,-0.38 -0.197,-0.297 -0.182,-0.147 -1.136,-0.553 -0.273,-0.012 0.002,-0.085 -0.087,-0.015 0.047,-1.294 0.088,0.002 -0.087,-0.035 0.004,-0.107 z"
   id="25" />
<path
   inkscape:connector-curvature="0"
   d="m 70.986,64.143 0.146,0.144 0.337,0.028 -0.104,-0.18 -0.152,0.105 0.052,-0.079 0.123,-0.04 0.165,0.327 0.079,0.36 -0.102,0.344 0.036,0.151 -0.105,0.186 -0.026,0.48 0.066,0.225 0.225,0.203 -0.107,0.155 -0.475,0.225 -0.057,0.162 -0.092,-0.024 0.056,0.053 0.13,-0.053 0.088,0.057 0.323,0.528 0.413,0.271 -0.159,0.312 -0.011,0.185 0.093,0.13 -0.113,-0.034 -0.22,-0.246 -0.387,0.245 -0.062,-0.038 0.03,-0.036 -0.01,-0.071 -0.017,0.08 -0.149,-0.033 -0.178,0.141 -0.144,-0.258 -0.207,0.021 -0.09,-0.154 0.008,0.115 0.066,0.142 0.207,-0.001 0.13,0.244 0.438,0.088 0.033,0.065 0.377,-0.122 0.085,0.358 -0.067,0.442 0.039,0.2 -0.591,0.02 -0.02,-0.061 -0.078,0.017 0.007,0.073 0.445,0.135 0.176,0.149 0.51,0.191 0.131,0.135 -0.534,0.163 -0.258,0.226 -0.337,0.05 -0.286,-0.04 -0.39,-0.903 -0.337,-0.223 -0.077,-0.295 -0.087,-0.023 -0.162,0.108 -0.184,0.352 -0.194,0.168 -0.225,-0.207 -0.086,-0.248 0.107,-0.761 -0.112,-0.411 0.001,-0.923 0.16,-0.015 0.121,-0.158 0.088,0.009 -0.055,-0.054 -0.248,0.158 -0.15,-0.056 -0.285,-0.849 -0.062,-0.017 0.216,-0.091 0.449,-0.447 0.088,0.027 0.02,0.519 0.227,-0.481 0.087,0.008 0.06,0.102 0.115,-0.048 -0.115,0.007 -0.046,-0.192 -0.078,-0.013 -0.095,-0.233 -0.026,-0.574 0.1,-0.355 -0.031,-0.522 0.384,-0.47 0.156,0.018 0.123,0.109 0.065,0.43 0.41,0.308 -0.051,0.152 -0.095,-0.069 -0.097,0.171 -0.043,-0.063 -0.147,0.063 -0.218,0.286 0.185,0.044 0.063,-0.233 0.167,0.095 0.147,-0.137 0.188,-0.041 -0.012,-0.167 0.105,-0.316 z m -5.918,3.366 -0.168,0.084 -0.021,-0.094 -0.899,-0.036 0.048,-1.764 -0.447,-0.001 -0.016,-0.078 0.145,-0.417 0.039,-0.746 -0.109,-0.5 0.006,-0.594 0.132,-0.13 0.085,-0.238 -0.036,-0.09 0.149,-0.111 -0.027,-0.202 0.235,-0.05 0.145,-0.179 0.059,-0.297 0.171,-0.089 0.032,-0.335 0.221,-0.551 0.262,-0.08 0.15,-0.24 0.282,-0.053 0.148,-0.15 0.229,-0.962 0.334,-0.257 0.286,-0.371 0.326,-0.09 0.264,-0.527 0.246,-0.219 0.298,-0.226 0.273,-0.064 0.299,-0.689 0.242,-0.305 0.558,0.048 0.315,-0.065 -0.037,0.062 0.081,0.043 -0.099,0.076 -0.162,0.63 0.053,0.846 0.194,0.311 0.007,0.113 -0.025,-0.124 -0.085,0.122 0.021,0.146 0.035,-0.127 0.127,-0.009 0.048,-0.167 0.347,-0.16 0.008,-0.212 -0.084,0.117 -0.078,-0.301 0.104,-0.229 -0.077,-0.531 -0.113,-0.419 -0.118,-0.041 0.08,-0.133 0.055,-0.446 -0.045,-0.491 -0.347,-1.183 -0.111,-0.238 -0.106,-0.013 0.158,-0.09 0.007,0.175 0.067,0.057 0.023,-0.155 0.096,0.052 -0.081,-0.155 -0.175,-0.013 0.137,-0.028 -0.002,-0.095 -0.299,-0.308 -0.022,-0.107 -0.271,-0.087 -0.042,-0.092 -0.376,-0.104 0.133,-0.205 -0.125,-0.254 -0.098,0.142 0.156,0.056 0.055,0.042 -0.231,-0.088 0.137,-0.343 0.137,-0.075 0.26,0.011 0.162,0.612 0.289,0.319 1.354,0.169 0.307,0.317 0.41,0.027 -0.06,0.542 0.217,0.66 0.203,0.329 -0.057,0.751 0.269,0.812 -0.049,0.768 0.186,0.372 0.544,0.396 0.056,0.148 -0.107,0.444 -0.332,0.359 0.008,0.137 -0.04,-0.052 -0.001,0.026 -0.035,0.052 -0.051,0.026 0.078,-0.11 -0.16,-0.102 -0.32,0.177 -0.034,-0.156 -0.031,0.269 0.146,-0.135 0.071,0.102 -0.001,-0.116 0.193,0.352 0.546,0.333 -0.009,0.25 0.148,0.343 0.201,0.144 0.047,0.449 -0.117,0.195 0.046,0.135 -0.116,0.162 -0.416,0.122 -0.171,-0.027 -0.014,-0.146 -0.177,0.008 -0.046,0.08 0.182,0.008 0.012,0.02 -0.353,0.058 -0.279,-0.018 -0.166,-0.149 -0.608,-0.067 -0.48,0.058 -0.059,-0.066 0.367,0.013 -0.219,-0.205 -0.058,-0.438 -0.186,-0.192 -0.057,0.015 0.053,-0.254 -0.024,-0.03 -0.061,0.311 0.195,0.193 -0.211,0.456 0.05,0.136 0.076,-0.041 0.196,0.341 0.019,0.44 -0.216,0.378 -0.145,0.082 -0.14,0.337 -0.181,0.197 -0.143,0.025 -0.266,0.349 -0.009,0.271 -0.118,0.065 -0.07,0.271 -0.078,0.022 -0.121,-0.198 -0.324,-0.107 -0.016,-0.387 -0.288,-0.393 -0.195,0.02 -0.249,0.184 -0.016,-0.338 0.141,-0.012 0.007,-0.111 -0.098,-0.119 -0.178,-0.034 -0.237,-0.18 -0.016,-0.112 -0.121,-0.096 -0.201,-0.484 -0.05,-0.391 0.105,-0.224 -0.064,0.027 -0.105,0.414 -0.297,0.646 0.154,0.3 0.022,0.199 0.064,-0.104 0.044,0.161 0.03,-0.088 0.133,0.451 0.055,-0.185 0.073,0.021 0.106,0.445 0.011,-0.159 0.139,-0.216 -0.018,0.476 -0.12,0.062 0.179,0.1 0.211,-0.03 0.011,0.087 0.037,-0.116 -0.044,0.021 -0.063,-0.13 -0.101,-0.003 0.059,-0.159 0.218,0.071 0.154,-0.03 0.079,0.136 0.112,0.033 -0.029,0.124 -0.16,0.043 -0.122,0.166 0.157,-0.021 -0.017,-0.139 0.061,0.154 -0.061,0.116 0.169,1.407 -0.069,0.455 -0.188,0.149 -0.31,-0.074 0.307,0.138 0.057,-0.07 0.087,0.051 0.39,0.277 0.019,0.183 0.115,0.181 0.182,-0.078 0.078,0.13 -0.165,1.237 -0.117,0.385 0.203,0.309 -0.01,0.096 -0.37,0.938 -0.195,0.292 -0.182,0.033 -0.346,-0.554 -0.515,-0.215 -0.399,-0.478 -0.087,-0.188 0.009,-0.178 -0.146,-0.15 0.032,-0.608 -0.252,-0.119 -0.306,-0.311 0.048,-0.285 0.124,-0.181 0.005,-0.127 0.038,0.001 0.054,-0.059 -0.081,0.052 -0.138,-0.167 -0.065,-0.159 -0.096,-0.088 -0.053,-0.099 -0.006,-0.046 0.052,0.1 0.061,-0.048 -0.16,-0.105 -0.006,-0.139 -0.015,-0.017 0.015,0.097 -0.07,0.061 -0.11,0.03 -0.056,-0.079 -0.026,0.271 -0.207,0.121 -0.083,0.298 z"
   id="23"
   class="district"
   clip-path="none"
   transform="translate(-45.340259,-41.217869)" />
<path
   inkscape:connector-curvature="0"
   d="m 64.356,93.223 0.021,0.256 0.152,0.14 -0.072,0.359 -0.334,0.137 0.065,0.139 -0.091,0.277 0.145,0.266 -0.352,0.173 -0.674,0.013 -0.871,0.16 -0.003,0.114 0.392,0.007 -0.01,0.353 -0.697,-0.022 0.008,-0.263 -0.174,-0.005 0.003,-0.087 -0.436,0.072 -0.004,0.087 -0.09,-0.005 -0.007,0.174 -0.184,-0.004 0.004,0.176 0.176,-0.044 -0.003,0.154 0.153,0.003 -0.051,0.339 0.18,-0.044 0.054,0.142 10e-4,0.195 -0.061,0.025 0.168,0.726 0.198,0.229 -0.078,0.271 0.116,0.303 -1.748,1.117 -0.381,-0.65 -0.029,-0.182 -0.351,-0.092 0.019,-0.619 -0.694,-0.026 -0.004,0.179 -0.391,-0.012 -0.003,0.176 -0.133,-0.004 -0.003,0.062 0.17,0.031 0,0.217 -0.174,-0.056 -0.02,0.318 -0.145,0.095 0.055,0.078 -0.089,0.014 -0.016,0.335 -0.316,0.244 0.562,0.791 -0.008,0.086 0.076,0.003 -0.006,0.246 -0.524,-0.016 0.006,-0.176 -0.332,-0.011 -0.004,0.174 -0.462,-0.015 0.003,-0.095 0.091,-0.014 0.005,-0.149 0.088,0.003 0.004,-0.091 -0.092,-0.008 0.007,-0.339 -0.519,-0.021 -0.038,1.051 -0.343,-0.005 0.136,-0.33 0.208,-1.288 -0.115,-0.005 0.002,-0.128 -0.09,-0.001 -0.444,0.457 -0.173,-0.088 -0.436,-0.009 0.193,-0.659 -0.178,-0.088 0.006,-0.166 -0.09,-0.031 0.177,-0.004 0.019,-0.492 0.343,0.01 0.139,-0.353 -0.295,-0.008 0.004,-0.178 -0.101,0.083 -0.381,-0.141 -0.637,-0.417 0.149,-0.392 0.261,-0.285 0.036,-0.207 -0.129,-0.025 -0.141,-0.109 0.156,0.071 -0.094,-0.157 0.004,-0.025 0.038,0.014 0.045,-0.026 -0.206,-0.24 0.075,-0.021 0.087,0.04 0.002,-0.021 -0.076,-0.046 -0.161,0.016 -0.081,-0.219 0.076,0.067 0.173,0.043 0.012,-0.017 -0.305,-0.249 -0.229,-0.037 -0.065,-0.32 0.108,-0.312 0.144,0.024 0.34,-0.269 0.286,-0.059 0.068,-0.149 0.41,-0.242 0.383,-0.352 0.184,-0.014 0.187,0.075 -0.108,-0.061 -0.01,-0.12 0.411,-0.466 -0.032,-0.303 -0.151,-0.314 0.014,-0.193 0.347,-0.58 0.052,0.018 0.168,-0.361 -0.036,0.651 0.084,0.995 -0.045,0.192 -0.3,0.264 0.098,0.354 -0.247,0.682 0.095,-0.027 0.234,0.121 0.314,0.59 0.158,0.525 -0.024,0.426 0.061,0.157 0.123,-0.093 0.08,0.039 -0.044,-0.584 0.038,0.039 0.046,-0.13 0.167,0.065 0.02,0.276 0.066,0.034 0.014,0.195 0.061,-0.022 -0.009,-0.488 -0.148,-0.605 0.113,-0.176 -0.189,0.154 -0.092,-0.234 0.118,-0.286 0.026,-0.322 0.225,-0.479 -0.042,-0.043 0.065,-0.036 0.033,-0.522 0.178,-0.11 0.074,0.138 -0.056,-0.204 0.06,-0.121 -0.221,0.188 -0.069,-0.275 -0.293,-0.457 -0.096,-0.611 0.201,0.038 0.019,-0.228 0.158,-0.09 0.091,0.131 -0.018,0.126 0.036,0.004 0.05,-0.142 0.217,-0.087 0.145,-0.276 0.111,-0.109 -10e-4,0.128 0.171,-0.238 0.204,-0.061 0.085,0.078 -0.053,0.166 0.103,-0.177 0.121,-0.059 0.102,0.085 -0.068,-0.115 -0.198,0.053 0.082,-0.238 0.208,-0.016 0.111,-0.116 0.097,0.172 0.057,-0.093 0.142,-0.032 0.053,0.531 0.088,0.094 -0.234,0.169 0.027,0.442 -0.074,0.117 -0.254,-0.263 -0.101,0.141 0.108,-0.073 0.069,0.215 0.068,-0.044 0.096,0.171 0.191,0.013 -0.253,0.053 -0.483,0.516 0.356,-0.298 0.088,0.021 0.052,-0.138 0.143,-0.044 0.113,0.499 0.335,0.474 -0.023,0.353 0.055,0.106 -0.083,0.035 0.069,0.058 -0.042,0.217 0.117,-0.024 0.039,0.146 0.042,-0.063 -0.055,-0.293 0.134,0.03 -0.123,-0.087 0.012,-0.257 -0.069,0.114 0.016,-0.122 0.071,-0.019 -0.062,-0.078 0.007,-0.211 0.087,-0.021 -0.121,-0.019 0.041,-0.037 -0.158,-0.133 0.046,-0.367 0.039,-0.105 0.062,0.015 -0.05,-0.133 -0.074,0.083 0.021,-0.221 0.053,-0.016 0.022,-0.069 -0.087,0.074 0.092,-0.157 -0.047,-0.178 0.102,-1.199 0.201,-0.56 0.102,-0.066 0.111,-0.03 0.067,0.37 -0.042,0.095 0.054,-0.015 0.052,0.104 0.002,0.273 0.088,0.069 -0.055,-0.17 0.137,-0.073 0.19,0.294 0.039,0.223 -0.122,0.22 0.134,-0.146 0.122,0.017 0.061,0.43 0.133,0.114 -0.069,0.194 0.069,0.492 0.297,0.104 0.036,0.096 -0.058,0.076 0.046,0.064 0.041,-0.02 -0.077,-0.045 0.471,0.09 0.054,0.079 -0.041,10e-4 -0.029,0.062 0.106,-0.048 0.149,0.128 0.021,0.234 0.03,-0.073 0.283,0.178 0.125,0.103 0.013,0.122 0.036,-0.073 0.19,0.062 0.233,0.183 -0.023,0.128 0.237,-0.247 0.632,-0.017 z"
   id="22"
   class="district"
   clip-path="none"
   transform="translate(-45.340259,-41.217869)" />
<path
   transform="translate(-45.340259,-41.217869)"
   style=""
   clip-path="none"
   class="district"
   d="m 79.144,52.746 -0.177,-0.004 -0.005,0.175 -0.177,-0.007 -0.017,0.676 0.176,0.036 -0.006,0.23 0.179,0.019 -0.013,0.609 0.346,0.008 0.004,-0.195 0.166,0.008 0.108,0.247 -0.057,0.145 1.741,0.046 -0.157,0.525 0.299,-0.076 0.162,0.006 -0.002,0.085 0.088,0.004 -0.052,0.173 0.078,0.002 -0.004,0.168 -0.109,0.005 -0.011,0.396 -0.171,-0.006 -0.007,0.133 -0.176,-0.004 -0.028,-0.554 -0.254,-0.095 -0.6,0.662 0.063,0.062 0.234,-0.028 -0.007,0.354 0.119,0.051 -0.051,0.058 -0.01,0.593 0.092,0 -0.094,0.109 0.124,0 -0.003,0.176 0.064,0 -0.044,0.708 -0.152,-0.004 -0.027,1.229 -0.068,-0.006 -0.084,-0.19 -0.319,-0.341 -0.311,-0.2 -0.576,-0.627 -0.111,-0.267 -0.008,-0.369 -0.449,-0.058 -0.146,0.092 -0.013,-0.065 -0.351,-0.002 -0.003,0.202 -0.457,-0.033 -0.2,0.247 -0.061,0.275 -0.194,0.237 -0.217,-0.049 0.041,0.93 -0.065,0.018 -0.035,0.242 -0.257,-0.006 -0.179,0.106 -10e-4,0.07 -0.487,-0.013 -0.003,0.179 -0.524,-0.017 0.004,-0.175 -0.383,-0.006 0.003,-0.085 -0.024,-0.058 -0.004,-0.027 0.007,-0.013 0.122,-0.097 -0.124,0.108 0.059,0.058 0.2,-0.231 -0.037,-0.033 -0.079,0.083 0.041,-0.06 0.041,-0.026 0.045,0.039 0.213,-0.182 0.913,-1.219 0.331,-0.173 0.243,-0.327 0.066,-0.517 0.2,-0.449 -0.023,-0.273 -0.111,-0.223 0.463,-1.619 0.367,-0.569 -0.015,-0.571 0.092,-0.405 0.053,-0.123 0.489,-0.133 0.002,0.057 0.194,-0.029 -0.001,0.095 0.105,0.002 z"
   id="21" />
<path
   transform="translate(-45.340259,-41.217869)"
   style=""
   clip-path="none"
   class="district"
   d="m 77.54,70.232 0.098,0.182 -0.006,0.252 0.209,0.029 0.319,1.709 0.277,0.317 0.062,0.166 0.051,0.374 -0.139,0.107 0.081,0.253 0.148,0.305 0.147,0.014 0.005,0.089 0.083,0.049 0.015,-0.134 0.175,0.01 -0.023,0.679 0.538,0.56 0.595,0.17 0.221,0.166 0.375,-0.088 0.07,0.206 -0.045,0.084 0.232,0.002 0.043,-0.135 0.118,0.005 0.344,-0.49 0.08,-0.279 -0.155,-0.488 0.19,0.071 0.007,-0.245 0.176,0 0,-0.443 0.178,0.076 0.007,-0.126 0.492,-0.075 0.195,0.12 0.01,-0.129 0.508,0.106 0.006,0.222 -0.178,0.16 0.173,0.007 -0.004,0.151 0.325,0.018 0.285,0.229 -0.049,0.088 -0.564,-0.026 -0.001,0.178 0.261,0.009 -0.002,0.346 0.257,0.012 0.083,0.176 0.172,0.01 0.001,0.131 -0.085,-0.005 -0.002,0.392 -0.091,-0.003 10e-4,-0.088 -0.78,-0.041 -0.008,0.104 -0.169,-0.005 -0.004,0.159 0.288,0.013 0.063,0.207 0.172,0.044 0.057,-0.175 0.105,-0.053 0.53,0.137 0.253,0.001 0.086,-0.094 0.082,0.009 -0.061,0.186 0.061,0.059 -0.089,-0.021 -0.06,0.082 0.866,0.151 0.222,0.433 0.075,0.446 0.446,0.513 -0.193,0.158 10e-4,-0.066 -0.553,-0.017 0.024,0.133 -0.111,0.217 -0.599,-0.016 0.017,-0.631 -0.127,-0.018 -0.214,-0.203 -0.008,0.141 -0.247,10e-4 -0.805,-0.022 -0.242,-0.042 -0.095,-0.094 -0.02,0.472 -0.696,-0.011 -0.023,0.699 -0.352,-0.006 -0.005,0.175 -0.338,-0.009 0.006,-0.266 -0.08,-0.003 0,-0.083 0.082,0.002 0.026,-1.064 -0.107,-0.002 -10e-4,-0.162 -0.141,0.11 -0.247,0.059 -1.103,-0.029 -0.103,0.375 -0.471,-0.047 0.145,0.195 -0.231,0.071 -0.068,0.164 0.062,0.167 -0.065,0.115 -0.556,0 -0.001,-0.124 0.483,-0.447 -0.032,-0.157 0.19,-0.205 0.009,-0.205 -0.063,-0.032 0.07,-0.203 -0.125,-0.002 0.063,-0.089 -0.059,-0.102 0.039,-0.132 -0.117,-0.004 -10e-4,-0.085 -0.322,-0.009 0.006,-0.162 -0.351,-0.009 0.131,-0.35 -0.276,-1.062 0.164,10e-4 -0.066,-0.064 -0.18,-0.797 -0.555,-0.679 -0.002,0.071 -0.267,-0.003 0.003,-0.109 -0.185,-0.006 -0.087,-0.443 0.02,-0.583 -0.334,-0.835 -0.05,-0.377 0.102,-0.371 0.004,-0.477 0.134,0.133 0.004,-0.202 z"
   id="11" />
<path
   clip-path="none"
   class="district"
   d="M 20.84375 0 L 20.96875 0.28125 L 21.15625 1.15625 L 20.625 1.25 L 21.21875 1.1875 L 21.34375 1.09375 L 21.34375 0.9375 L 21.4375 0.9375 L 21.4375 1.03125 L 21.90625 0.8125 L 22.375 0.75 L 23 0.875 L 23.375 1.25 L 23.65625 2.15625 L 23.71875 3 L 23.9375 3.09375 L 24.0625 3.1875 L 24.15625 3.4375 L 23.75 3.5 L 23.75 3.25 L 23.71875 3.53125 L 23.40625 4.4375 L 23.21875 4.875 L 23.34375 4.84375 L 23.3125 5.21875 L 23.3125 4.9375 L 23.21875 5.1875 L 23.25 5 L 23.21875 4.90625 L 23.1875 5.21875 L 23.40625 5.4375 L 23.4375 5.625 L 23.65625 5.8125 L 23.8125 6.09375 L 23.78125 6.5 L 23.6875 6.84375 L 23.34375 7.21875 L 23.65625 7.4375 L 23.78125 7.75 L 23.9375 7.90625 L 24.15625 8.21875 L 24.875 8.46875 L 25.40625 8.96875 L 25.40625 9.3125 L 25.09375 9.875 L 25.0625 10.0625 L 25.1875 10.15625 L 25.21875 10.34375 L 26.0625 10.09375 L 26.21875 9.84375 L 26.25 9.71875 L 26.40625 9.59375 L 26.6875 9.4375 L 27.125 9.3125 L 27.125 9.25 L 27 9.1875 L 27.03125 9.03125 L 27.40625 9 L 27.40625 9.25 L 27.21875 9.125 L 27.28125 9.25 L 27.6875 9.40625 L 27.75 9.4375 L 27.84375 9.6875 L 27.75 9.5625 L 27.96875 9.96875 L 28.28125 10.28125 L 28.53125 10.75 L 28.65625 11.15625 L 28.65625 11.46875 L 28.625 11.65625 L 28.46875 11.84375 L 28.5 12.25 L 28.9375 12.8125 L 28.90625 13.03125 L 29.3125 13.125 L 29.5 13.09375 L 29.78125 12.6875 L 30.125 12.65625 L 30.1875 12.59375 L 30.375 12.5625 L 30.1875 12.5625 L 30.1875 12.40625 L 30.28125 12.40625 L 30.40625 12.46875 L 30.40625 12.625 L 30.09375 13.125 L 30.15625 12.8125 L 30.03125 13.125 L 30.21875 13.4375 L 30.5625 13.53125 L 30.6875 13.40625 L 30.71875 12.59375 L 31.0625 12.09375 L 31.3125 11.96875 L 31.625 10.9375 L 31.53125 9.71875 L 31.21875 9.40625 L 30.96875 8.9375 L 30.9375 7.625 L 30.84375 7.375 L 30.84375 7.25 L 30.59375 7.3125 L 30 7.125 L 29.875 6.9375 L 29.5625 6.78125 L 29.15625 6.71875 L 28.90625 6.5 L 28.625 6.34375 L 27.90625 5.125 L 27.75 5.03125 L 27.4375 4.71875 L 27.21875 4.28125 L 27.1875 4.125 L 26.9375 4.1875 L 26.46875 4.09375 L 26.15625 4.09375 L 26.09375 4.125 L 26.25 4.625 L 26.53125 5.1875 L 26.28125 5.71875 L 26.40625 5.875 L 26.3125 6.0625 L 26.53125 6.875 L 26.21875 7.6875 L 25.96875 8.03125 L 25.6875 8 L 25.59375 8.0625 L 25.46875 8 L 25.4375 7.84375 L 25.59375 7.53125 L 25.625 6.75 L 25.5625 6.375 L 25.21875 6.1875 L 25.375 5.78125 L 25.34375 5.21875 L 25.375 5.09375 L 25.125 5.03125 L 24.5625 3.78125 L 24.625 3.625 L 25 3.25 L 25.03125 3.03125 L 25 2.75 L 24.78125 2.3125 L 24.78125 1.59375 L 24.375 1 L 24.34375 0.625 L 24.21875 0 L 20.84375 0 z M 27.75 9.5625 L 27.6875 9.40625 L 27.65625 9.4375 L 27.75 9.5625 z M 23.71875 3 L 23.71875 3.1875 L 23.75 3.21875 L 23.71875 3 z M 25.875 0 L 26.03125 0.34375 L 26.0625 0.53125 L 26.21875 0.71875 L 26.3125 1.15625 L 26.53125 1.625 L 26.46875 1.90625 L 26.59375 2.375 L 27.0625 2.71875 L 27.15625 2.90625 L 27.28125 2.96875 L 27.4375 2.90625 L 27.59375 2.625 L 27.6875 2.53125 L 27.71875 2.40625 L 27.90625 2.34375 L 28 2.5 L 27.6875 2.59375 L 28 2.53125 L 28.53125 3.28125 L 28.65625 3.5625 L 28.78125 3.6875 L 29.21875 3.78125 L 29.4375 3.90625 L 29.625 4.375 L 30.09375 4.71875 L 30.34375 5.0625 L 30.5 5.8125 L 30.625 5.84375 L 30.90625 6.125 L 31.40625 6.25 L 31.53125 6.15625 L 31.4375 5.9375 L 31.25 5.6875 L 30.78125 4.59375 L 29.9375 3.59375 L 29.5 3.25 L 29.3125 2.875 L 29.03125 2.71875 L 28.8125 2.53125 L 28.625 2 L 28.25 1.625 L 28.0625 0.96875 L 27.78125 0.75 L 27.8125 0.46875 L 27.6875 0.3125 L 27.71875 0 L 25.875 0 z M 31.6875 0 L 31.34375 0.5625 L 31.1875 0.9375 L 31.375 1.59375 L 31.375 1.96875 L 31.21875 2.375 L 31.375 2.53125 L 31.3125 2.8125 L 31.375 2.9375 L 34.375 3.03125 L 34.3125 2.71875 L 34.03125 2.46875 L 34.03125 2.3125 L 34.34375 2.3125 L 34.5 2.1875 L 34.1875 1.78125 L 34.25 1.4375 L 34.53125 1.46875 L 34.625 1.375 L 34.84375 1.5 L 35.1875 1.40625 L 35.4375 1.65625 L 36.1875 1.6875 L 36.1875 1.5 L 36.8125 1.5 L 36.8125 1.125 L 37 1.125 L 36.9375 0.53125 L 36.65625 0 L 31.6875 0 z "
   id="10" />
<path
   clip-path="none"
   class="district"
   d="M 45.1875 20.03125 L 45.1875 20.28125 L 45.375 20.3125 L 45.40625 20.875 L 45.6875 21.0625 L 45.6875 21.21875 L 45.53125 21.15625 L 45.875 21.625 L 45.8125 21.96875 L 45.34375 21.9375 L 45.34375 22.09375 L 45.1875 22.125 L 45.1875 22.1875 L 45.34375 22.28125 L 45.34375 22.375 L 45.21875 22.4375 L 45.40625 22.75 L 45.28125 22.78125 L 45.09375 22.65625 L 45.09375 23 L 43.25 22.90625 L 43.28125 23.28125 L 42.5625 23.25 L 42.75 23.78125 L 43.15625 24.375 L 43.21875 24.65625 L 43.71875 25.53125 L 43.84375 25.59375 L 44.03125 26.25 L 43.78125 26.28125 L 43.90625 26.40625 L 43.625 26.9375 L 43.65625 27.03125 L 43.625 28.84375 L 43.9375 28.84375 L 43.90625 29.03125 L 44.09375 29.03125 L 44.53125 29.4375 L 44.53125 29.53125 L 44.1875 29.53125 L 44.1875 29.71875 L 44.03125 29.71875 L 44.03125 29.53125 L 43.53125 29.53125 L 43.53125 29.3125 L 43.4375 29.3125 L 43.4375 29.15625 L 43.25 29.15625 L 43.25 29.4375 L 43.03125 29.75 L 42.5 29.46875 L 41.9375 29.46875 L 41.75 29.53125 L 41.9375 29.78125 L 41.8125 30.15625 L 41.8125 30.4375 L 41.9375 30.71875 L 41.75 30.90625 L 41.6875 30.875 L 41.75 30.84375 L 41.75 30.71875 L 41.46875 30.71875 L 41.40625 30.90625 L 41.375 30.84375 L 40.71875 30.84375 L 40.53125 31.125 L 40.53125 31.34375 L 40.375 31.15625 L 40.21875 31.15625 L 40.1875 31.28125 L 40.28125 31.3125 L 40.1875 31.3125 L 40.1875 31.53125 L 40.09375 31.53125 L 40.09375 31.875 L 40 31.875 L 40 32.5625 L 37.90625 32.5 L 37.875 32.71875 L 37.71875 32.875 L 37.875 32.875 L 37.875 33.03125 L 38.1875 33.03125 L 38.5 33.28125 L 38.4375 33.34375 L 37.875 33.34375 L 37.875 33.5 L 38.125 33.53125 L 38.125 33.875 L 38.375 33.875 L 38.46875 34.0625 L 38.65625 34.0625 L 38.65625 34.1875 L 38.5625 34.1875 L 38.5625 34.59375 L 38.46875 34.59375 L 38.46875 34.5 L 37.6875 34.4375 L 37.6875 34.5625 L 37.5 34.5625 L 37.5 34.6875 L 37.8125 34.71875 L 37.84375 34.9375 L 38.03125 34.96875 L 38.09375 34.78125 L 38.1875 34.75 L 38.71875 34.875 L 38.96875 34.875 L 39.0625 34.78125 L 39.15625 34.78125 L 39.09375 34.96875 L 39.15625 35.03125 L 39.0625 35.03125 L 39 35.09375 L 39.78125 35.21875 L 39.875 35.28125 L 40.09375 35.6875 L 40.15625 36.125 L 40.59375 36.65625 L 40.40625 36.8125 L 40.40625 36.75 L 39.84375 36.71875 L 39.875 36.84375 L 39.78125 37.0625 L 39.25 37.0625 L 39.34375 37.1875 L 39.34375 37.9375 L 39.4375 38.09375 L 39.15625 38.09375 L 39.125 38.78125 L 39.8125 38.8125 L 39.8125 39.5 L 40.40625 39.5 L 40.40625 39.90625 L 40.53125 39.84375 L 40.5 40.21875 L 40.28125 40.21875 L 40.28125 40.40625 L 40.46875 40.40625 L 40.46875 40.65625 L 40.6875 40.71875 L 40.65625 41.0625 L 40.46875 41 L 40.4375 41.59375 L 40.78125 41.59375 L 40.8125 41.25 L 40.90625 41.28125 L 40.96875 41.65625 L 41.09375 41.8125 L 41.15625 42.15625 L 41.28125 42.3125 L 41.125 42.3125 L 41.15625 43.71875 L 41.53125 43.6875 L 41.65625 43.75 L 41.75 43.6875 L 41.75 43.53125 L 42 43.5625 L 42 43.375 L 42.5 43.40625 L 42.71875 43.71875 L 42.59375 44.5 L 41.28125 44.4375 L 41.28125 44.625 L 41.09375 44.625 L 41.09375 46.125 L 40.84375 45.8125 L 40.40625 45.8125 L 40.375 46.5 L 43.5625 46.5625 L 43.53125 46.9375 L 44.09375 46.9375 L 44.09375 46.4375 L 44.25 46.40625 L 44.25 46.25 L 44.0625 46.25 L 44.1875 45.53125 L 43.9375 45.5625 L 43.90625 45.34375 L 44.25 45.28125 L 44.34375 45.3125 L 44.4375 45.46875 L 44.625 45.40625 L 44.625 45.21875 L 44.90625 45.15625 L 44.9375 44.96875 L 45 44.9375 L 44.9375 44.84375 L 45.15625 44.65625 L 45.125 44.5625 L 45.28125 44.3125 L 45.5625 44.09375 L 45.65625 44.0625 L 45.65625 44.15625 L 45.78125 44.3125 L 46.25 44.40625 L 46.5625 44.59375 L 46.84375 44.625 L 47.03125 44.5625 L 47.375 44.59375 L 47.4375 41.0625 L 51.75 41.15625 L 51.75 41.25 L 53.78125 41.34375 L 58.96875 41.4375 L 59.96875 41.4375 L 59.96875 32.75 L 59.9375 32.75 L 59.90625 33 L 56.4375 32.9375 L 56.4375 33.03125 L 55.75 33.03125 L 55.84375 28.78125 L 56.21875 28.78125 L 56.40625 20.21875 L 45.1875 20.03125 z "
   id="5" />
<path
   clip-path="none"
   class="district"
   d="M 31.125 51.28125 L 31.125 51.96875 L 30.40625 51.96875 L 30.34375 53.75 L 29.8125 53.6875 L 29.8125 54.0625 L 30 54.0625 L 29.96875 54.625 L 30.0625 54.625 L 30.0625 54.78125 L 31 54.78125 L 30.90625 56.34375 L 28.5625 56.3125 L 28.21875 56.1875 L 27.46875 55.75 L 25.90625 55.65625 L 25.84375 55.59375 L 24.65625 56.875 L 24.40625 56.9375 L 24.40625 56.8125 L 24.28125 56.78125 L 24.1875 56.96875 L 24.1875 56.78125 L 23.96875 57.03125 L 23.625 57.09375 L 23.59375 57.8125 L 23.34375 58.4375 L 51.09375 58.4375 L 51.09375 57.9375 L 49.5 57.9375 L 46.96875 57.875 L 46.9375 57.875 L 46.96875 57.96875 L 46.875 57.90625 L 46.875 57.84375 L 45.21875 57.84375 L 45.25 57.875 L 44.75 57.90625 L 44.34375 58.15625 L 43.75 58.34375 L 43.21875 58.21875 L 42.09375 57.65625 L 41.75 57.1875 L 41.09375 56.875 L 40.90625 56.34375 L 40.28125 56.34375 L 40.28125 55.6875 L 40.0625 55.46875 L 40 55.25 L 40.15625 54.71875 L 40.125 54.34375 L 39.875 54.28125 L 38.8125 54.34375 L 38.65625 54.09375 L 38.1875 53.90625 L 38.09375 53.71875 L 37.9375 53.9375 L 37.90625 53.78125 L 37.5625 53.625 L 37.40625 53.65625 L 37.3125 53.78125 L 37.0625 53.78125 L 37 53.875 L 36.875 53.75 L 36.8125 53.53125 L 36.59375 53.40625 L 36.3125 53.5 L 35.96875 53.5 L 35.71875 53.1875 L 35.90625 52.96875 L 35.875 52.71875 L 35.46875 52.40625 L 35.34375 52.5 L 35.375 52.25 L 35.15625 52.1875 L 34.8125 51.5625 L 34.75 51.625 L 34.625 51.625 L 34.78125 51.9375 L 34.46875 51.9375 L 34.46875 52.1875 L 34.3125 52.21875 L 34.40625 52.65625 L 34.375 52.78125 L 34.5 52.96875 L 34.53125 53.28125 L 34.03125 53.40625 L 33.53125 53.28125 L 33.1875 53.0625 L 33.1875 52.75 L 32.5 52.71875 L 32.5 52.625 L 32.34375 52.71875 L 31.78125 52.71875 L 31.8125 52 L 32.0625 51.9375 L 32.0625 51.65625 L 31.8125 51.65625 L 31.8125 51.28125 L 31.125 51.28125 z M 18.90625 53.59375 L 18.5625 53.75 L 17.875 53.75 L 17 53.9375 L 17 54.03125 L 17.40625 54.03125 L 17.375 54.40625 L 16.6875 54.375 L 16.6875 54.125 L 16.53125 54.09375 L 16.53125 54.03125 L 16.09375 54.09375 L 16.09375 54.1875 L 16 54.1875 L 16 54.34375 L 15.8125 54.34375 L 15.8125 54.53125 L 15.96875 54.46875 L 15.96875 54.625 L 16.125 54.625 L 16.09375 54.96875 L 16.25 54.9375 L 16.3125 55.0625 L 16.3125 55.28125 L 16.25 55.28125 L 16.40625 56.03125 L 16.625 56.25 L 16.53125 56.53125 L 16.65625 56.8125 L 15 57.875 L 15.5625 58.34375 L 15.625 58.4375 L 21.1875 58.4375 L 20.96875 58.21875 L 20.96875 58.03125 L 21.1875 57.6875 L 21.25 57.1875 L 21.15625 57.09375 L 20.71875 56.9375 L 20.5625 56.75 L 20.375 56.9375 L 20.21875 56.90625 L 20.125 56.625 L 20.15625 56.5625 L 19.90625 56.375 L 19.8125 56.21875 L 19.84375 55.875 L 19.59375 55.65625 L 19.625 55.46875 L 19.78125 55.25 L 19.71875 55.03125 L 19.5 54.9375 L 19.53125 54.6875 L 19.46875 54.5625 L 19.1875 54.5 L 19.3125 54.25 L 19.15625 54.1875 L 19.125 54.0625 L 18.90625 53.90625 L 18.96875 53.75 L 18.90625 53.59375 z M 21.875 58.25 L 21.84375 58.4375 L 22.96875 58.4375 L 22.875 58.25 L 22.71875 58.40625 L 22.5625 58.40625 L 21.875 58.25 z "
   id="2" />
<path
   transform="translate(-45.340259,-41.217869)"
   style=""
   clip-path="none"
   class="district"
   d="m 78.918,59.224 0.054,-0.154 0.079,0.039 0.319,-0.132 -0.025,0.424 0.104,-0.009 0.19,0.129 0.267,-0.017 0.135,-0.061 -0.032,-0.102 0.169,-0.046 0.123,-0.349 0.323,0.329 0.084,0.19 0.067,0.007 0.028,-1.23 0.152,0.004 0.003,-0.173 0.28,0.007 0.114,0.18 0.815,0.022 -0.018,-1.055 0.753,0.02 0.01,-0.344 1.378,0.044 0.166,-0.079 0.214,0.006 0.017,-0.651 0.219,0.128 0.263,0.531 0.029,0.207 0.215,0.061 0.038,0.124 0.4,0.47 0.818,0.788 -0.12,0.015 0.492,0.588 -0.061,-10e-4 0.088,0.151 -0.024,0.248 0.101,0.369 -0.021,0.62 0.293,0.03 -0.014,0.701 -4.676,-0.134 0.002,0.356 0.084,0.177 -0.086,-0.003 -0.002,0.175 0.095,0.003 0.002,0.166 -0.369,-0.012 -0.049,0.059 0.055,0.298 -0.06,0.667 -0.353,-0.183 0.047,-0.141 -0.059,0.041 -0.046,0.473 -0.141,-0.166 -0.093,0.162 -0.414,-0.007 -0.014,0.769 -0.159,0.004 0.046,0.277 0.105,0.004 -0.008,0.068 -0.148,0.121 -0.178,-0.028 -0.002,0.171 -0.127,0.034 -0.18,0.255 -0.11,0.037 -0.459,-0.201 -0.05,-0.178 -0.383,-0.494 -0.107,-0.552 0.371,0.043 0.023,-0.118 0.189,0.003 -0.031,-0.182 0.143,-0.074 0.718,0.026 -0.122,-0.271 0.129,0.006 -0.004,-0.441 -0.159,-0.006 0.012,-0.174 0.091,10e-4 0.012,-0.061 -0.247,-0.065 0.05,-1.106 -2.938,-0.109 0.169,-1.16 0.25,-0.231 0.439,0.014 0.035,-0.342 z"
   id="1" />
</svg>